<svg xmlns="http://www.w3.org/2000/svg" xmlns:xlink="http://www.w3.org/1999/xlink" width="500" zoomAndPan="magnify" viewBox="0 0 375 374.999991" height="500" preserveAspectRatio="xMidYMid meet" version="1.0"><defs><clipPath id="c82857bb52"><path d="M 187.5 182 L 214.5 182 L 214.5 198 L 187.5 198 Z M 187.5 182 " clip-rule="nonzero"/></clipPath><clipPath id="7e0eb08a65"><path d="M 192 170.265625 L 204 170.265625 L 204 182 L 192 182 Z M 192 170.265625 " clip-rule="nonzero"/></clipPath></defs><g clip-path="url(#c82857bb52)"><path fill="#005900" d="M 200.449219 189.144531 L 204.453125 187.957031 L 206.800781 184.492188 L 209.160156 187.957031 L 213.160156 189.132812 L 210.613281 192.464844 L 210.738281 196.65625 L 206.804688 195.25 L 202.882812 196.65625 L 202.996094 192.464844 Z M 188.128906 195.566406 L 201.636719 195.566406 L 201.605469 196.636719 C 201.59375 197.058594 201.789062 197.453125 202.128906 197.703125 C 202.347656 197.863281 202.609375 197.945312 202.875 197.945312 C 203.019531 197.945312 203.160156 197.921875 203.300781 197.871094 L 206.804688 196.617188 L 210.308594 197.871094 C 210.703125 198.011719 211.144531 197.949219 211.480469 197.699219 C 211.820312 197.453125 212.015625 197.050781 212.003906 196.632812 L 211.902344 192.886719 L 214.171875 189.917969 C 214.425781 189.582031 214.5 189.144531 214.371094 188.742188 C 214.242188 188.339844 213.925781 188.03125 213.523438 187.914062 L 209.957031 186.851562 L 207.851562 183.769531 C 207.617188 183.421875 207.222656 183.222656 206.804688 183.222656 C 206.386719 183.222656 205.996094 183.421875 205.757812 183.769531 L 204.582031 185.492188 L 203.820312 186.609375 L 203.65625 186.855469 L 200.085938 187.914062 C 199.683594 188.03125 199.367188 188.34375 199.238281 188.742188 C 199.109375 189.144531 199.183594 189.582031 199.441406 189.917969 L 201.707031 192.898438 L 201.671875 194.292969 L 188.765625 194.292969 L 188.765625 191.171875 C 188.765625 186.796875 192.570312 183.367188 197.421875 183.355469 C 200.257812 183.363281 202.515625 184.574219 203.820312 186.609375 L 204.582031 185.492188 C 203.015625 183.375 200.503906 182.117188 197.457031 182.058594 C 197.453125 182.058594 197.445312 182.058594 197.441406 182.058594 L 197.398438 182.058594 C 197.394531 182.058594 197.390625 182.058594 197.386719 182.058594 C 191.832031 182.117188 187.5 186.085938 187.5 191.171875 L 187.5 194.929688 C 187.5 195.285156 187.777344 195.566406 188.128906 195.566406 " fill-opacity="1" fill-rule="nonzero"/></g><g clip-path="url(#7e0eb08a65)"><path fill="#005900" d="M 197.519531 171.558594 C 199.847656 171.558594 201.742188 173.464844 201.742188 175.8125 C 201.742188 178.15625 199.847656 180.066406 197.519531 180.066406 C 195.1875 180.066406 193.292969 178.15625 193.292969 175.8125 C 193.292969 173.464844 195.1875 171.558594 197.519531 171.558594 Z M 197.519531 181.351562 C 200.550781 181.351562 203.019531 178.867188 203.019531 175.8125 C 203.019531 172.757812 200.550781 170.269531 197.519531 170.269531 C 194.484375 170.269531 192.015625 172.757812 192.015625 175.8125 C 192.015625 178.867188 194.484375 181.351562 197.519531 181.351562 " fill-opacity="1" fill-rule="nonzero"/></g></svg>