<svg xmlns="http://www.w3.org/2000/svg" xmlns:xlink="http://www.w3.org/1999/xlink" width="500" zoomAndPan="magnify" viewBox="0 0 375 374.999991" height="500" preserveAspectRatio="xMidYMid meet" version="1.0"><defs><clipPath id="f1fa40450d"><path d="M 37.5 185 L 369 185 L 369 375 L 37.5 375 Z M 37.5 185 " clip-rule="nonzero"/></clipPath><clipPath id="18a0d1f7eb"><path d="M 93 41.851562 L 229 41.851562 L 229 178 L 93 178 Z M 93 41.851562 " clip-rule="nonzero"/></clipPath></defs><g clip-path="url(#f1fa40450d)"><path fill="#005900" d="M 196.835938 272.5 L 246.109375 257.984375 L 274.988281 215.617188 L 304.023438 257.984375 L 353.242188 272.351562 L 321.921875 313.054688 L 323.460938 364.304688 L 275.0625 347.097656 L 226.796875 364.257812 L 228.207031 313.054688 Z M 45.234375 350.949219 L 211.445312 350.949219 L 211.085938 364.035156 C 210.945312 369.1875 213.347656 374.035156 217.515625 377.066406 C 220.226562 379.03125 223.441406 380.03125 226.695312 380.03125 C 228.457031 380.03125 230.226562 379.726562 231.929688 379.121094 L 275.0625 363.785156 L 318.195312 379.117188 C 323.046875 380.84375 328.441406 380.0625 332.613281 377.03125 C 336.777344 374.003906 339.183594 369.121094 339.042969 363.972656 L 337.785156 318.210938 L 365.703125 281.933594 C 368.84375 277.84375 369.769531 272.476562 368.175781 267.578125 C 366.582031 262.679688 362.679688 258.882812 357.738281 257.429688 L 313.828125 244.484375 L 287.945312 206.824219 C 285.035156 202.570312 280.214844 200.125 275.0625 200.125 L 275.058594 200.125 C 269.90625 200.125 265.089844 202.574219 262.183594 206.824219 L 247.722656 227.867188 L 238.347656 241.519531 L 236.300781 244.496094 L 192.390625 257.4375 C 187.445312 258.894531 183.542969 262.6875 181.949219 267.585938 C 180.359375 272.488281 181.285156 277.851562 184.429688 281.9375 L 212.34375 318.355469 L 211.878906 335.394531 L 53.058594 335.394531 L 53.058594 297.265625 C 53.058594 243.789062 99.882812 201.878906 159.613281 201.757812 C 194.484375 201.832031 222.273438 216.640625 238.3125 241.5 L 247.707031 227.878906 C 228.441406 201.96875 197.53125 186.597656 160.007812 185.921875 C 159.957031 185.921875 159.898438 185.921875 159.84375 185.921875 L 159.328125 185.921875 C 159.277344 185.921875 159.222656 185.921875 159.171875 185.921875 C 90.824219 186.597656 37.5 235.105469 37.5 297.265625 L 37.5 343.195312 C 37.5 347.539062 40.894531 350.949219 45.234375 350.949219 " fill-opacity="1" fill-rule="nonzero"/></g><g clip-path="url(#18a0d1f7eb)"><path fill="#005900" d="M 160.785156 57.574219 C 189.449219 57.574219 212.769531 80.894531 212.769531 109.558594 C 212.769531 138.226562 189.449219 161.546875 160.785156 161.546875 C 132.117188 161.546875 108.792969 138.226562 108.792969 109.558594 C 108.792969 80.894531 132.117188 57.574219 160.785156 57.574219 Z M 160.785156 177.261719 C 198.117188 177.261719 228.488281 146.886719 228.488281 109.558594 C 228.488281 72.230469 198.117188 41.859375 160.785156 41.859375 C 123.453125 41.859375 93.078125 72.230469 93.078125 109.558594 C 93.078125 146.886719 123.453125 177.261719 160.785156 177.261719 " fill-opacity="1" fill-rule="nonzero"/></g></svg>