<svg xmlns="http://www.w3.org/2000/svg" xmlns:xlink="http://www.w3.org/1999/xlink" width="500" zoomAndPan="magnify" viewBox="0 0 375 374.999991" height="500" preserveAspectRatio="xMidYMid meet" version="1.0"><defs><clipPath id="20da6a2265"><path d="M 17.710938 12.816406 L 158 12.816406 L 158 153 L 17.710938 153 Z M 17.710938 12.816406 " clip-rule="nonzero"/></clipPath><clipPath id="06b46c510b"><path d="M 17.710938 212 L 158 212 L 158 352.566406 L 17.710938 352.566406 Z M 17.710938 212 " clip-rule="nonzero"/></clipPath><clipPath id="791aff11fc"><path d="M 217 12.816406 L 357.460938 12.816406 L 357.460938 153 L 217 153 Z M 217 12.816406 " clip-rule="nonzero"/></clipPath><clipPath id="88d0b34995"><path d="M 217 212 L 357.460938 212 L 357.460938 352.566406 L 217 352.566406 Z M 217 212 " clip-rule="nonzero"/></clipPath></defs><g clip-path="url(#20da6a2265)"><path fill="#005900" d="M 17.710938 22.808594 C 17.710938 17.289062 22.183594 12.816406 27.703125 12.816406 L 147.617188 12.816406 C 153.132812 12.816406 157.609375 17.289062 157.609375 22.808594 L 157.609375 142.722656 C 157.609375 148.238281 153.132812 152.714844 147.617188 152.714844 L 27.703125 152.714844 C 22.183594 152.714844 17.710938 148.238281 17.710938 142.722656 Z M 37.695312 32.800781 L 37.695312 132.726562 L 137.625 132.726562 L 137.625 32.800781 Z M 37.695312 32.800781 " fill-opacity="1" fill-rule="evenodd"/></g><g clip-path="url(#06b46c510b)"><path fill="#005900" d="M 157.609375 342.574219 C 157.609375 348.089844 153.132812 352.566406 147.617188 352.566406 L 92.203125 352.566406 C 86.683594 352.566406 82.210938 348.089844 82.210938 342.574219 C 82.210938 337.054688 86.683594 332.582031 92.203125 332.582031 L 137.625 332.582031 L 137.625 232.65625 L 37.695312 232.65625 L 37.695312 332.582031 L 48.183594 332.582031 C 53.703125 332.582031 58.179688 337.054688 58.179688 342.574219 C 58.179688 348.089844 53.703125 352.566406 48.183594 352.566406 L 27.703125 352.566406 C 22.183594 352.566406 17.710938 348.089844 17.710938 342.574219 L 17.710938 222.660156 C 17.710938 217.144531 22.183594 212.667969 27.703125 212.667969 L 147.617188 212.667969 C 153.132812 212.667969 157.609375 217.144531 157.609375 222.660156 Z M 157.609375 342.574219 " fill-opacity="1" fill-rule="evenodd"/></g><g clip-path="url(#791aff11fc)"><path fill="#005900" d="M 217.566406 82.765625 C 217.566406 44.132812 248.882812 12.816406 287.511719 12.816406 C 326.144531 12.816406 357.460938 44.132812 357.460938 82.765625 C 357.460938 121.398438 326.144531 152.714844 287.511719 152.714844 C 248.882812 152.714844 217.566406 121.398438 217.566406 82.765625 Z M 287.511719 32.800781 C 259.917969 32.800781 237.550781 55.171875 237.550781 82.765625 C 237.550781 110.359375 259.917969 132.726562 287.511719 132.726562 C 315.105469 132.726562 337.476562 110.359375 337.476562 82.765625 C 337.476562 55.171875 315.105469 32.800781 287.511719 32.800781 Z M 287.511719 32.800781 " fill-opacity="1" fill-rule="evenodd"/></g><g clip-path="url(#88d0b34995)"><path fill="#005900" d="M 217.566406 222.660156 C 217.566406 217.144531 222.039062 212.667969 227.558594 212.667969 L 347.46875 212.667969 C 352.988281 212.667969 357.460938 217.144531 357.460938 222.660156 L 357.460938 342.574219 C 357.460938 348.089844 352.988281 352.566406 347.46875 352.566406 L 227.558594 352.566406 C 222.039062 352.566406 217.566406 348.089844 217.566406 342.574219 Z M 237.550781 232.65625 L 237.550781 332.582031 L 337.476562 332.582031 L 337.476562 232.65625 Z M 237.550781 232.65625 " fill-opacity="1" fill-rule="evenodd"/></g></svg>