<svg xmlns="http://www.w3.org/2000/svg" xmlns:xlink="http://www.w3.org/1999/xlink" width="500" zoomAndPan="magnify" viewBox="0 0 375 374.999991" height="500" preserveAspectRatio="xMidYMid meet" version="1.0"><defs><clipPath id="eb150a9be3"><path d="M 20.34375 11.882812 L 171 11.882812 L 171 163 L 20.34375 163 Z M 20.34375 11.882812 " clip-rule="nonzero"/></clipPath><clipPath id="8c8c7df723"><path d="M 20.34375 195 L 171 195 L 171 346.382812 L 20.34375 346.382812 Z M 20.34375 195 " clip-rule="nonzero"/></clipPath><clipPath id="51caa6fdee"><path d="M 204 11.882812 L 354.84375 11.882812 L 354.84375 163 L 204 163 Z M 204 11.882812 " clip-rule="nonzero"/></clipPath><clipPath id="2590f1c31c"><path d="M 204 212 L 354.84375 212 L 354.84375 247 L 204 247 Z M 204 212 " clip-rule="nonzero"/></clipPath></defs><g clip-path="url(#eb150a9be3)"><path fill="#005900" d="M 70.519531 162.40625 L 120.695312 162.40625 C 122.335938 162.40625 123.976562 162.324219 125.609375 162.160156 C 127.246094 161.996094 128.867188 161.753906 130.480469 161.433594 C 132.089844 161.113281 133.679688 160.710938 135.253906 160.234375 C 136.824219 159.753906 138.367188 159.203125 139.886719 158.574219 C 141.402344 157.941406 142.886719 157.242188 144.335938 156.464844 C 145.785156 155.691406 147.191406 154.847656 148.554688 153.933594 C 149.921875 153.019531 151.238281 152.042969 152.507812 151 C 153.78125 149.957031 154.996094 148.855469 156.15625 147.695312 C 157.320312 146.53125 158.421875 145.316406 159.460938 144.046875 C 160.503906 142.777344 161.484375 141.460938 162.394531 140.09375 C 163.308594 138.730469 164.152344 137.320312 164.929688 135.875 C 165.703125 134.425781 166.40625 132.941406 167.035156 131.425781 C 167.664062 129.90625 168.21875 128.363281 168.695312 126.789062 C 169.175781 125.21875 169.574219 123.628906 169.894531 122.015625 C 170.21875 120.40625 170.460938 118.78125 170.621094 117.148438 C 170.785156 115.511719 170.867188 113.875 170.867188 112.230469 L 170.867188 62.058594 C 170.867188 60.414062 170.785156 58.773438 170.621094 57.140625 C 170.460938 55.503906 170.21875 53.882812 169.894531 52.273438 C 169.574219 50.660156 169.175781 49.070312 168.695312 47.496094 C 168.21875 45.925781 167.664062 44.382812 167.035156 42.863281 C 166.40625 41.347656 165.703125 39.863281 164.929688 38.414062 C 164.152344 36.96875 163.308594 35.558594 162.394531 34.195312 C 161.484375 32.828125 160.503906 31.511719 159.460938 30.242188 C 158.421875 28.972656 157.320312 27.753906 156.15625 26.59375 C 154.996094 25.433594 153.78125 24.332031 152.507812 23.289062 C 151.238281 22.246094 149.921875 21.269531 148.554688 20.355469 C 147.191406 19.441406 145.785156 18.597656 144.335938 17.824219 C 142.886719 17.046875 141.402344 16.34375 139.886719 15.714844 C 138.367188 15.085938 136.824219 14.53125 135.253906 14.054688 C 133.679688 13.578125 132.089844 13.175781 130.480469 12.855469 C 128.867188 12.53125 127.246094 12.289062 125.609375 12.128906 C 123.976562 11.964844 122.335938 11.882812 120.695312 11.882812 L 70.519531 11.882812 C 68.875 11.882812 67.238281 11.964844 65.601562 12.128906 C 63.96875 12.289062 62.34375 12.53125 60.734375 12.855469 C 59.125 13.175781 57.53125 13.578125 55.960938 14.054688 C 54.386719 14.53125 52.84375 15.085938 51.328125 15.714844 C 49.808594 16.34375 48.324219 17.046875 46.878906 17.824219 C 45.429688 18.597656 44.023438 19.441406 42.65625 20.355469 C 41.289062 21.269531 39.972656 22.246094 38.703125 23.289062 C 37.433594 24.332031 36.21875 25.433594 35.054688 26.59375 C 33.894531 27.753906 32.792969 28.972656 31.75 30.242188 C 30.707031 31.511719 29.730469 32.828125 28.816406 34.195312 C 27.902344 35.558594 27.058594 36.96875 26.285156 38.414062 C 25.507812 39.863281 24.808594 41.347656 24.179688 42.863281 C 23.546875 44.382812 22.996094 45.925781 22.515625 47.496094 C 22.039062 49.070312 21.640625 50.660156 21.316406 52.273438 C 20.996094 53.882812 20.753906 55.503906 20.589844 57.140625 C 20.429688 58.773438 20.34375 60.414062 20.34375 62.058594 L 20.34375 112.230469 C 20.34375 113.875 20.429688 115.511719 20.589844 117.148438 C 20.753906 118.78125 20.996094 120.40625 21.316406 122.015625 C 21.640625 123.628906 22.039062 125.21875 22.515625 126.789062 C 22.996094 128.363281 23.546875 129.90625 24.179688 131.425781 C 24.808594 132.941406 25.507812 134.425781 26.285156 135.875 C 27.058594 137.320312 27.902344 138.730469 28.816406 140.09375 C 29.730469 141.460938 30.707031 142.777344 31.75 144.046875 C 32.792969 145.316406 33.894531 146.53125 35.054688 147.695312 C 36.21875 148.855469 37.433594 149.957031 38.703125 151 C 39.972656 152.042969 41.289062 153.019531 42.65625 153.933594 C 44.023438 154.847656 45.429688 155.691406 46.878906 156.464844 C 48.324219 157.242188 49.808594 157.941406 51.328125 158.574219 C 52.84375 159.203125 54.386719 159.753906 55.960938 160.234375 C 57.53125 160.710938 59.125 161.113281 60.734375 161.433594 C 62.34375 161.753906 63.96875 161.996094 65.601562 162.160156 C 67.238281 162.324219 68.875 162.40625 70.519531 162.40625 Z M 53.792969 62.058594 C 53.792969 61.507812 53.820312 60.960938 53.875 60.417969 C 53.929688 59.871094 54.011719 59.332031 54.117188 58.792969 C 54.222656 58.257812 54.355469 57.726562 54.515625 57.203125 C 54.675781 56.679688 54.859375 56.164062 55.070312 55.65625 C 55.28125 55.152344 55.511719 54.65625 55.773438 54.175781 C 56.03125 53.691406 56.3125 53.222656 56.617188 52.765625 C 56.921875 52.3125 57.246094 51.871094 57.59375 51.449219 C 57.941406 51.027344 58.308594 50.621094 58.695312 50.234375 C 59.082031 49.847656 59.488281 49.480469 59.910156 49.132812 C 60.335938 48.785156 60.773438 48.457031 61.230469 48.152344 C 61.683594 47.847656 62.152344 47.566406 62.636719 47.308594 C 63.121094 47.050781 63.613281 46.816406 64.121094 46.609375 C 64.625 46.398438 65.140625 46.214844 65.664062 46.054688 C 66.1875 45.894531 66.71875 45.761719 67.257812 45.65625 C 67.792969 45.546875 68.335938 45.46875 68.878906 45.414062 C 69.425781 45.359375 69.972656 45.332031 70.519531 45.332031 L 120.695312 45.332031 C 121.242188 45.332031 121.789062 45.359375 122.332031 45.414062 C 122.878906 45.46875 123.417969 45.546875 123.957031 45.65625 C 124.492188 45.761719 125.023438 45.894531 125.546875 46.054688 C 126.070312 46.214844 126.585938 46.398438 127.09375 46.609375 C 127.597656 46.816406 128.09375 47.050781 128.574219 47.308594 C 129.058594 47.566406 129.527344 47.847656 129.984375 48.152344 C 130.4375 48.457031 130.878906 48.785156 131.300781 49.132812 C 131.726562 49.480469 132.128906 49.847656 132.515625 50.234375 C 132.90625 50.621094 133.273438 51.027344 133.621094 51.449219 C 133.96875 51.871094 134.292969 52.3125 134.597656 52.765625 C 134.902344 53.222656 135.183594 53.691406 135.441406 54.175781 C 135.699219 54.65625 135.933594 55.152344 136.144531 55.65625 C 136.351562 56.164062 136.539062 56.679688 136.695312 57.203125 C 136.855469 57.726562 136.988281 58.257812 137.097656 58.792969 C 137.203125 59.332031 137.285156 59.871094 137.335938 60.417969 C 137.390625 60.960938 137.417969 61.507812 137.417969 62.058594 L 137.417969 112.230469 C 137.417969 112.78125 137.390625 113.324219 137.335938 113.871094 C 137.285156 114.414062 137.203125 114.957031 137.097656 115.492188 C 136.988281 116.03125 136.855469 116.5625 136.695312 117.085938 C 136.539062 117.609375 136.351562 118.125 136.144531 118.628906 C 135.933594 119.136719 135.699219 119.632812 135.441406 120.113281 C 135.183594 120.597656 134.902344 121.066406 134.597656 121.519531 C 134.292969 121.976562 133.96875 122.414062 133.621094 122.839844 C 133.273438 123.261719 132.90625 123.667969 132.515625 124.054688 C 132.128906 124.441406 131.726562 124.808594 131.300781 125.15625 C 130.878906 125.503906 130.4375 125.832031 129.984375 126.136719 C 129.527344 126.4375 129.058594 126.71875 128.574219 126.980469 C 128.09375 127.238281 127.597656 127.472656 127.09375 127.679688 C 126.585938 127.890625 126.070312 128.074219 125.546875 128.234375 C 125.023438 128.394531 124.492188 128.527344 123.957031 128.632812 C 123.417969 128.742188 122.878906 128.820312 122.332031 128.875 C 121.789062 128.929688 121.242188 128.957031 120.695312 128.957031 L 70.519531 128.957031 C 69.972656 128.957031 69.425781 128.929688 68.878906 128.875 C 68.335938 128.820312 67.792969 128.742188 67.257812 128.632812 C 66.71875 128.527344 66.1875 128.394531 65.664062 128.234375 C 65.140625 128.074219 64.625 127.890625 64.121094 127.679688 C 63.613281 127.472656 63.121094 127.238281 62.636719 126.980469 C 62.152344 126.71875 61.683594 126.4375 61.230469 126.136719 C 60.773438 125.832031 60.335938 125.503906 59.910156 125.15625 C 59.488281 124.808594 59.082031 124.441406 58.695312 124.054688 C 58.308594 123.667969 57.941406 123.261719 57.59375 122.839844 C 57.246094 122.414062 56.921875 121.976562 56.617188 121.519531 C 56.3125 121.066406 56.03125 120.597656 55.773438 120.113281 C 55.511719 119.632812 55.28125 119.136719 55.070312 118.628906 C 54.859375 118.125 54.675781 117.609375 54.515625 117.085938 C 54.355469 116.5625 54.222656 116.03125 54.117188 115.492188 C 54.011719 114.957031 53.929688 114.414062 53.875 113.871094 C 53.820312 113.324219 53.792969 112.78125 53.792969 112.230469 Z M 53.792969 62.058594 " fill-opacity="1" fill-rule="nonzero"/></g><g clip-path="url(#8c8c7df723)"><path fill="#005900" d="M 20.34375 296.207031 C 20.34375 297.847656 20.429688 299.488281 20.589844 301.121094 C 20.753906 302.757812 20.996094 304.378906 21.316406 305.992188 C 21.640625 307.601562 22.039062 309.195312 22.515625 310.765625 C 22.996094 312.335938 23.546875 313.882812 24.179688 315.398438 C 24.808594 316.917969 25.507812 318.398438 26.285156 319.847656 C 27.058594 321.296875 27.902344 322.703125 28.816406 324.070312 C 29.730469 325.433594 30.707031 326.753906 31.75 328.023438 C 32.792969 329.292969 33.894531 330.507812 35.054688 331.667969 C 36.21875 332.832031 37.433594 333.933594 38.703125 334.976562 C 39.972656 336.019531 41.289062 336.996094 42.65625 337.910156 C 44.023438 338.820312 45.429688 339.664062 46.878906 340.441406 C 48.324219 341.214844 49.808594 341.917969 51.328125 342.546875 C 52.84375 343.175781 54.386719 343.730469 55.960938 344.207031 C 57.53125 344.6875 59.125 345.085938 60.734375 345.410156 C 62.34375 345.730469 63.96875 345.972656 65.601562 346.136719 C 67.238281 346.296875 68.875 346.378906 70.519531 346.382812 L 120.695312 346.382812 C 122.335938 346.378906 123.976562 346.296875 125.609375 346.136719 C 127.246094 345.972656 128.867188 345.730469 130.480469 345.410156 C 132.089844 345.085938 133.679688 344.6875 135.253906 344.207031 C 136.824219 343.730469 138.367188 343.175781 139.886719 342.546875 C 141.402344 341.917969 142.886719 341.214844 144.335938 340.441406 C 145.785156 339.664062 147.191406 338.820312 148.554688 337.910156 C 149.921875 336.996094 151.238281 336.019531 152.507812 334.976562 C 153.78125 333.933594 154.996094 332.832031 156.15625 331.667969 C 157.320312 330.507812 158.421875 329.292969 159.460938 328.023438 C 160.503906 326.753906 161.484375 325.433594 162.394531 324.070312 C 163.308594 322.703125 164.152344 321.296875 164.929688 319.847656 C 165.703125 318.398438 166.40625 316.917969 167.035156 315.398438 C 167.664062 313.882812 168.21875 312.335938 168.695312 310.765625 C 169.175781 309.195312 169.574219 307.601562 169.894531 305.992188 C 170.21875 304.378906 170.460938 302.757812 170.621094 301.121094 C 170.785156 299.488281 170.867188 297.847656 170.867188 296.207031 L 170.867188 246.03125 C 170.867188 244.390625 170.785156 242.75 170.621094 241.117188 C 170.460938 239.480469 170.21875 237.859375 169.894531 236.246094 C 169.574219 234.636719 169.175781 233.042969 168.695312 231.472656 C 168.21875 229.902344 167.664062 228.355469 167.035156 226.839844 C 166.40625 225.320312 165.703125 223.839844 164.929688 222.390625 C 164.152344 220.941406 163.308594 219.535156 162.394531 218.167969 C 161.484375 216.804688 160.503906 215.484375 159.460938 214.214844 C 158.421875 212.945312 157.320312 211.730469 156.15625 210.570312 C 154.996094 209.40625 153.78125 208.304688 152.507812 207.261719 C 151.238281 206.21875 149.921875 205.242188 148.554688 204.328125 C 147.191406 203.417969 145.785156 202.574219 144.335938 201.796875 C 142.886719 201.023438 141.402344 200.320312 139.886719 199.691406 C 138.367188 199.0625 136.824219 198.507812 135.253906 198.03125 C 133.679688 197.550781 132.089844 197.152344 130.480469 196.828125 C 128.867188 196.507812 127.246094 196.265625 125.609375 196.101562 C 123.976562 195.941406 122.335938 195.859375 120.695312 195.855469 L 70.519531 195.855469 C 68.875 195.859375 67.238281 195.941406 65.601562 196.101562 C 63.96875 196.265625 62.34375 196.507812 60.734375 196.828125 C 59.125 197.152344 57.53125 197.550781 55.960938 198.03125 C 54.386719 198.507812 52.84375 199.0625 51.328125 199.691406 C 49.808594 200.320312 48.324219 201.023438 46.878906 201.796875 C 45.429688 202.574219 44.023438 203.417969 42.65625 204.328125 C 41.289062 205.242188 39.972656 206.21875 38.703125 207.261719 C 37.433594 208.304688 36.21875 209.40625 35.054688 210.570312 C 33.894531 211.730469 32.792969 212.945312 31.75 214.214844 C 30.707031 215.484375 29.730469 216.804688 28.816406 218.167969 C 27.902344 219.535156 27.058594 220.941406 26.285156 222.390625 C 25.507812 223.839844 24.808594 225.320312 24.179688 226.839844 C 23.546875 228.355469 22.996094 229.902344 22.515625 231.472656 C 22.039062 233.042969 21.640625 234.636719 21.316406 236.246094 C 20.996094 237.859375 20.753906 239.480469 20.589844 241.117188 C 20.429688 242.75 20.34375 244.390625 20.34375 246.03125 Z M 53.792969 246.03125 C 53.792969 245.484375 53.820312 244.9375 53.875 244.394531 C 53.929688 243.847656 54.011719 243.308594 54.117188 242.769531 C 54.222656 242.234375 54.355469 241.703125 54.515625 241.179688 C 54.675781 240.652344 54.859375 240.140625 55.070312 239.632812 C 55.28125 239.128906 55.511719 238.632812 55.773438 238.148438 C 56.03125 237.667969 56.3125 237.199219 56.617188 236.742188 C 56.921875 236.285156 57.246094 235.847656 57.59375 235.425781 C 57.941406 235 58.308594 234.59375 58.695312 234.207031 C 59.082031 233.820312 59.488281 233.453125 59.910156 233.105469 C 60.335938 232.757812 60.773438 232.433594 61.230469 232.128906 C 61.683594 231.824219 62.152344 231.542969 62.636719 231.285156 C 63.121094 231.027344 63.613281 230.792969 64.121094 230.582031 C 64.625 230.371094 65.140625 230.1875 65.664062 230.027344 C 66.1875 229.871094 66.71875 229.738281 67.257812 229.628906 C 67.792969 229.523438 68.335938 229.441406 68.878906 229.386719 C 69.425781 229.335938 69.972656 229.308594 70.519531 229.308594 L 120.695312 229.308594 C 121.242188 229.308594 121.789062 229.335938 122.332031 229.386719 C 122.878906 229.441406 123.417969 229.523438 123.957031 229.628906 C 124.492188 229.738281 125.023438 229.871094 125.546875 230.027344 C 126.070312 230.1875 126.585938 230.371094 127.09375 230.582031 C 127.597656 230.792969 128.09375 231.027344 128.574219 231.285156 C 129.058594 231.542969 129.527344 231.824219 129.984375 232.128906 C 130.4375 232.433594 130.878906 232.757812 131.300781 233.105469 C 131.726562 233.453125 132.128906 233.820312 132.515625 234.207031 C 132.90625 234.59375 133.273438 235 133.621094 235.425781 C 133.96875 235.847656 134.292969 236.285156 134.597656 236.742188 C 134.902344 237.199219 135.183594 237.667969 135.441406 238.148438 C 135.699219 238.632812 135.933594 239.128906 136.144531 239.632812 C 136.351562 240.140625 136.539062 240.652344 136.695312 241.179688 C 136.855469 241.703125 136.988281 242.234375 137.097656 242.769531 C 137.203125 243.308594 137.285156 243.847656 137.335938 244.394531 C 137.390625 244.9375 137.417969 245.484375 137.417969 246.03125 L 137.417969 296.207031 C 137.417969 296.753906 137.390625 297.300781 137.335938 297.847656 C 137.285156 298.390625 137.203125 298.933594 137.097656 299.46875 C 136.988281 300.007812 136.855469 300.535156 136.695312 301.0625 C 136.539062 301.585938 136.351562 302.101562 136.144531 302.605469 C 135.933594 303.113281 135.699219 303.605469 135.441406 304.089844 C 135.183594 304.570312 134.902344 305.039062 134.597656 305.496094 C 134.292969 305.953125 133.96875 306.390625 133.621094 306.8125 C 133.273438 307.238281 132.90625 307.644531 132.515625 308.03125 C 132.128906 308.417969 131.726562 308.785156 131.300781 309.132812 C 130.878906 309.480469 130.4375 309.804688 129.984375 310.109375 C 129.527344 310.414062 129.058594 310.695312 128.574219 310.953125 C 128.09375 311.210938 127.597656 311.445312 127.09375 311.65625 C 126.585938 311.867188 126.070312 312.050781 125.546875 312.210938 C 125.023438 312.367188 124.492188 312.5 123.957031 312.609375 C 123.417969 312.714844 122.878906 312.796875 122.332031 312.851562 C 121.789062 312.902344 121.242188 312.929688 120.695312 312.933594 L 70.519531 312.933594 C 69.972656 312.929688 69.425781 312.902344 68.878906 312.851562 C 68.335938 312.796875 67.792969 312.714844 67.257812 312.609375 C 66.71875 312.5 66.1875 312.367188 65.664062 312.210938 C 65.140625 312.050781 64.625 311.867188 64.121094 311.65625 C 63.613281 311.445312 63.121094 311.210938 62.636719 310.953125 C 62.152344 310.695312 61.683594 310.414062 61.230469 310.109375 C 60.773438 309.804688 60.335938 309.480469 59.910156 309.132812 C 59.488281 308.785156 59.082031 308.417969 58.695312 308.03125 C 58.308594 307.644531 57.941406 307.238281 57.59375 306.8125 C 57.246094 306.390625 56.921875 305.953125 56.617188 305.496094 C 56.3125 305.039062 56.03125 304.570312 55.773438 304.089844 C 55.511719 303.605469 55.28125 303.113281 55.070312 302.605469 C 54.859375 302.101562 54.675781 301.585938 54.515625 301.0625 C 54.355469 300.535156 54.222656 300.007812 54.117188 299.46875 C 54.011719 298.933594 53.929688 298.390625 53.875 297.847656 C 53.820312 297.300781 53.792969 296.753906 53.792969 296.207031 Z M 53.792969 246.03125 " fill-opacity="1" fill-rule="nonzero"/></g><g clip-path="url(#51caa6fdee)"><path fill="#005900" d="M 254.492188 162.40625 L 304.667969 162.40625 C 306.3125 162.40625 307.949219 162.324219 309.585938 162.160156 C 311.21875 161.996094 312.84375 161.753906 314.453125 161.433594 C 316.066406 161.113281 317.65625 160.710938 319.226562 160.234375 C 320.800781 159.753906 322.34375 159.203125 323.863281 158.574219 C 325.378906 157.941406 326.863281 157.242188 328.308594 156.464844 C 329.757812 155.691406 331.164062 154.847656 332.53125 153.933594 C 333.898438 153.019531 335.214844 152.042969 336.484375 151 C 337.753906 149.957031 338.96875 148.855469 340.132812 147.695312 C 341.292969 146.53125 342.394531 145.316406 343.4375 144.046875 C 344.480469 142.777344 345.457031 141.460938 346.371094 140.09375 C 347.285156 138.730469 348.128906 137.320312 348.902344 135.875 C 349.679688 134.425781 350.378906 132.941406 351.011719 131.425781 C 351.640625 129.90625 352.191406 128.363281 352.671875 126.789062 C 353.148438 125.21875 353.546875 123.628906 353.871094 122.015625 C 354.191406 120.40625 354.433594 118.78125 354.597656 117.148438 C 354.761719 115.511719 354.84375 113.875 354.84375 112.230469 L 354.84375 62.058594 C 354.84375 60.414062 354.761719 58.773438 354.597656 57.140625 C 354.433594 55.503906 354.191406 53.882812 353.871094 52.273438 C 353.546875 50.660156 353.148438 49.070312 352.671875 47.496094 C 352.191406 45.925781 351.640625 44.382812 351.011719 42.863281 C 350.378906 41.347656 349.679688 39.863281 348.902344 38.414062 C 348.128906 36.96875 347.285156 35.558594 346.371094 34.195312 C 345.457031 32.828125 344.480469 31.511719 343.4375 30.242188 C 342.394531 28.972656 341.292969 27.753906 340.132812 26.59375 C 338.96875 25.433594 337.753906 24.332031 336.484375 23.289062 C 335.214844 22.246094 333.898438 21.269531 332.53125 20.355469 C 331.164062 19.441406 329.757812 18.597656 328.308594 17.824219 C 326.863281 17.046875 325.378906 16.34375 323.863281 15.714844 C 322.34375 15.085938 320.800781 14.53125 319.226562 14.054688 C 317.65625 13.578125 316.066406 13.175781 314.453125 12.855469 C 312.84375 12.53125 311.21875 12.289062 309.585938 12.128906 C 307.949219 11.964844 306.3125 11.882812 304.667969 11.882812 L 254.492188 11.882812 C 252.851562 11.882812 251.210938 11.964844 249.578125 12.128906 C 247.941406 12.289062 246.320312 12.53125 244.710938 12.855469 C 243.097656 13.175781 241.507812 13.578125 239.933594 14.054688 C 238.363281 14.53125 236.820312 15.085938 235.300781 15.714844 C 233.785156 16.34375 232.300781 17.046875 230.851562 17.824219 C 229.402344 18.597656 227.996094 19.441406 226.632812 20.355469 C 225.265625 21.269531 223.949219 22.246094 222.679688 23.289062 C 221.410156 24.332031 220.191406 25.433594 219.03125 26.59375 C 217.871094 27.753906 216.765625 28.972656 215.726562 30.242188 C 214.683594 31.511719 213.703125 32.828125 212.792969 34.195312 C 211.878906 35.558594 211.035156 36.96875 210.257812 38.414062 C 209.484375 39.863281 208.78125 41.347656 208.152344 42.863281 C 207.523438 44.382812 206.96875 45.925781 206.492188 47.496094 C 206.015625 49.070312 205.613281 50.660156 205.292969 52.273438 C 204.96875 53.882812 204.726562 55.503906 204.566406 57.140625 C 204.402344 58.773438 204.320312 60.414062 204.320312 62.058594 L 204.320312 112.230469 C 204.320312 113.875 204.402344 115.511719 204.566406 117.148438 C 204.726562 118.78125 204.96875 120.40625 205.292969 122.015625 C 205.613281 123.628906 206.015625 125.21875 206.492188 126.789062 C 206.96875 128.363281 207.523438 129.90625 208.152344 131.425781 C 208.78125 132.941406 209.484375 134.425781 210.257812 135.875 C 211.035156 137.320312 211.878906 138.730469 212.792969 140.09375 C 213.703125 141.460938 214.683594 142.777344 215.726562 144.046875 C 216.765625 145.316406 217.871094 146.53125 219.03125 147.695312 C 220.191406 148.855469 221.410156 149.957031 222.679688 151 C 223.949219 152.042969 225.265625 153.019531 226.632812 153.933594 C 227.996094 154.847656 229.402344 155.691406 230.851562 156.464844 C 232.300781 157.242188 233.785156 157.941406 235.300781 158.574219 C 236.820312 159.203125 238.363281 159.753906 239.933594 160.234375 C 241.507812 160.710938 243.097656 161.113281 244.710938 161.433594 C 246.320312 161.753906 247.941406 161.996094 249.578125 162.160156 C 251.210938 162.324219 252.851562 162.40625 254.492188 162.40625 Z M 237.769531 62.058594 C 237.769531 61.507812 237.796875 60.960938 237.851562 60.417969 C 237.90625 59.871094 237.984375 59.332031 238.09375 58.792969 C 238.199219 58.257812 238.332031 57.726562 238.492188 57.203125 C 238.652344 56.679688 238.835938 56.164062 239.042969 55.65625 C 239.253906 55.152344 239.488281 54.65625 239.746094 54.175781 C 240.003906 53.691406 240.285156 53.222656 240.589844 52.765625 C 240.894531 52.3125 241.222656 51.871094 241.570312 51.449219 C 241.914062 51.027344 242.285156 50.621094 242.671875 50.234375 C 243.058594 49.847656 243.464844 49.480469 243.886719 49.132812 C 244.308594 48.785156 244.75 48.457031 245.203125 48.152344 C 245.660156 47.847656 246.128906 47.566406 246.613281 47.308594 C 247.09375 47.050781 247.589844 46.816406 248.09375 46.609375 C 248.601562 46.398438 249.117188 46.214844 249.640625 46.054688 C 250.164062 45.894531 250.695312 45.761719 251.230469 45.65625 C 251.769531 45.546875 252.308594 45.46875 252.855469 45.414062 C 253.398438 45.359375 253.945312 45.332031 254.492188 45.332031 L 304.667969 45.332031 C 305.214844 45.332031 305.761719 45.359375 306.308594 45.414062 C 306.851562 45.46875 307.394531 45.546875 307.929688 45.65625 C 308.46875 45.761719 309 45.894531 309.523438 46.054688 C 310.046875 46.214844 310.5625 46.398438 311.066406 46.609375 C 311.574219 46.816406 312.066406 47.050781 312.550781 47.308594 C 313.035156 47.566406 313.503906 47.847656 313.957031 48.152344 C 314.414062 48.457031 314.851562 48.785156 315.277344 49.132812 C 315.699219 49.480469 316.105469 49.847656 316.492188 50.234375 C 316.878906 50.621094 317.246094 51.027344 317.59375 51.449219 C 317.941406 51.871094 318.269531 52.3125 318.570312 52.765625 C 318.875 53.222656 319.15625 53.691406 319.417969 54.175781 C 319.675781 54.65625 319.910156 55.152344 320.117188 55.65625 C 320.328125 56.164062 320.511719 56.679688 320.671875 57.203125 C 320.832031 57.726562 320.964844 58.257812 321.070312 58.792969 C 321.179688 59.332031 321.257812 59.871094 321.3125 60.417969 C 321.367188 60.960938 321.394531 61.507812 321.394531 62.058594 L 321.394531 112.230469 C 321.394531 112.78125 321.367188 113.324219 321.3125 113.871094 C 321.257812 114.414062 321.179688 114.957031 321.070312 115.492188 C 320.964844 116.03125 320.832031 116.5625 320.671875 117.085938 C 320.511719 117.609375 320.328125 118.125 320.117188 118.628906 C 319.910156 119.136719 319.675781 119.632812 319.417969 120.113281 C 319.15625 120.597656 318.875 121.066406 318.570312 121.519531 C 318.269531 121.976562 317.941406 122.414062 317.59375 122.839844 C 317.246094 123.261719 316.878906 123.667969 316.492188 124.054688 C 316.105469 124.441406 315.699219 124.808594 315.277344 125.15625 C 314.851562 125.503906 314.414062 125.832031 313.957031 126.136719 C 313.503906 126.4375 313.035156 126.71875 312.550781 126.980469 C 312.066406 127.238281 311.574219 127.472656 311.066406 127.679688 C 310.5625 127.890625 310.046875 128.074219 309.523438 128.234375 C 309 128.394531 308.46875 128.527344 307.929688 128.632812 C 307.394531 128.742188 306.851562 128.820312 306.308594 128.875 C 305.761719 128.929688 305.214844 128.957031 304.667969 128.957031 L 254.492188 128.957031 C 253.945312 128.957031 253.398438 128.929688 252.855469 128.875 C 252.308594 128.820312 251.769531 128.742188 251.230469 128.632812 C 250.695312 128.527344 250.164062 128.394531 249.640625 128.234375 C 249.117188 128.074219 248.601562 127.890625 248.09375 127.679688 C 247.589844 127.472656 247.09375 127.238281 246.613281 126.980469 C 246.128906 126.71875 245.660156 126.4375 245.203125 126.136719 C 244.75 125.832031 244.308594 125.503906 243.886719 125.15625 C 243.464844 124.808594 243.058594 124.441406 242.671875 124.054688 C 242.285156 123.667969 241.914062 123.261719 241.570312 122.839844 C 241.222656 122.414062 240.894531 121.976562 240.589844 121.519531 C 240.285156 121.066406 240.003906 120.597656 239.746094 120.113281 C 239.488281 119.632812 239.253906 119.136719 239.042969 118.628906 C 238.835938 118.125 238.652344 117.609375 238.492188 117.085938 C 238.332031 116.5625 238.199219 116.03125 238.09375 115.492188 C 237.984375 114.957031 237.90625 114.414062 237.851562 113.871094 C 237.796875 113.324219 237.769531 112.78125 237.769531 112.230469 Z M 237.769531 62.058594 " fill-opacity="1" fill-rule="nonzero"/></g><g clip-path="url(#2590f1c31c)"><path fill="#005900" d="M 221.042969 246.03125 L 338.117188 246.03125 C 338.667969 246.03125 339.214844 246.003906 339.757812 245.953125 C 340.304688 245.898438 340.84375 245.816406 341.382812 245.710938 C 341.917969 245.601562 342.449219 245.46875 342.972656 245.3125 C 343.496094 245.152344 344.011719 244.96875 344.519531 244.757812 C 345.023438 244.550781 345.519531 244.316406 346.003906 244.058594 C 346.484375 243.796875 346.957031 243.515625 347.410156 243.214844 C 347.867188 242.910156 348.304688 242.582031 348.730469 242.234375 C 349.152344 241.886719 349.558594 241.519531 349.945312 241.132812 C 350.332031 240.746094 350.699219 240.339844 351.046875 239.917969 C 351.394531 239.492188 351.722656 239.054688 352.023438 238.597656 C 352.328125 238.144531 352.609375 237.675781 352.867188 237.191406 C 353.128906 236.707031 353.359375 236.214844 353.570312 235.707031 C 353.78125 235.199219 353.964844 234.6875 354.125 234.160156 C 354.28125 233.636719 354.414062 233.105469 354.523438 232.570312 C 354.628906 232.03125 354.710938 231.492188 354.761719 230.945312 C 354.816406 230.402344 354.84375 229.855469 354.84375 229.308594 C 354.84375 228.757812 354.816406 228.210938 354.761719 227.667969 C 354.710938 227.121094 354.628906 226.582031 354.523438 226.042969 C 354.414062 225.507812 354.28125 224.976562 354.125 224.453125 C 353.964844 223.925781 353.78125 223.414062 353.570312 222.90625 C 353.359375 222.398438 353.128906 221.90625 352.867188 221.421875 C 352.609375 220.941406 352.328125 220.46875 352.023438 220.015625 C 351.722656 219.558594 351.394531 219.121094 351.046875 218.695312 C 350.699219 218.273438 350.332031 217.867188 349.945312 217.480469 C 349.558594 217.09375 349.152344 216.726562 348.730469 216.378906 C 348.304688 216.03125 347.867188 215.703125 347.410156 215.398438 C 346.957031 215.097656 346.484375 214.816406 346.003906 214.554688 C 345.519531 214.296875 345.023438 214.0625 344.519531 213.855469 C 344.011719 213.644531 343.496094 213.460938 342.972656 213.300781 C 342.449219 213.144531 341.917969 213.011719 341.382812 212.902344 C 340.84375 212.796875 340.304688 212.714844 339.757812 212.664062 C 339.214844 212.609375 338.667969 212.582031 338.117188 212.582031 L 221.042969 212.582031 C 220.496094 212.582031 219.949219 212.609375 219.40625 212.664062 C 218.859375 212.714844 218.316406 212.796875 217.78125 212.902344 C 217.242188 213.011719 216.714844 213.144531 216.1875 213.300781 C 215.664062 213.460938 215.148438 213.644531 214.644531 213.855469 C 214.136719 214.0625 213.644531 214.296875 213.160156 214.554688 C 212.675781 214.816406 212.207031 215.097656 211.75 215.398438 C 211.296875 215.703125 210.855469 216.03125 210.433594 216.378906 C 210.011719 216.726562 209.605469 217.09375 209.21875 217.480469 C 208.832031 217.867188 208.460938 218.273438 208.117188 218.695312 C 207.769531 219.121094 207.441406 219.558594 207.136719 220.015625 C 206.832031 220.46875 206.550781 220.941406 206.292969 221.421875 C 206.035156 221.90625 205.800781 222.398438 205.59375 222.90625 C 205.382812 223.414062 205.199219 223.925781 205.039062 224.453125 C 204.878906 224.976562 204.746094 225.507812 204.640625 226.042969 C 204.535156 226.582031 204.453125 227.121094 204.398438 227.667969 C 204.347656 228.210938 204.320312 228.757812 204.320312 229.308594 C 204.320312 229.855469 204.347656 230.402344 204.398438 230.945312 C 204.453125 231.492188 204.535156 232.03125 204.640625 232.570312 C 204.746094 233.105469 204.878906 233.636719 205.039062 234.160156 C 205.199219 234.6875 205.382812 235.199219 205.59375 235.707031 C 205.800781 236.214844 206.035156 236.707031 206.292969 237.191406 C 206.550781 237.675781 206.832031 238.144531 207.136719 238.597656 C 207.441406 239.054688 207.769531 239.492188 208.117188 239.917969 C 208.460938 240.339844 208.832031 240.746094 209.21875 241.132812 C 209.605469 241.519531 210.011719 241.886719 210.433594 242.234375 C 210.855469 242.582031 211.296875 242.910156 211.75 243.214844 C 212.207031 243.515625 212.675781 243.796875 213.160156 244.058594 C 213.644531 244.316406 214.136719 244.550781 214.644531 244.757812 C 215.148438 244.96875 215.664062 245.152344 216.1875 245.3125 C 216.714844 245.46875 217.242188 245.601562 217.78125 245.710938 C 218.316406 245.816406 218.859375 245.898438 219.40625 245.953125 C 219.949219 246.003906 220.496094 246.03125 221.042969 246.03125 Z M 221.042969 246.03125 " fill-opacity="1" fill-rule="nonzero"/></g><path fill="#005900" d="M 221.042969 312.933594 L 287.945312 312.933594 C 288.492188 312.933594 289.039062 312.90625 289.582031 312.851562 C 290.128906 312.796875 290.667969 312.71875 291.207031 312.609375 C 291.742188 312.503906 292.273438 312.371094 292.800781 312.210938 C 293.324219 312.050781 293.839844 311.867188 294.34375 311.660156 C 294.851562 311.449219 295.34375 311.214844 295.828125 310.957031 C 296.3125 310.699219 296.78125 310.417969 297.234375 310.113281 C 297.691406 309.808594 298.128906 309.484375 298.554688 309.136719 C 298.976562 308.789062 299.382812 308.421875 299.769531 308.03125 C 300.15625 307.644531 300.523438 307.242188 300.871094 306.816406 C 301.21875 306.394531 301.546875 305.953125 301.851562 305.5 C 302.15625 305.042969 302.4375 304.574219 302.695312 304.089844 C 302.953125 303.609375 303.1875 303.113281 303.394531 302.605469 C 303.605469 302.101562 303.789062 301.585938 303.949219 301.0625 C 304.109375 300.539062 304.242188 300.007812 304.347656 299.46875 C 304.453125 298.933594 304.535156 298.390625 304.589844 297.847656 C 304.640625 297.300781 304.667969 296.753906 304.667969 296.207031 C 304.667969 295.660156 304.640625 295.113281 304.589844 294.566406 C 304.535156 294.023438 304.453125 293.480469 304.347656 292.945312 C 304.242188 292.40625 304.109375 291.875 303.949219 291.351562 C 303.789062 290.828125 303.605469 290.3125 303.394531 289.804688 C 303.1875 289.300781 302.953125 288.804688 302.695312 288.324219 C 302.4375 287.839844 302.15625 287.371094 301.851562 286.914062 C 301.546875 286.460938 301.21875 286.019531 300.871094 285.597656 C 300.523438 285.171875 300.15625 284.769531 299.769531 284.378906 C 299.382812 283.992188 298.976562 283.625 298.554688 283.277344 C 298.128906 282.929688 297.691406 282.605469 297.234375 282.300781 C 296.78125 281.996094 296.3125 281.714844 295.828125 281.457031 C 295.34375 281.199219 294.851562 280.964844 294.34375 280.753906 C 293.839844 280.546875 293.324219 280.359375 292.800781 280.203125 C 292.273438 280.042969 291.742188 279.910156 291.207031 279.804688 C 290.667969 279.695312 290.128906 279.617188 289.582031 279.5625 C 289.039062 279.507812 288.492188 279.480469 287.945312 279.480469 L 221.042969 279.480469 C 220.496094 279.480469 219.949219 279.507812 219.40625 279.5625 C 218.859375 279.617188 218.316406 279.695312 217.78125 279.804688 C 217.242188 279.910156 216.714844 280.042969 216.1875 280.203125 C 215.664062 280.359375 215.148438 280.546875 214.644531 280.753906 C 214.136719 280.964844 213.644531 281.199219 213.160156 281.457031 C 212.675781 281.714844 212.207031 281.996094 211.75 282.300781 C 211.296875 282.605469 210.855469 282.929688 210.433594 283.277344 C 210.011719 283.625 209.605469 283.992188 209.21875 284.378906 C 208.832031 284.769531 208.460938 285.171875 208.117188 285.597656 C 207.769531 286.019531 207.441406 286.460938 207.136719 286.914062 C 206.832031 287.371094 206.550781 287.839844 206.292969 288.324219 C 206.035156 288.804688 205.800781 289.300781 205.59375 289.804688 C 205.382812 290.3125 205.199219 290.828125 205.039062 291.351562 C 204.878906 291.875 204.746094 292.40625 204.640625 292.945312 C 204.535156 293.480469 204.453125 294.023438 204.398438 294.566406 C 204.347656 295.113281 204.320312 295.660156 204.320312 296.207031 C 204.320312 296.753906 204.347656 297.300781 204.398438 297.847656 C 204.453125 298.390625 204.535156 298.933594 204.640625 299.46875 C 204.746094 300.007812 204.878906 300.539062 205.039062 301.0625 C 205.199219 301.585938 205.382812 302.101562 205.59375 302.605469 C 205.800781 303.113281 206.035156 303.609375 206.292969 304.089844 C 206.550781 304.574219 206.832031 305.042969 207.136719 305.5 C 207.441406 305.953125 207.769531 306.394531 208.117188 306.816406 C 208.460938 307.242188 208.832031 307.644531 209.21875 308.03125 C 209.605469 308.421875 210.011719 308.789062 210.433594 309.136719 C 210.855469 309.484375 211.296875 309.808594 211.75 310.113281 C 212.207031 310.417969 212.675781 310.699219 213.160156 310.957031 C 213.644531 311.214844 214.136719 311.449219 214.644531 311.660156 C 215.148438 311.867188 215.664062 312.050781 216.1875 312.210938 C 216.714844 312.371094 217.242188 312.503906 217.78125 312.609375 C 218.316406 312.71875 218.859375 312.796875 219.40625 312.851562 C 219.949219 312.90625 220.496094 312.933594 221.042969 312.933594 Z M 221.042969 312.933594 " fill-opacity="1" fill-rule="nonzero"/></svg>