<svg xmlns="http://www.w3.org/2000/svg" xmlns:xlink="http://www.w3.org/1999/xlink" width="500" zoomAndPan="magnify" viewBox="0 0 375 374.999991" height="500" preserveAspectRatio="xMidYMid meet" version="1.0"><defs><clipPath id="0e90de85fd"><path d="M 37.929688 62 L 234 62 L 234 297 L 37.929688 297 Z M 37.929688 62 " clip-rule="nonzero"/></clipPath><clipPath id="3738081d8f"><path d="M 116 140 L 311.679688 140 L 311.679688 374.761719 L 116 374.761719 Z M 116 140 " clip-rule="nonzero"/></clipPath><clipPath id="eaeb5aff99"><path d="M 77 17.011719 L 143 17.011719 L 143 154 L 77 154 Z M 77 17.011719 " clip-rule="nonzero"/></clipPath></defs><rect x="-37.5" width="450" fill="#ffffff" y="-37.499999" height="449.999989" fill-opacity="1"/><rect x="-37.5" width="450" fill="#ffffff" y="-37.499999" height="449.999989" fill-opacity="1"/><g clip-path="url(#0e90de85fd)"><path fill="#005900" d="M 233.457031 290.203125 L 233.457031 69.046875 C 233.457031 65.464844 230.527344 62.542969 226.9375 62.542969 L 129.183594 62.542969 L 129.183594 75.550781 L 220.421875 75.550781 L 220.421875 283.695312 L 50.980469 283.695312 L 50.980469 75.550781 L 64.015625 75.550781 L 64.015625 62.542969 L 44.464844 62.542969 C 40.875 62.542969 37.949219 65.464844 37.949219 69.046875 L 37.949219 290.203125 C 37.949219 293.785156 40.875 296.707031 44.464844 296.707031 L 226.9375 296.707031 C 230.527344 296.707031 233.457031 293.785156 233.457031 290.203125 " fill-opacity="1" fill-rule="nonzero"/></g><path fill="#005900" d="M 272.558594 329.230469 L 272.558594 108.074219 C 272.558594 104.492188 269.628906 101.570312 266.039062 101.570312 L 246.488281 101.570312 L 246.488281 114.578125 L 259.523438 114.578125 L 259.523438 322.722656 L 90.082031 322.722656 L 90.082031 309.714844 L 77.050781 309.714844 L 77.050781 329.230469 C 77.050781 332.8125 79.976562 335.734375 83.566406 335.734375 L 266.039062 335.734375 C 269.628906 335.734375 272.558594 332.8125 272.558594 329.230469 " fill-opacity="1" fill-rule="nonzero"/><g clip-path="url(#3738081d8f)"><path fill="#005900" d="M 305.140625 140.597656 L 285.589844 140.597656 L 285.589844 153.605469 L 298.625 153.605469 L 298.625 361.75 L 129.183594 361.75 L 129.183594 348.742188 L 116.152344 348.742188 L 116.152344 368.257812 C 116.152344 371.839844 119.078125 374.761719 122.667969 374.761719 L 305.140625 374.761719 C 308.730469 374.761719 311.65625 371.839844 311.65625 368.257812 L 311.65625 147.101562 C 311.65625 143.519531 308.730469 140.597656 305.140625 140.597656 " fill-opacity="1" fill-rule="nonzero"/></g><path fill="#005900" d="M 207.386719 95.066406 L 148.734375 95.066406 L 148.734375 108.074219 L 207.386719 108.074219 L 207.386719 95.066406 " fill-opacity="1" fill-rule="nonzero"/><path fill="#005900" d="M 129.183594 153.605469 L 207.386719 153.605469 L 207.386719 140.597656 L 129.183594 140.597656 L 129.183594 153.605469 " fill-opacity="1" fill-rule="nonzero"/><path fill="#005900" d="M 207.386719 166.617188 L 64.015625 166.617188 L 64.015625 179.625 L 207.386719 179.625 L 207.386719 166.617188 " fill-opacity="1" fill-rule="nonzero"/><path fill="#005900" d="M 207.386719 192.632812 L 64.015625 192.632812 L 64.015625 205.644531 L 207.386719 205.644531 L 207.386719 192.632812 " fill-opacity="1" fill-rule="nonzero"/><path fill="#005900" d="M 207.386719 218.652344 L 64.015625 218.652344 L 64.015625 231.660156 L 207.386719 231.660156 L 207.386719 218.652344 " fill-opacity="1" fill-rule="nonzero"/><path fill="#005900" d="M 64.015625 264.183594 L 109.632812 264.183594 L 109.632812 251.175781 L 64.015625 251.175781 L 64.015625 264.183594 " fill-opacity="1" fill-rule="nonzero"/><path fill="#005900" d="M 207.386719 264.183594 L 207.386719 251.175781 L 161.769531 251.175781 L 161.769531 264.183594 L 207.386719 264.183594 " fill-opacity="1" fill-rule="nonzero"/><g clip-path="url(#eaeb5aff99)"><path fill="#005900" d="M 96.601562 153.605469 C 107.394531 153.605469 116.152344 144.867188 116.152344 134.09375 L 116.152344 43.027344 L 103.117188 43.027344 L 103.117188 134.09375 C 103.117188 137.675781 100.191406 140.597656 96.601562 140.597656 C 93.011719 140.597656 90.082031 137.675781 90.082031 134.09375 L 90.082031 43.027344 C 90.082031 35.863281 95.9375 30.019531 103.117188 30.019531 L 116.152344 30.019531 C 123.328125 30.019531 129.183594 35.863281 129.183594 43.027344 L 129.183594 49.535156 L 142.21875 49.535156 L 142.21875 43.027344 C 142.21875 28.671875 130.535156 17.011719 116.152344 17.011719 L 103.117188 17.011719 C 88.734375 17.011719 77.050781 28.671875 77.050781 43.027344 L 77.050781 134.09375 C 77.050781 144.867188 85.808594 153.605469 96.601562 153.605469 " fill-opacity="1" fill-rule="nonzero"/></g></svg>