<svg xmlns="http://www.w3.org/2000/svg" xmlns:xlink="http://www.w3.org/1999/xlink" width="500" zoomAndPan="magnify" viewBox="0 0 375 374.999991" height="500" preserveAspectRatio="xMidYMid meet" version="1.0"><defs><clipPath id="ee6f775bb1"><path d="M 116.71875 112.507812 L 258.453125 112.507812 L 258.453125 262.492188 L 116.71875 262.492188 Z M 116.71875 112.507812 " clip-rule="nonzero"/></clipPath></defs><path fill="#005900" d="M 208.28125 161.347656 C 206.171875 160.714844 202.582031 159.871094 197.722656 159.871094 C 179.136719 159.871094 164.144531 177.375 164.144531 197.835938 C 164.144531 207.113281 168.789062 213.863281 178.082031 213.863281 C 190.332031 213.863281 201.523438 198.257812 203.847656 185.179688 Z M 219.898438 252.460938 C 208.28125 258.578125 196.457031 260.898438 182.304688 260.898438 C 147.671875 260.898438 118.316406 235.585938 118.316406 195.09375 C 118.316406 151.644531 148.515625 114.105469 195.398438 114.105469 C 232.148438 114.105469 256.855469 139.835938 256.855469 175.054688 C 256.855469 206.695312 239.117188 225.253906 219.265625 225.253906 C 210.816406 225.253906 203.003906 219.558594 203.636719 206.695312 L 202.789062 206.695312 C 195.398438 219.136719 185.6875 225.253906 173.015625 225.253906 C 160.765625 225.253906 150.203125 215.339844 150.203125 198.679688 C 150.203125 172.527344 170.902344 148.695312 200.257812 148.695312 C 209.339844 148.695312 217.363281 150.589844 222.855469 153.125 L 215.671875 191.296875 C 212.507812 207.328125 215.039062 214.707031 222.011719 214.917969 C 232.78125 215.128906 244.820312 200.789062 244.820312 176.324219 C 244.820312 145.742188 226.445312 123.808594 193.710938 123.808594 C 159.285156 123.808594 130.355469 151.011719 130.355469 193.828125 C 130.355469 229.050781 153.375 250.773438 184.628906 250.773438 C 196.667969 250.773438 207.859375 248.242188 216.519531 243.390625 L 219.898438 252.460938 " fill-opacity="1" fill-rule="nonzero"/><g clip-path="url(#ee6f775bb1)"><path fill="#005900" d="M 197.722656 161.464844 C 180.386719 161.464844 165.742188 178.121094 165.742188 197.835938 C 165.742188 202.175781 166.941406 212.269531 178.082031 212.269531 C 189.148438 212.269531 199.980469 197.820312 202.273438 184.902344 L 206.445312 162.496094 C 203.710938 161.8125 200.785156 161.464844 197.722656 161.464844 Z M 178.082031 215.460938 C 168.5 215.460938 162.546875 208.707031 162.546875 197.835938 C 162.546875 187.492188 166.175781 177.652344 172.761719 170.132812 C 179.457031 162.488281 188.320312 158.277344 197.722656 158.277344 C 201.621094 158.277344 205.328125 158.796875 208.742188 159.820312 L 210.113281 160.230469 L 205.417969 185.472656 C 204.203125 192.296875 200.652344 199.769531 195.914062 205.445312 C 190.527344 211.902344 184.195312 215.460938 178.082031 215.460938 Z M 195.398438 115.699219 C 152.367188 115.699219 119.914062 149.832031 119.914062 195.09375 C 119.914062 232.296875 146.152344 259.300781 182.304688 259.300781 C 196.390625 259.300781 207.441406 256.949219 217.90625 251.691406 L 215.660156 245.660156 C 207.066406 250.054688 196.382812 252.367188 184.628906 252.367188 C 168.808594 252.367188 154.605469 246.777344 144.628906 236.625 C 134.246094 226.058594 128.757812 211.257812 128.757812 193.828125 C 128.757812 183.242188 130.496094 173.292969 133.917969 164.261719 C 137.1875 155.640625 141.910156 148.039062 147.964844 141.664062 C 159.871094 129.121094 176.117188 122.210938 193.710938 122.210938 C 209.882812 122.210938 223.367188 127.5 232.707031 137.507812 C 241.675781 147.117188 246.414062 160.539062 246.414062 176.324219 C 246.414062 190.921875 242.140625 203.480469 234.6875 210.78125 C 230.824219 214.5625 226.308594 216.601562 221.980469 216.515625 C 219.207031 216.429688 217.015625 215.390625 215.445312 213.425781 C 212.332031 209.523438 211.894531 202.183594 214.105469 190.988281 L 221.050781 154.074219 C 215.277344 151.660156 207.785156 150.289062 200.257812 150.289062 C 173.539062 150.289062 151.800781 171.996094 151.800781 198.679688 C 151.800781 213.386719 160.523438 223.660156 173.015625 223.660156 C 185.019531 223.660156 194.3125 217.84375 201.417969 205.878906 L 201.882812 205.097656 L 205.3125 205.097656 L 205.230469 206.773438 C 204.964844 212.222656 206.3125 216.667969 209.136719 219.628906 C 211.613281 222.226562 215.207031 223.660156 219.265625 223.660156 C 228.824219 223.660156 237.699219 219.171875 244.257812 211.019531 C 251.457031 202.078125 255.257812 189.640625 255.257812 175.054688 C 255.257812 140.105469 230.644531 115.699219 195.398438 115.699219 Z M 182.304688 262.492188 C 164.582031 262.492188 148.210938 256.039062 136.207031 244.320312 C 130.070312 238.332031 125.277344 231.179688 121.964844 223.0625 C 118.484375 214.535156 116.71875 205.125 116.71875 195.09375 C 116.71875 173.011719 124.308594 152.464844 138.089844 137.238281 C 145.117188 129.472656 153.472656 123.402344 162.925781 119.191406 C 172.878906 114.757812 183.804688 112.507812 195.398438 112.507812 C 204.597656 112.507812 213.242188 114.085938 221.09375 117.191406 C 228.71875 120.210938 235.429688 124.601562 241.039062 130.25 C 252.269531 141.542969 258.453125 157.457031 258.453125 175.054688 C 258.453125 190.375 254.40625 203.503906 246.75 213.019531 C 239.570312 221.9375 229.808594 226.847656 219.265625 226.847656 C 214.328125 226.847656 209.90625 225.066406 206.820312 221.828125 C 204.152344 219.027344 202.558594 215.230469 202.125 210.703125 C 194.667969 221.558594 185.113281 226.847656 173.015625 226.847656 C 166.394531 226.847656 160.292969 224.164062 155.835938 219.289062 C 151.109375 214.117188 148.609375 206.992188 148.609375 198.679688 C 148.609375 185.449219 153.878906 172.363281 163.070312 162.777344 C 172.757812 152.667969 185.964844 147.097656 200.257812 147.097656 C 208.734375 147.097656 217.214844 148.765625 223.523438 151.675781 L 224.652344 152.195312 L 217.242188 191.59375 C 214.761719 204.160156 216.253906 209.316406 217.945312 211.4375 C 218.914062 212.652344 220.261719 213.269531 222.058594 213.324219 C 225.507812 213.386719 229.207031 211.679688 232.449219 208.503906 C 239.296875 201.800781 243.222656 190.070312 243.222656 176.324219 C 243.222656 144.914062 224.25 125.402344 193.710938 125.402344 C 157.925781 125.402344 131.953125 154.179688 131.953125 193.828125 C 131.953125 226.933594 153.121094 249.179688 184.628906 249.179688 C 196.597656 249.179688 207.355469 246.695312 215.738281 242 L 217.363281 241.089844 L 221.882812 253.21875 L 220.640625 253.871094 C 209.320312 259.832031 197.496094 262.492188 182.304688 262.492188 " fill-opacity="1" fill-rule="nonzero"/></g></svg>