<svg xmlns="http://www.w3.org/2000/svg" xmlns:xlink="http://www.w3.org/1999/xlink" width="500" zoomAndPan="magnify" viewBox="0 0 375 374.999991" height="500" preserveAspectRatio="xMidYMid meet" version="1.0"><defs><clipPath id="b2cb5ad870"><path d="M 17.265625 9.476562 L 357 9.476562 L 357 367.226562 L 17.265625 367.226562 Z M 17.265625 9.476562 " clip-rule="nonzero"/></clipPath></defs><g clip-path="url(#b2cb5ad870)"><path fill="#ffffff" d="M 343.367188 191.433594 L 276.078125 247.070312 C 274.816406 248.113281 273.152344 248.335938 271.652344 247.65625 C 270.148438 246.980469 269.246094 245.597656 269.246094 243.988281 L 269.246094 218.074219 L 144.265625 218.074219 C 139.691406 218.074219 135.964844 214.441406 135.964844 209.992188 L 135.964844 166.710938 C 135.964844 162.261719 139.691406 158.628906 144.265625 158.628906 L 269.246094 158.628906 L 269.246094 132.71875 C 269.246094 131.109375 270.148438 129.726562 271.652344 129.050781 C 273.152344 128.375 274.820312 128.59375 276.078125 129.636719 L 343.367188 185.273438 C 344.328125 186.070312 344.832031 187.125 344.832031 188.355469 C 344.832031 189.582031 344.328125 190.636719 343.367188 191.433594 Z M 317.417969 265.320312 C 304.4375 283.863281 287.03125 299 266.890625 309.378906 C 246.597656 319.835938 224.160156 325.121094 201.335938 325.121094 C 164.253906 325.121094 128.707031 310.976562 102.128906 285.09375 C 75.910156 259.550781 60.996094 225.027344 60.996094 188.351562 C 60.996094 151.675781 75.910156 117.152344 102.132812 91.613281 C 128.707031 65.734375 164.257812 51.585938 201.339844 51.585938 C 224.164062 51.585938 246.601562 56.871094 266.894531 67.328125 C 287.035156 77.707031 304.441406 92.84375 317.421875 111.386719 C 324.207031 121.074219 337.769531 123.421875 347.582031 116.902344 C 357.332031 110.421875 359.996094 97.414062 353.25 87.777344 C 336.269531 63.527344 313.460938 43.769531 287.132812 30.199219 C 260.566406 16.511719 231.230469 9.480469 201.34375 9.480469 C 152.753906 9.480469 106.183594 27.996094 71.367188 61.90625 C 37.078125 95.292969 17.570312 140.398438 17.570312 188.351562 C 17.570312 236.304688 37.078125 281.410156 71.359375 314.796875 C 106.175781 348.707031 152.746094 367.222656 201.335938 367.222656 C 231.222656 367.222656 260.558594 360.191406 287.125 346.503906 C 313.453125 332.933594 336.265625 313.175781 353.242188 288.925781 C 359.988281 279.289062 357.324219 266.28125 347.574219 259.800781 C 337.769531 253.28125 324.207031 255.628906 317.417969 265.320312 Z M 317.417969 265.320312 " fill-opacity="1" fill-rule="evenodd"/></g></svg>