<svg xmlns="http://www.w3.org/2000/svg" xmlns:xlink="http://www.w3.org/1999/xlink" width="500" zoomAndPan="magnify" viewBox="0 0 375 374.999991" height="500" preserveAspectRatio="xMidYMid meet" version="1.0"><defs><clipPath id="6ec5a42e99"><path d="M 113 43 L 356.25 43 L 356.25 303.8125 L 113 303.8125 Z M 113 43 " clip-rule="nonzero"/></clipPath></defs><path fill="#ffffff" d="M 35.546875 158.027344 L 218.804688 158.027344 L 218.804688 188.597656 L 35.546875 188.597656 Z M 35.546875 158.027344 " fill-opacity="1" fill-rule="evenodd"/><path fill="#ffffff" d="M 78.199219 109.011719 L 24.75 162.503906 C 18.785156 168.472656 18.785156 178.152344 24.75 184.121094 L 78.199219 237.613281 L 99.796875 216 L 57.144531 173.3125 L 99.796875 130.625 Z M 78.199219 109.011719 " fill-opacity="1" fill-rule="evenodd"/><g clip-path="url(#6ec5a42e99)"><path fill="#ffffff" d="M 227.898438 73.96875 C 190.035156 73.96875 157.070312 95.839844 140.808594 128.050781 L 113.546875 114.265625 C 134.734375 72.300781 177.917969 43.398438 227.898438 43.398438 C 298.96875 43.398438 356.25 101.75 356.25 173.3125 C 356.25 244.875 298.96875 303.226562 227.898438 303.226562 C 177.917969 303.226562 134.734375 274.324219 113.546875 232.363281 L 140.808594 218.574219 C 157.070312 250.785156 190.035156 272.65625 227.898438 272.65625 C 281.734375 272.65625 325.707031 228.363281 325.707031 173.3125 C 325.707031 118.261719 281.734375 73.96875 227.898438 73.96875 Z M 227.898438 73.96875 " fill-opacity="1" fill-rule="evenodd"/></g></svg>