<svg xmlns="http://www.w3.org/2000/svg" xmlns:xlink="http://www.w3.org/1999/xlink" width="500" zoomAndPan="magnify" viewBox="0 0 375 374.999991" height="500" preserveAspectRatio="xMidYMid meet" version="1.0"><defs><clipPath id="cfdf159139"><path d="M 25.910156 18.75 L 363.410156 18.75 L 363.410156 356.25 L 25.910156 356.25 Z M 25.910156 18.75 " clip-rule="nonzero"/></clipPath></defs><path fill="#005900" d="M 82.160156 103.125 L 104.660156 103.125 L 104.660156 125.625 L 82.160156 125.625 Z M 82.160156 136.875 L 104.660156 136.875 C 110.855469 136.875 115.910156 131.820312 115.910156 125.625 L 115.910156 103.125 C 115.910156 96.929688 110.855469 91.875 104.660156 91.875 L 82.160156 91.875 C 75.964844 91.875 70.910156 96.929688 70.910156 103.125 L 70.910156 125.625 C 70.910156 131.820312 75.964844 136.875 82.160156 136.875 " fill-opacity="1" fill-rule="nonzero"/><path fill="#005900" d="M 82.160156 159.375 L 104.660156 159.375 L 104.660156 181.875 L 82.160156 181.875 Z M 82.160156 193.125 L 104.660156 193.125 C 110.855469 193.125 115.910156 188.070312 115.910156 181.875 L 115.910156 159.375 C 115.910156 153.179688 110.855469 148.125 104.660156 148.125 L 82.160156 148.125 C 75.964844 148.125 70.910156 153.179688 70.910156 159.375 L 70.910156 181.875 C 70.910156 188.070312 75.964844 193.125 82.160156 193.125 " fill-opacity="1" fill-rule="nonzero"/><path fill="#005900" d="M 82.160156 215.625 L 104.660156 215.625 L 104.679688 238.125 L 82.160156 238.125 Z M 115.910156 238.125 L 115.910156 215.625 C 115.910156 209.429688 110.855469 204.375 104.660156 204.375 L 82.160156 204.375 C 75.964844 204.375 70.910156 209.429688 70.910156 215.625 L 70.910156 238.125 C 70.910156 244.320312 75.964844 249.375 82.160156 249.375 L 104.660156 249.375 C 110.855469 249.375 115.910156 244.320312 115.910156 238.125 " fill-opacity="1" fill-rule="nonzero"/><g clip-path="url(#cfdf159139)"><path fill="#005900" d="M 351.984375 282.355469 L 340.953125 286.773438 C 339.285156 287.453125 338.03125 288.882812 337.589844 290.640625 C 336.273438 295.914062 334.1875 300.945312 331.375 305.601562 C 330.429688 307.140625 330.296875 309.074219 331 310.722656 L 335.703125 321.664062 C 334.648438 322.894531 333.546875 324.082031 332.382812 325.222656 C 331.242188 326.367188 330.054688 327.488281 328.824219 328.542969 L 317.902344 323.839844 C 316.210938 323.136719 314.324219 323.269531 312.761719 324.214844 C 308.105469 327.027344 303.074219 329.113281 297.800781 330.433594 C 296.042969 330.871094 294.613281 332.125 293.933594 333.792969 L 289.515625 344.824219 C 286.308594 345.066406 283.035156 345.066406 279.804688 344.824219 L 275.386719 333.792969 C 274.707031 332.125 273.277344 330.871094 271.519531 330.433594 C 266.246094 329.113281 261.214844 327.027344 256.554688 324.214844 C 254.996094 323.269531 253.085938 323.136719 251.414062 323.839844 L 240.496094 328.542969 C 239.265625 327.488281 238.078125 326.367188 236.933594 325.222656 C 235.769531 324.082031 234.671875 322.894531 233.617188 321.664062 L 238.320312 310.722656 C 239.023438 309.074219 238.890625 307.140625 237.945312 305.601562 C 235.132812 300.945312 233.046875 295.914062 231.726562 290.640625 C 231.289062 288.882812 230.035156 287.453125 228.367188 286.773438 L 217.335938 282.355469 C 217.226562 280.75 217.160156 279.125 217.160156 277.5 C 217.160156 275.875 217.226562 274.246094 217.335938 272.644531 L 228.367188 268.226562 C 230.035156 267.546875 231.289062 266.117188 231.726562 264.359375 C 233.046875 259.085938 235.132812 254.054688 237.945312 249.398438 C 238.890625 247.835938 239.023438 245.925781 238.320312 244.253906 L 233.617188 233.335938 C 234.671875 232.105469 235.769531 230.917969 236.933594 229.773438 C 238.078125 228.609375 239.265625 227.511719 240.496094 226.457031 L 251.4375 231.160156 C 253.085938 231.863281 254.996094 231.730469 256.554688 230.785156 C 261.214844 227.972656 266.222656 225.886719 271.519531 224.566406 C 273.277344 224.128906 274.707031 222.875 275.386719 221.207031 L 279.804688 210.175781 C 283.011719 209.933594 286.285156 209.933594 289.515625 210.175781 L 293.933594 221.207031 C 294.613281 222.875 296.042969 224.128906 297.800781 224.566406 C 303.074219 225.886719 308.105469 227.972656 312.761719 230.785156 C 314.324219 231.730469 316.210938 231.863281 317.882812 231.160156 L 328.824219 226.457031 C 330.054688 227.511719 331.242188 228.609375 332.382812 229.773438 C 333.546875 230.917969 334.648438 232.105469 335.703125 233.335938 L 331 244.253906 C 330.296875 245.925781 330.429688 247.835938 331.375 249.398438 C 334.1875 254.054688 336.273438 259.085938 337.589844 264.359375 C 338.03125 266.117188 339.285156 267.546875 340.953125 268.226562 L 351.984375 272.644531 C 352.09375 274.246094 352.160156 275.875 352.160156 277.5 C 352.160156 279.125 352.09375 280.75 351.984375 282.355469 Z M 37.160156 305.625 L 37.160156 80.625 C 37.160156 73.308594 41.882812 67.113281 48.410156 64.78125 L 48.410156 300 C 48.410156 306.195312 53.464844 311.25 59.660156 311.25 L 225.839844 311.25 L 222.960938 317.996094 C 222.324219 319.445312 222.148438 320.984375 222.234375 322.5 L 54.035156 322.5 C 44.71875 322.5 37.160156 314.941406 37.160156 305.625 Z M 95.125 54.125 C 96.132812 53.070312 97.539062 52.5 99.035156 52.5 L 144.035156 52.5 C 147.132812 52.5 149.660156 49.972656 149.660156 46.875 C 149.660156 43.777344 147.132812 41.25 144.035156 41.25 L 121.535156 41.25 L 121.535156 35.625 C 121.535156 32.527344 124.0625 30 127.160156 30 L 160.910156 30 C 164.007812 30 166.535156 32.527344 166.535156 35.625 L 166.535156 46.875 C 166.535156 49.972656 169.0625 52.5 172.160156 52.5 L 189.035156 52.5 C 192.132812 52.5 194.660156 55.027344 194.660156 58.125 C 194.660156 59.617188 194.089844 61.003906 192.945312 62.125 C 191.914062 63.179688 190.527344 63.75 189.035156 63.75 L 99.035156 63.75 C 95.9375 63.75 93.410156 61.222656 93.410156 58.125 C 93.410156 56.628906 93.980469 55.246094 95.125 54.125 Z M 222.960938 237.003906 L 226.847656 246.121094 C 224.652344 250.164062 222.894531 254.40625 221.574219 258.824219 L 212.390625 262.515625 C 208.898438 263.921875 206.546875 267.0625 206.195312 270.730469 C 205.996094 272.972656 205.910156 275.238281 205.910156 277.5 C 205.910156 279.761719 205.996094 282.027344 206.195312 284.265625 C 206.546875 287.9375 208.898438 291.078125 212.414062 292.507812 L 221.574219 296.175781 C 221.972656 297.472656 222.476562 298.726562 222.9375 300 L 59.660156 300 L 59.660156 63.75 L 83.191406 63.75 C 85.519531 70.277344 91.71875 75 99.035156 75 L 189.035156 75 C 193.582031 75 197.84375 73.21875 200.878906 70.078125 C 202.722656 68.296875 204.042969 66.121094 204.898438 63.75 L 228.410156 63.75 L 228.410156 222.4375 C 227.023438 223.84375 225.664062 225.292969 224.386719 226.808594 C 222.039062 229.644531 221.488281 233.554688 222.960938 237.003906 Z M 250.910156 80.625 L 250.910156 218.679688 L 244.164062 215.800781 C 242.714844 215.164062 241.175781 214.988281 239.660156 215.074219 L 239.660156 64.78125 C 246.183594 67.113281 250.910156 73.308594 250.910156 80.625 Z M 356.90625 262.492188 L 347.742188 258.824219 C 346.425781 254.40625 344.667969 250.164062 342.46875 246.121094 L 346.359375 237.003906 C 347.832031 233.554688 347.28125 229.644531 344.910156 226.808594 C 343.480469 225.074219 341.941406 223.425781 340.339844 221.820312 C 338.734375 220.21875 337.085938 218.679688 335.351562 217.230469 C 332.515625 214.878906 328.605469 214.328125 325.15625 215.800781 L 316.035156 219.691406 C 311.992188 217.492188 307.753906 215.734375 303.335938 214.417969 L 299.644531 205.230469 C 298.238281 201.738281 295.097656 199.386719 291.425781 199.035156 C 286.945312 198.640625 282.375 198.640625 277.890625 199.035156 C 274.222656 199.386719 271.082031 201.738281 269.652344 205.253906 L 265.984375 214.417969 C 264.6875 214.8125 263.433594 215.316406 262.160156 215.777344 L 262.160156 80.625 C 262.160156 65.113281 249.546875 52.5 234.035156 52.5 L 204.875 52.5 C 202.546875 45.972656 196.351562 41.25 189.035156 41.25 L 177.785156 41.25 L 177.785156 35.625 C 177.785156 26.308594 170.226562 18.75 160.910156 18.75 L 127.160156 18.75 C 117.84375 18.75 110.285156 26.308594 110.285156 35.625 L 110.285156 41.25 L 99.035156 41.25 C 94.464844 41.25 90.222656 43.03125 87.191406 46.171875 C 85.34375 47.953125 84.027344 50.125 83.171875 52.5 L 54.035156 52.5 C 38.523438 52.5 25.910156 65.113281 25.910156 80.625 L 25.910156 305.625 C 25.910156 321.136719 38.523438 333.75 54.035156 333.75 L 229.597656 333.75 C 231.003906 335.132812 232.453125 336.496094 233.96875 337.75 C 236.804688 340.121094 240.714844 340.671875 244.164062 339.199219 L 253.28125 335.289062 C 257.324219 337.507812 261.566406 339.265625 265.984375 340.582031 L 269.675781 349.769531 C 271.082031 353.261719 274.222656 355.613281 277.890625 355.941406 C 280.132812 356.160156 282.394531 356.25 284.660156 356.25 C 286.921875 356.25 289.1875 356.160156 291.425781 355.941406 C 295.097656 355.613281 298.238281 353.261719 299.667969 349.746094 L 303.335938 340.582031 C 307.753906 339.265625 311.992188 337.507812 316.035156 335.289062 L 325.15625 339.199219 C 328.605469 340.671875 332.515625 340.121094 335.351562 337.75 C 337.085938 336.320312 338.734375 334.78125 340.339844 333.179688 C 341.941406 331.574219 343.480469 329.925781 344.929688 328.191406 C 347.28125 325.355469 347.832031 321.445312 346.359375 317.996094 L 342.46875 308.875 C 344.667969 304.855469 346.425781 300.59375 347.742188 296.175781 L 356.90625 292.507812 C 356.925781 292.484375 356.925781 292.484375 356.925781 292.484375 C 360.421875 291.078125 362.773438 287.9375 363.125 284.265625 C 363.320312 282.027344 363.410156 279.761719 363.410156 277.5 C 363.410156 275.238281 363.320312 272.972656 363.125 270.730469 C 362.773438 267.0625 360.421875 263.921875 356.90625 262.492188 " fill-opacity="1" fill-rule="nonzero"/></g><path fill="#005900" d="M 284.660156 311.25 C 266.046875 311.25 250.910156 296.109375 250.910156 277.5 C 250.910156 258.890625 266.046875 243.75 284.660156 243.75 C 303.269531 243.75 318.410156 258.890625 318.410156 277.5 C 318.410156 296.109375 303.269531 311.25 284.660156 311.25 Z M 284.660156 232.5 C 259.851562 232.5 239.660156 252.691406 239.660156 277.5 C 239.660156 302.308594 259.851562 322.5 284.660156 322.5 C 309.464844 322.5 329.660156 302.308594 329.660156 277.5 C 329.660156 252.691406 309.464844 232.5 284.660156 232.5 " fill-opacity="1" fill-rule="nonzero"/><path fill="#005900" d="M 284.660156 288.75 C 278.464844 288.75 273.410156 283.695312 273.410156 277.5 C 273.410156 271.304688 278.464844 266.25 284.660156 266.25 C 290.855469 266.25 295.910156 271.304688 295.910156 277.5 C 295.910156 283.695312 290.855469 288.75 284.660156 288.75 Z M 284.660156 255 C 272.246094 255 262.160156 265.085938 262.160156 277.5 C 262.160156 289.914062 272.246094 300 284.660156 300 C 297.074219 300 307.160156 289.914062 307.160156 277.5 C 307.160156 265.085938 297.074219 255 284.660156 255 " fill-opacity="1" fill-rule="nonzero"/><path fill="#005900" d="M 206.855469 94.378906 L 188.15625 122.417969 L 181.761719 116.023438 C 179.5625 113.824219 176.003906 113.824219 173.808594 116.023438 C 171.609375 118.21875 171.609375 121.78125 173.808594 123.976562 L 185.058594 135.226562 C 186.113281 136.28125 187.539062 136.875 189.035156 136.875 C 189.210938 136.875 189.40625 136.875 189.582031 136.851562 C 191.277344 136.675781 192.769531 135.777344 193.714844 134.371094 L 216.214844 100.621094 C 217.949219 98.027344 217.246094 94.535156 214.65625 92.820312 C 212.0625 91.082031 208.566406 91.785156 206.855469 94.378906 " fill-opacity="1" fill-rule="nonzero"/><path fill="#005900" d="M 132.785156 108.75 L 160.910156 108.75 C 164.007812 108.75 166.535156 106.222656 166.535156 103.125 C 166.535156 100.027344 164.007812 97.5 160.910156 97.5 L 132.785156 97.5 C 129.6875 97.5 127.160156 100.027344 127.160156 103.125 C 127.160156 106.222656 129.6875 108.75 132.785156 108.75 " fill-opacity="1" fill-rule="nonzero"/><path fill="#005900" d="M 132.785156 131.25 L 149.660156 131.25 C 152.757812 131.25 155.285156 128.722656 155.285156 125.625 C 155.285156 122.527344 152.757812 120 149.660156 120 L 132.785156 120 C 129.6875 120 127.160156 122.527344 127.160156 125.625 C 127.160156 128.722656 129.6875 131.25 132.785156 131.25 " fill-opacity="1" fill-rule="nonzero"/><path fill="#005900" d="M 206.855469 150.628906 L 188.15625 178.667969 L 181.761719 172.273438 C 179.5625 170.074219 176.003906 170.074219 173.808594 172.273438 C 171.609375 174.46875 171.609375 178.03125 173.808594 180.226562 L 185.058594 191.476562 C 186.113281 192.53125 187.539062 193.125 189.035156 193.125 C 189.210938 193.125 189.40625 193.125 189.582031 193.101562 C 191.277344 192.925781 192.769531 192.027344 193.714844 190.621094 L 216.214844 156.871094 C 217.949219 154.277344 217.246094 150.785156 214.65625 149.070312 C 212.0625 147.332031 208.566406 148.035156 206.855469 150.628906 " fill-opacity="1" fill-rule="nonzero"/><path fill="#005900" d="M 132.785156 165 L 160.910156 165 C 164.007812 165 166.535156 162.472656 166.535156 159.375 C 166.535156 156.277344 164.007812 153.75 160.910156 153.75 L 132.785156 153.75 C 129.6875 153.75 127.160156 156.277344 127.160156 159.375 C 127.160156 162.472656 129.6875 165 132.785156 165 " fill-opacity="1" fill-rule="nonzero"/><path fill="#005900" d="M 132.785156 187.5 L 149.660156 187.5 C 152.757812 187.5 155.285156 184.972656 155.285156 181.875 C 155.285156 178.777344 152.757812 176.25 149.660156 176.25 L 132.785156 176.25 C 129.6875 176.25 127.160156 178.777344 127.160156 181.875 C 127.160156 184.972656 129.6875 187.5 132.785156 187.5 " fill-opacity="1" fill-rule="nonzero"/><path fill="#005900" d="M 206.855469 206.878906 L 188.15625 234.917969 L 181.761719 228.523438 C 179.5625 226.324219 176.003906 226.324219 173.808594 228.523438 C 171.609375 230.71875 171.609375 234.28125 173.808594 236.476562 L 185.058594 247.726562 C 186.113281 248.78125 187.539062 249.375 189.035156 249.375 C 189.210938 249.375 189.40625 249.351562 189.582031 249.351562 C 191.277344 249.175781 192.769531 248.277344 193.714844 246.871094 L 216.214844 213.121094 C 217.949219 210.527344 217.246094 207.035156 214.65625 205.320312 C 212.0625 203.582031 208.566406 204.285156 206.855469 206.878906 " fill-opacity="1" fill-rule="nonzero"/><path fill="#005900" d="M 132.785156 221.25 L 160.910156 221.25 C 164.007812 221.25 166.535156 218.722656 166.535156 215.625 C 166.535156 212.527344 164.007812 210 160.910156 210 L 132.785156 210 C 129.6875 210 127.160156 212.527344 127.160156 215.625 C 127.160156 218.722656 129.6875 221.25 132.785156 221.25 " fill-opacity="1" fill-rule="nonzero"/><path fill="#005900" d="M 132.785156 243.75 L 149.660156 243.75 C 152.757812 243.75 155.285156 241.222656 155.285156 238.125 C 155.285156 235.027344 152.757812 232.5 149.660156 232.5 L 132.785156 232.5 C 129.6875 232.5 127.160156 235.027344 127.160156 238.125 C 127.160156 241.222656 129.6875 243.75 132.785156 243.75 " fill-opacity="1" fill-rule="nonzero"/><path fill="#005900" d="M 177.785156 277.5 L 104.660156 277.5 C 101.5625 277.5 99.035156 280.027344 99.035156 283.125 C 99.035156 286.222656 101.5625 288.75 104.660156 288.75 L 177.785156 288.75 C 180.882812 288.75 183.410156 286.222656 183.410156 283.125 C 183.410156 280.027344 180.882812 277.5 177.785156 277.5 " fill-opacity="1" fill-rule="nonzero"/></svg>