<svg xmlns="http://www.w3.org/2000/svg" xmlns:xlink="http://www.w3.org/1999/xlink" width="500" zoomAndPan="magnify" viewBox="0 0 375 374.999991" height="500" preserveAspectRatio="xMidYMid meet" version="1.0"><defs><clipPath id="a87cd652ea"><path d="M 102 12.703125 L 260 12.703125 L 260 170 L 102 170 Z M 102 12.703125 " clip-rule="nonzero"/></clipPath><clipPath id="9b365b1584"><path d="M 44.140625 179 L 317.140625 179 L 317.140625 375 L 44.140625 375 Z M 44.140625 179 " clip-rule="nonzero"/></clipPath></defs><g clip-path="url(#a87cd652ea)"><path fill="#005900" d="M 259.21875 91.359375 C 259.21875 48.003906 223.964844 12.730469 180.640625 12.730469 C 137.316406 12.730469 102.066406 48.003906 102.066406 91.359375 C 102.066406 134.589844 137.316406 169.867188 180.640625 169.867188 C 223.964844 169.867188 259.21875 134.589844 259.21875 91.359375 Z M 259.21875 91.359375 " fill-opacity="1" fill-rule="nonzero"/></g><g clip-path="url(#9b365b1584)"><path fill="#005900" d="M 44.140625 315.601562 L 44.140625 339.359375 C 44.140625 362.28125 62.777344 380.929688 85.683594 380.929688 L 275.597656 380.929688 C 298.507812 380.929688 317.140625 362.28125 317.140625 339.359375 L 317.140625 315.601562 C 317.140625 240.300781 255.894531 179.011719 180.640625 179.011719 C 105.386719 179.011719 44.140625 240.300781 44.140625 315.601562 Z M 44.140625 315.601562 " fill-opacity="1" fill-rule="nonzero"/></g></svg>