<svg xmlns="http://www.w3.org/2000/svg" xmlns:xlink="http://www.w3.org/1999/xlink" width="500" zoomAndPan="magnify" viewBox="0 0 375 374.999991" height="500" preserveAspectRatio="xMidYMid meet" version="1.0"><path fill="#d7ffd7" d="M 276.851562 136.167969 C 267.25 87.324219 218.773438 57.808594 178.089844 54.042969 C 144.386719 50.921875 103.53125 59.429688 84.648438 90.738281 C 73.082031 109.917969 87.351562 118.363281 79.347656 160.816406 C 72.421875 197.5625 59.796875 210.800781 67.480469 229.527344 C 73.761719 244.839844 88.058594 251.550781 97.445312 256.179688 C 134.441406 274.421875 202.574219 272.972656 243.035156 239.691406 C 252.503906 231.90625 287.710938 191.414062 276.851562 136.167969 " fill-opacity="1" fill-rule="nonzero"/><path fill="#ffffff" d="M 149.175781 100.445312 C 154.699219 90.894531 166.90625 87.632812 176.441406 93.160156 C 185.980469 98.691406 189.238281 110.917969 183.71875 120.46875 C 178.199219 130.023438 165.988281 133.285156 156.453125 127.753906 C 146.914062 122.226562 143.65625 110 149.175781 100.445312 Z M 136.015625 99.457031 C 135.394531 101.175781 134.921875 102.917969 134.601562 104.679688 L 126.351562 106.535156 L 126.34375 114.296875 L 134.601562 116.171875 C 134.921875 117.945312 135.386719 119.695312 135.992188 121.390625 L 129.765625 127.136719 L 133.632812 133.863281 L 141.710938 131.355469 C 142.859375 132.722656 144.136719 134 145.53125 135.179688 L 143.007812 143.273438 L 149.714844 147.160156 L 155.464844 140.9375 C 157.179688 141.558594 158.921875 142.035156 160.675781 142.351562 L 162.527344 150.617188 L 170.28125 150.625 L 172.152344 142.351562 C 173.925781 142.035156 175.667969 141.566406 177.363281 140.960938 L 183.101562 147.199219 L 189.820312 143.324219 L 187.3125 135.234375 C 188.679688 134.082031 189.953125 132.800781 191.132812 131.40625 L 199.210938 133.9375 L 203.09375 127.214844 L 196.878906 121.460938 C 197.5 119.742188 197.972656 117.996094 198.292969 116.238281 L 206.542969 114.382812 L 206.550781 106.621094 L 198.292969 104.746094 C 197.972656 102.96875 197.507812 101.222656 196.902344 99.527344 L 203.128906 93.777344 L 199.261719 87.050781 L 191.183594 89.558594 C 190.035156 88.195312 188.757812 86.917969 187.363281 85.738281 L 189.890625 77.644531 L 183.179688 73.753906 L 177.429688 79.980469 C 175.714844 79.359375 173.972656 78.882812 172.21875 78.566406 L 170.367188 70.300781 L 162.613281 70.292969 L 160.742188 78.566406 C 158.96875 78.882812 157.226562 79.347656 155.53125 79.957031 L 149.792969 73.71875 L 143.078125 77.59375 L 145.582031 85.683594 C 144.21875 86.835938 142.941406 88.113281 141.765625 89.511719 L 133.683594 86.980469 L 129.800781 93.699219 L 136.015625 99.457031 " fill-opacity="1" fill-rule="nonzero"/><path fill="#029f01" d="M 205.894531 258.898438 L 162.667969 258.898438 L 140.355469 219.789062 L 140.355469 253.949219 C 140.355469 259.289062 144.246094 263.566406 148.960938 263.566406 L 205.894531 263.566406 C 206.8125 263.566406 207.632812 262.921875 207.632812 262 L 207.632812 260.472656 C 207.632812 259.550781 206.8125 258.898438 205.894531 258.898438 " fill-opacity="1" fill-rule="nonzero"/><path fill="#ffffff" d="M 146.695312 232.078125 L 146.695312 251.449219 C 146.695312 255.375 149.804688 258.511719 153.726562 258.511719 L 190.945312 258.511719 L 190.945312 232.078125 L 146.695312 232.078125 " fill-opacity="1" fill-rule="nonzero"/><path fill="#000000" d="M 147.085938 232.464844 L 147.085938 251.449219 C 147.085938 255.191406 150 258.121094 153.726562 258.121094 L 190.558594 258.121094 L 190.558594 232.464844 Z M 191.332031 258.898438 L 153.726562 258.898438 C 149.566406 258.898438 146.308594 255.625 146.308594 251.449219 L 146.308594 231.6875 L 191.332031 231.6875 L 191.332031 258.898438 " fill-opacity="1" fill-rule="nonzero"/><path fill="#029f01" d="M 263.816406 233.863281 L 82.335938 234.261719 C 80.75 234.261719 79.410156 233.078125 79.207031 231.5 L 64.753906 118.351562 C 64.398438 115.597656 66.402344 112.996094 69.171875 112.996094 L 248.300781 113.160156 L 263.816406 233.863281 " fill-opacity="1" fill-rule="nonzero"/><path fill="#ffffff" d="M 267.535156 233.71875 L 89.679688 233.71875 C 88.09375 233.71875 86.753906 232.535156 86.554688 230.949219 L 72.1875 118.820312 C 71.789062 115.703125 74.199219 112.945312 77.316406 112.945312 L 252.875 112.945312 C 254.460938 112.945312 255.800781 114.132812 256.003906 115.714844 L 270.660156 230.136719 C 270.90625 232.035156 269.4375 233.71875 267.535156 233.71875 " fill-opacity="1" fill-rule="nonzero"/><path fill="#000000" d="M 77.316406 113.332031 C 75.949219 113.332031 74.640625 113.925781 73.734375 114.957031 C 72.820312 116 72.394531 117.390625 72.574219 118.769531 L 86.9375 230.902344 C 87.117188 232.285156 88.292969 233.332031 89.679688 233.332031 L 267.535156 233.332031 C 268.324219 233.332031 269.082031 232.988281 269.605469 232.390625 C 270.132812 231.789062 270.378906 230.984375 270.277344 230.1875 L 255.617188 115.765625 C 255.441406 114.378906 254.261719 113.332031 252.878906 113.332031 Z M 267.535156 234.109375 L 89.679688 234.109375 C 87.90625 234.109375 86.394531 232.769531 86.167969 231 L 71.804688 118.867188 C 71.597656 117.265625 72.089844 115.652344 73.152344 114.445312 C 74.207031 113.242188 75.722656 112.554688 77.316406 112.554688 L 252.878906 112.554688 C 254.652344 112.554688 256.164062 113.890625 256.386719 115.664062 L 271.046875 230.085938 C 271.179688 231.109375 270.863281 232.132812 270.1875 232.90625 C 269.515625 233.671875 268.546875 234.109375 267.535156 234.109375 " fill-opacity="1" fill-rule="nonzero"/><path fill="#d7ffd7" d="M 86.171875 102.21875 L 241.9375 102.21875 C 245.375 102.21875 248.503906 105.019531 248.925781 108.472656 L 262.0625 216.378906 C 262.488281 219.871094 260.03125 222.703125 256.574219 222.703125 L 99.933594 222.703125 C 96.476562 222.703125 93.351562 219.871094 92.953125 216.378906 L 80.660156 108.472656 C 80.265625 105.019531 82.734375 102.21875 86.171875 102.21875 " fill-opacity="1" fill-rule="nonzero"/><path fill="#029f01" d="M 249.417969 112.292969 L 249.125 108.414062 C 248.707031 104.992188 245.472656 102.265625 242.03125 102.265625 L 86.265625 102.265625 C 82.828125 102.265625 80.324219 104.992188 80.714844 108.414062 L 81.078125 113.191406 L 249.417969 112.292969 " fill-opacity="1" fill-rule="nonzero"/><path fill="#d7ffd7" d="M 90.519531 108.578125 C 90.644531 109.691406 89.847656 110.59375 88.738281 110.59375 C 87.625 110.59375 86.621094 109.691406 86.496094 108.578125 C 86.367188 107.464844 87.167969 106.5625 88.277344 106.5625 C 89.386719 106.5625 90.390625 107.464844 90.519531 108.578125 " fill-opacity="1" fill-rule="nonzero"/><path fill="#d7ffd7" d="M 96.9375 108.441406 C 97.066406 109.554688 96.269531 110.457031 95.160156 110.457031 C 94.046875 110.457031 93.042969 109.554688 92.917969 108.441406 C 92.789062 107.328125 93.585938 106.429688 94.695312 106.429688 C 95.808594 106.429688 96.8125 107.328125 96.9375 108.441406 " fill-opacity="1" fill-rule="nonzero"/><path fill="#d7ffd7" d="M 103.941406 108.710938 C 104.070312 109.824219 103.273438 110.726562 102.164062 110.726562 C 101.050781 110.726562 100.046875 109.824219 99.921875 108.710938 C 99.792969 107.597656 100.589844 106.699219 101.699219 106.699219 C 102.808594 106.699219 103.816406 107.597656 103.941406 108.710938 " fill-opacity="1" fill-rule="nonzero"/><path fill="#ffffff" d="M 116.238281 172.734375 L 131.113281 172.734375 L 128.351562 148.914062 L 127.792969 150.167969 Z M 140.597656 172.734375 L 147.660156 172.734375 L 148.554688 180.386719 L 141.488281 180.386719 L 142.96875 193.113281 L 133.472656 193.113281 L 132 180.386719 L 107.4375 180.386719 L 106.5 174.578125 L 126.546875 136.046875 L 136.328125 136.046875 L 140.597656 172.734375 " fill-opacity="1" fill-rule="nonzero"/><path fill="#ffffff" d="M 179.808594 158.390625 C 179.175781 153.039062 177.984375 149.117188 176.234375 146.625 C 174.484375 144.136719 172.023438 142.890625 168.851562 142.890625 C 165.761719 142.890625 163.625 144.070312 162.449219 146.429688 C 161.269531 148.792969 160.933594 152.476562 161.445312 157.488281 L 162.964844 170.421875 C 163.589844 175.753906 164.800781 179.734375 166.589844 182.347656 C 168.382812 184.96875 170.867188 186.277344 174.042969 186.277344 C 177.089844 186.277344 179.199219 185.066406 180.371094 182.644531 C 181.542969 180.222656 181.863281 176.4375 181.332031 171.285156 Z M 190.550781 169.046875 C 191.527344 177.261719 190.730469 183.453125 188.167969 187.632812 C 185.601562 191.808594 181.191406 193.898438 174.941406 193.898438 C 168.792969 193.898438 163.925781 191.859375 160.335938 187.789062 C 156.746094 183.71875 154.449219 177.691406 153.4375 169.714844 L 152.28125 159.839844 C 151.324219 151.644531 152.128906 145.496094 154.703125 141.402344 C 157.277344 137.3125 161.695312 135.265625 167.953125 135.265625 C 174.164062 135.265625 179.027344 137.257812 182.554688 141.246094 C 186.082031 145.238281 188.355469 151.210938 189.378906 159.171875 L 190.550781 169.046875 " fill-opacity="1" fill-rule="nonzero"/><path fill="#ffffff" d="M 207.109375 172.734375 L 221.980469 172.734375 L 219.117188 148.914062 L 218.566406 150.167969 Z M 231.464844 172.734375 L 238.53125 172.734375 L 239.457031 180.386719 L 232.390625 180.386719 L 233.921875 193.113281 L 224.429688 193.113281 L 222.898438 180.386719 L 198.339844 180.386719 L 197.375 174.582031 L 217.261719 136.046875 L 227.042969 136.046875 L 231.464844 172.734375 " fill-opacity="1" fill-rule="nonzero"/><path fill="#016900" d="M 118.695312 170.226562 L 132.496094 170.226562 L 129.949219 148.242188 Z M 132.933594 171.003906 L 118.0625 171.003906 C 117.925781 171.003906 117.800781 170.933594 117.730469 170.816406 C 117.660156 170.703125 117.652344 170.558594 117.714844 170.4375 L 129.269531 147.867188 L 129.816406 146.636719 C 129.886719 146.476562 130.054688 146.382812 130.230469 146.410156 C 130.402344 146.433594 130.535156 146.574219 130.558594 146.75 L 133.316406 170.570312 C 133.332031 170.679688 133.296875 170.789062 133.222656 170.871094 C 133.148438 170.957031 133.042969 171.003906 132.933594 171.003906 Z M 135.640625 190.601562 L 144.351562 190.601562 L 142.921875 178.308594 C 142.910156 178.199219 142.945312 178.089844 143.019531 178.007812 C 143.089844 177.925781 143.195312 177.875 143.308594 177.875 L 149.9375 177.875 L 149.136719 171.003906 L 142.417969 171.003906 C 142.222656 171.003906 142.054688 170.855469 142.03125 170.660156 L 137.804688 134.316406 L 128.601562 134.316406 L 108.722656 172.523438 L 109.589844 177.875 L 133.820312 177.875 C 134.015625 177.875 134.183594 178.023438 134.203125 178.21875 Z M 144.789062 191.378906 L 135.292969 191.378906 C 135.097656 191.378906 134.929688 191.230469 134.910156 191.035156 L 133.472656 178.652344 L 109.257812 178.652344 C 109.070312 178.652344 108.90625 178.515625 108.875 178.328125 L 107.9375 172.519531 C 107.921875 172.4375 107.9375 172.351562 107.976562 172.277344 L 128.023438 133.746094 C 128.089844 133.617188 128.222656 133.535156 128.367188 133.535156 L 138.148438 133.535156 C 138.34375 133.535156 138.511719 133.683594 138.535156 133.882812 L 142.761719 170.226562 L 149.484375 170.226562 C 149.679688 170.226562 149.84375 170.375 149.867188 170.570312 L 150.761719 178.21875 C 150.773438 178.332031 150.738281 178.441406 150.664062 178.523438 C 150.59375 178.605469 150.484375 178.652344 150.375 178.652344 L 143.746094 178.652344 L 145.175781 190.945312 C 145.1875 191.054688 145.152344 191.164062 145.078125 191.246094 C 145.003906 191.332031 144.898438 191.378906 144.789062 191.378906 " fill-opacity="1" fill-rule="nonzero"/><path fill="#016900" d="M 170.671875 141.15625 C 167.714844 141.15625 165.730469 142.246094 164.617188 144.480469 C 163.476562 146.765625 163.152344 150.414062 163.652344 155.328125 L 165.171875 168.253906 C 165.789062 173.503906 166.984375 177.457031 168.730469 180.007812 C 170.460938 182.535156 172.796875 183.765625 175.863281 183.765625 C 178.777344 183.765625 180.730469 182.648438 181.84375 180.351562 C 182.976562 178.011719 183.289062 174.257812 182.765625 169.203125 L 181.242188 156.316406 C 180.621094 151.054688 179.441406 147.15625 177.734375 144.726562 C 176.046875 142.324219 173.738281 141.15625 170.671875 141.15625 Z M 175.863281 184.542969 C 172.566406 184.542969 169.953125 183.164062 168.089844 180.449219 C 166.273438 177.792969 165.03125 173.71875 164.398438 168.347656 L 162.882812 155.414062 C 162.363281 150.34375 162.714844 146.550781 163.921875 144.132812 C 165.164062 141.640625 167.4375 140.378906 170.671875 140.378906 C 173.960938 140.378906 176.550781 141.691406 178.371094 144.28125 C 180.148438 146.8125 181.375 150.832031 182.011719 156.222656 L 183.539062 169.117188 C 184.074219 174.324219 183.738281 178.21875 182.542969 180.691406 C 181.304688 183.246094 179.058594 184.542969 175.863281 184.542969 Z M 169.773438 133.53125 C 163.6875 133.53125 159.339844 135.535156 156.855469 139.488281 C 154.339844 143.488281 153.542969 149.605469 154.488281 157.671875 L 155.644531 167.550781 C 156.640625 175.40625 158.929688 181.417969 162.449219 185.410156 C 165.941406 189.375 170.757812 191.386719 176.761719 191.386719 C 182.839844 191.386719 187.179688 189.339844 189.65625 185.304688 C 192.164062 181.226562 192.945312 175.058594 191.988281 166.972656 L 190.8125 157.097656 C 189.804688 149.257812 187.542969 143.296875 184.082031 139.382812 C 180.652344 135.5 175.839844 133.53125 169.773438 133.53125 Z M 176.761719 192.164062 C 170.527344 192.164062 165.515625 190.0625 161.867188 185.921875 C 158.242188 181.8125 155.890625 175.664062 154.871094 167.644531 L 153.714844 157.765625 C 152.753906 149.515625 153.585938 143.226562 156.195312 139.074219 C 158.832031 134.882812 163.402344 132.753906 169.773438 132.753906 C 176.070312 132.753906 181.078125 134.8125 184.664062 138.867188 C 188.226562 142.898438 190.554688 149 191.585938 157.003906 L 192.757812 166.882812 C 193.738281 175.144531 192.917969 181.480469 190.320312 185.714844 C 187.691406 189.992188 183.128906 192.164062 176.761719 192.164062 " fill-opacity="1" fill-rule="nonzero"/><path fill="#016900" d="M 223.800781 171.003906 L 208.929688 171.003906 C 208.796875 171.003906 208.667969 170.933594 208.597656 170.816406 C 208.527344 170.703125 208.523438 170.558594 208.582031 170.4375 L 220.042969 147.871094 L 220.582031 146.636719 C 220.65625 146.476562 220.824219 146.382812 220.996094 146.410156 C 221.167969 146.433594 221.304688 146.574219 221.324219 146.746094 L 223.105469 161.542969 C 223.128906 161.757812 222.976562 161.953125 222.765625 161.976562 C 222.546875 162.003906 222.359375 161.851562 222.332031 161.636719 L 220.722656 148.242188 L 209.5625 170.226562 L 223.363281 170.226562 L 223.046875 167.605469 C 223.023438 167.390625 223.175781 167.199219 223.386719 167.175781 C 223.605469 167.144531 223.792969 167.300781 223.820312 167.511719 L 224.1875 170.570312 C 224.199219 170.679688 224.164062 170.789062 224.089844 170.871094 C 224.019531 170.957031 223.914062 171.003906 223.800781 171.003906 Z M 235.742188 191.378906 L 226.25 191.378906 C 226.054688 191.378906 225.890625 191.230469 225.867188 191.035156 L 224.375 178.652344 L 200.160156 178.652344 C 199.972656 178.652344 199.808594 178.515625 199.777344 178.328125 L 198.8125 172.519531 C 198.800781 172.4375 198.8125 172.355469 198.851562 172.28125 L 218.738281 133.746094 C 218.804688 133.617188 218.9375 133.535156 219.082031 133.535156 L 228.863281 133.535156 C 229.058594 133.535156 229.226562 133.683594 229.246094 133.878906 L 230.449219 143.828125 C 230.472656 144.042969 230.320312 144.234375 230.109375 144.261719 C 229.894531 144.285156 229.703125 144.136719 229.675781 143.921875 L 228.519531 134.316406 L 219.320312 134.316406 L 199.597656 172.519531 L 200.488281 177.875 L 224.722656 177.875 C 224.917969 177.875 225.082031 178.023438 225.105469 178.21875 L 226.59375 190.601562 L 235.304688 190.601562 L 234.082031 180.433594 C 234.054688 180.21875 234.207031 180.027344 234.417969 180 C 234.628906 179.976562 234.824219 180.125 234.851562 180.339844 L 236.128906 190.945312 C 236.140625 191.054688 236.109375 191.164062 236.035156 191.246094 C 235.960938 191.332031 235.855469 191.378906 235.742188 191.378906 " fill-opacity="1" fill-rule="nonzero"/><path fill="#016900" d="M 229.25 223.09375 L 99.988281 223.09375 C 96.347656 223.09375 93.042969 220.101562 92.625 216.425781 L 80.332031 108.515625 C 80.125 106.722656 80.636719 105.035156 81.765625 103.769531 C 82.878906 102.515625 84.464844 101.828125 86.230469 101.828125 L 241.996094 101.828125 C 245.617188 101.828125 248.925781 104.789062 249.367188 108.425781 L 253.640625 143.515625 C 253.664062 143.730469 253.515625 143.921875 253.300781 143.949219 C 253.089844 143.972656 252.898438 143.824219 252.867188 143.609375 L 248.597656 108.519531 C 248.199219 105.257812 245.238281 102.605469 241.996094 102.605469 L 86.230469 102.605469 C 84.691406 102.605469 83.308594 103.203125 82.34375 104.285156 C 81.363281 105.386719 80.921875 106.855469 81.101562 108.429688 L 93.394531 216.335938 C 93.769531 219.632812 96.730469 222.316406 99.988281 222.316406 L 229.25 222.316406 C 229.460938 222.316406 229.636719 222.488281 229.636719 222.703125 C 229.636719 222.917969 229.460938 223.09375 229.25 223.09375 " fill-opacity="1" fill-rule="nonzero"/><path fill="#000000" d="M 205.621094 263.824219 L 150.964844 263.824219 C 150.75 263.824219 150.578125 263.648438 150.578125 263.433594 C 150.578125 263.21875 150.75 263.046875 150.964844 263.046875 L 205.621094 263.046875 C 206.316406 263.046875 206.859375 262.480469 206.859375 261.753906 L 206.859375 260.222656 C 206.859375 259.492188 206.304688 258.898438 205.621094 258.898438 L 189.78125 258.898438 C 189.566406 258.898438 189.390625 258.726562 189.390625 258.511719 C 189.390625 258.296875 189.566406 258.121094 189.78125 258.121094 L 205.621094 258.121094 C 206.734375 258.121094 207.632812 259.066406 207.632812 260.222656 L 207.632812 261.753906 C 207.632812 262.894531 206.734375 263.824219 205.621094 263.824219 " fill-opacity="1" fill-rule="nonzero"/><path fill="#029f01" d="M 133.238281 259.675781 L 86.136719 259.675781 L 90.59375 250.890625 L 94.480469 243.238281 L 98.820312 234.6875 L 102.703125 227.039062 L 107.753906 217.09375 C 108.125 216.367188 108.871094 215.910156 109.6875 215.910156 C 110.503906 215.910156 111.25 216.367188 111.621094 217.09375 L 116.671875 227.039062 L 120.554688 234.683594 L 124.898438 243.234375 L 128.78125 250.890625 L 133.238281 259.675781 " fill-opacity="1" fill-rule="nonzero"/><path fill="#016900" d="M 120.554688 234.796875 L 98.820312 234.796875 L 102.703125 227.023438 L 116.671875 227.023438 L 120.554688 234.796875 " fill-opacity="1" fill-rule="nonzero"/><path fill="#016900" d="M 128.78125 250.867188 L 90.59375 250.867188 L 94.480469 243.351562 L 124.898438 243.351562 L 128.78125 250.867188 " fill-opacity="1" fill-rule="nonzero"/><path fill="#000000" d="M 86.535156 259.417969 L 132.375 259.417969 L 124.316406 243.410156 L 111.042969 217.273438 C 110.738281 216.671875 110.128906 216.300781 109.457031 216.300781 C 108.78125 216.300781 108.175781 216.675781 107.867188 217.277344 L 98.933594 234.878906 L 94.59375 243.445312 L 90.710938 251.128906 Z M 133.007812 260.195312 L 85.90625 260.195312 C 85.769531 260.195312 85.644531 260.125 85.574219 260.011719 C 85.503906 259.894531 85.496094 259.753906 85.558594 259.632812 L 90.015625 250.78125 L 93.902344 243.09375 L 102.125 226.871094 L 107.175781 216.921875 C 107.613281 216.058594 108.488281 215.523438 109.457031 215.523438 C 110.425781 215.523438 111.296875 216.058594 111.734375 216.917969 L 125.011719 243.058594 L 133.351562 259.632812 C 133.414062 259.753906 133.410156 259.894531 133.335938 260.011719 C 133.265625 260.125 133.140625 260.195312 133.007812 260.195312 " fill-opacity="1" fill-rule="nonzero"/><path fill="#016900" d="M 137.605469 259.839844 C 137.605469 258.96875 136.898438 258.261719 136.027344 258.261719 L 83.117188 258.261719 C 82.246094 258.261719 81.539062 258.96875 81.539062 259.839844 L 81.539062 264.835938 C 81.539062 265.707031 82.246094 266.414062 83.117188 266.414062 L 136.027344 266.414062 C 136.898438 266.414062 137.605469 265.707031 137.605469 264.835938 L 137.605469 259.839844 " fill-opacity="1" fill-rule="nonzero"/><path fill="#000000" d="M 83.117188 258.648438 C 82.460938 258.648438 81.925781 259.183594 81.925781 259.839844 L 81.925781 264.835938 C 81.925781 265.492188 82.460938 266.027344 83.117188 266.027344 L 136.027344 266.027344 C 136.683594 266.027344 137.21875 265.492188 137.21875 264.835938 L 137.21875 259.839844 C 137.21875 259.183594 136.683594 258.648438 136.027344 258.648438 Z M 136.027344 266.804688 L 83.117188 266.804688 C 82.03125 266.804688 81.148438 265.921875 81.148438 264.835938 L 81.148438 259.839844 C 81.148438 258.753906 82.03125 257.871094 83.117188 257.871094 L 136.027344 257.871094 C 137.113281 257.871094 137.996094 258.753906 137.996094 259.839844 L 137.996094 264.835938 C 137.996094 265.921875 137.113281 266.804688 136.027344 266.804688 " fill-opacity="1" fill-rule="nonzero"/><path fill="#016900" d="M 264.40625 164.542969 C 270.53125 166.265625 278.414062 172.90625 278.414062 184.949219 C 278.414062 193.628906 265.652344 200.976562 265.652344 200.976562 L 263.546875 195.804688 C 263.546875 195.804688 270.582031 190.585938 270.242188 184.496094 C 269.972656 179.613281 262.113281 178.09375 262.113281 178.09375 L 264.40625 164.542969 " fill-opacity="1" fill-rule="nonzero"/><path fill="#016900" d="M 261.824219 263.527344 L 257.421875 263.527344 L 257.421875 258.355469 L 261.824219 258.355469 L 261.824219 263.527344 " fill-opacity="1" fill-rule="nonzero"/><path fill="#016900" d="M 250.113281 262.570312 L 245.832031 263.582031 L 244.640625 258.546875 L 248.925781 257.535156 L 250.113281 262.570312 " fill-opacity="1" fill-rule="nonzero"/><path fill="#000000" d="M 265.460938 194.152344 C 265.460938 194.152344 266.773438 204.558594 265.765625 208.597656 C 264.757812 212.640625 262.398438 249.976562 262.398438 260.078125 L 256.46875 260.078125 L 253.785156 212.359375 L 245.507812 229.671875 C 244.910156 231.078125 244.753906 232.632812 245.074219 234.128906 L 249.960938 260.078125 L 244.410156 260.460938 L 235.132812 231.96875 C 234.71875 230.554688 234.6875 229.058594 235.042969 227.628906 L 242.566406 197.488281 L 265.460938 194.152344 " fill-opacity="1" fill-rule="nonzero"/><path fill="#ffffff" d="M 254.074219 211.691406 C 253.988281 211.691406 253.902344 211.664062 253.832031 211.609375 C 253.664062 211.472656 253.636719 211.230469 253.773438 211.0625 L 256.832031 207.226562 C 256.964844 207.0625 257.210938 207.035156 257.378906 207.167969 C 257.546875 207.300781 257.574219 207.546875 257.4375 207.714844 L 254.378906 211.546875 C 254.300781 211.644531 254.1875 211.691406 254.074219 211.691406 " fill-opacity="1" fill-rule="nonzero"/><path fill="#ffffff" d="M 262.113281 262.378906 L 256.945312 262.378906 L 256.179688 266.285156 C 256.03125 267.039062 256.574219 267.746094 257.300781 267.746094 L 261.753906 267.746094 C 262.480469 267.746094 263.027344 267.039062 262.878906 266.285156 L 262.113281 262.378906 " fill-opacity="1" fill-rule="nonzero"/><path fill="#000000" d="M 257.261719 262.769531 L 256.558594 266.359375 C 256.507812 266.621094 256.574219 266.882812 256.734375 267.082031 C 256.882812 267.257812 257.082031 267.355469 257.300781 267.355469 L 261.753906 267.355469 C 261.972656 267.355469 262.171875 267.257812 262.320312 267.082031 C 262.484375 266.882812 262.546875 266.621094 262.496094 266.359375 L 261.792969 262.769531 Z M 261.753906 268.132812 L 257.300781 268.132812 C 256.851562 268.132812 256.429688 267.929688 256.136719 267.574219 C 255.824219 267.195312 255.703125 266.699219 255.796875 266.210938 L 256.5625 262.304688 C 256.601562 262.121094 256.757812 261.992188 256.945312 261.992188 L 262.109375 261.992188 C 262.296875 261.992188 262.457031 262.121094 262.492188 262.304688 L 263.257812 266.210938 C 263.351562 266.699219 263.230469 267.195312 262.917969 267.574219 C 262.628906 267.929688 262.203125 268.132812 261.753906 268.132812 " fill-opacity="1" fill-rule="nonzero"/><path fill="#000000" d="M 262.109375 266.886719 L 256.753906 266.886719 C 256.539062 266.886719 256.363281 266.714844 256.363281 266.5 C 256.363281 266.285156 256.539062 266.109375 256.753906 266.109375 L 262.109375 266.109375 C 262.324219 266.109375 262.5 266.285156 262.5 266.5 C 262.5 266.714844 262.324219 266.886719 262.109375 266.886719 " fill-opacity="1" fill-rule="nonzero"/><path fill="#ffffff" d="M 250.246094 261.230469 L 251.664062 265.933594 C 251.910156 266.75 251.410156 267.617188 250.679688 267.640625 L 240.957031 267.96875 C 240.355469 267.992188 240.117188 267.058594 240.625 266.675781 C 242.207031 265.484375 244.3125 263.832031 244.886719 263.046875 C 246.230469 261.230469 247.570312 262.820312 247.570312 262.820312 C 247.570312 262.820312 248.523438 261.230469 250.246094 261.230469 " fill-opacity="1" fill-rule="nonzero"/><path fill="#000000" d="M 246.285156 262.5625 C 246.273438 262.5625 246.265625 262.5625 246.253906 262.5625 C 245.894531 262.578125 245.542969 262.816406 245.203125 263.277344 C 244.71875 263.929688 243.257812 265.179688 240.859375 266.984375 C 240.726562 267.085938 240.714844 267.277344 240.761719 267.414062 C 240.78125 267.464844 240.835938 267.582031 240.941406 267.582031 C 240.941406 267.582031 240.945312 267.582031 240.945312 267.582031 L 250.664062 267.25 C 250.917969 267.242188 251.078125 267.070312 251.152344 266.964844 C 251.332031 266.714844 251.386719 266.359375 251.289062 266.042969 L 249.964844 261.636719 C 248.660156 261.792969 247.910156 263.007812 247.902344 263.019531 C 247.835938 263.128906 247.722656 263.195312 247.597656 263.207031 C 247.472656 263.214844 247.351562 263.164062 247.273438 263.070312 C 247.269531 263.066406 246.832031 262.5625 246.285156 262.5625 Z M 240.941406 268.359375 C 240.535156 268.359375 240.179688 268.09375 240.03125 267.671875 C 239.859375 267.183594 240.003906 266.65625 240.394531 266.363281 C 242.664062 264.652344 244.152344 263.390625 244.578125 262.816406 C 245.066406 262.152344 245.621094 261.808594 246.234375 261.789062 C 246.773438 261.761719 247.222656 262.019531 247.511719 262.242188 C 247.941406 261.71875 248.871094 260.839844 250.246094 260.839844 C 250.417969 260.839844 250.570312 260.953125 250.621094 261.117188 L 252.03125 265.820312 C 252.199219 266.371094 252.105469 266.96875 251.78125 267.417969 C 251.515625 267.792969 251.117188 268.015625 250.691406 268.027344 L 240.972656 268.359375 C 240.960938 268.359375 240.953125 268.359375 240.941406 268.359375 " fill-opacity="1" fill-rule="nonzero"/><path fill="#ffffff" d="M 242.019531 266.5 L 250.820312 266.117188 L 242.019531 266.5 " fill-opacity="1" fill-rule="nonzero"/><path fill="#000000" d="M 242.019531 266.886719 C 241.8125 266.886719 241.640625 266.726562 241.632812 266.515625 C 241.621094 266.300781 241.789062 266.121094 242 266.113281 L 250.804688 265.726562 C 251.023438 265.714844 251.199219 265.882812 251.207031 266.101562 C 251.21875 266.3125 251.050781 266.496094 250.835938 266.503906 L 242.035156 266.886719 C 242.03125 266.886719 242.023438 266.886719 242.019531 266.886719 " fill-opacity="1" fill-rule="nonzero"/><path fill="#ffffff" d="M 255.414062 161.859375 L 260.199219 165.117188 L 247.023438 164.484375 L 250.820312 162.050781 L 251.332031 159.691406 C 250.660156 159.59375 249.730469 159.527344 249.4375 159.15625 C 248.917969 158.507812 249.152344 156.257812 249.152344 156.257812 L 248.582031 155.808594 C 248.519531 155.777344 248.472656 155.722656 248.457031 155.660156 C 248.4375 155.59375 248.449219 155.519531 248.484375 155.464844 C 248.96875 154.691406 249.425781 154.441406 249.640625 153.652344 C 249.851562 152.875 249.757812 152.992188 250.59375 151.316406 L 255.605469 151.308594 L 255.632812 155.070312 C 255.632812 155.070312 256.402344 154.574219 256.890625 155.246094 C 257.242188 155.734375 256.460938 157.367188 255.824219 157.367188 L 255.414062 161.859375 " fill-opacity="1" fill-rule="nonzero"/><path fill="#000000" d="M 248.257812 164.15625 L 258.839844 164.664062 L 255.195312 162.179688 C 255.078125 162.101562 255.015625 161.964844 255.027344 161.824219 L 255.4375 157.332031 C 255.457031 157.132812 255.621094 156.980469 255.824219 156.980469 C 255.875 156.976562 256.097656 156.839844 256.324219 156.421875 C 256.578125 155.964844 256.621094 155.558594 256.574219 155.472656 C 256.3125 155.109375 255.890625 155.367188 255.84375 155.398438 C 255.726562 155.476562 255.574219 155.480469 255.449219 155.414062 C 255.324219 155.347656 255.246094 155.214844 255.246094 155.074219 L 255.21875 151.703125 L 250.835938 151.707031 C 250.234375 152.914062 250.207031 153.027344 250.089844 153.476562 C 250.070312 153.554688 250.042969 153.648438 250.015625 153.753906 C 249.859375 154.332031 249.585938 154.660156 249.300781 155.015625 C 249.167969 155.175781 249.027344 155.347656 248.886719 155.558594 L 249.390625 155.953125 C 249.496094 156.035156 249.550781 156.167969 249.535156 156.300781 C 249.449219 157.167969 249.449219 158.550781 249.738281 158.914062 C 249.894531 159.105469 250.632812 159.207031 251.074219 159.265625 C 251.179688 159.28125 251.289062 159.292969 251.390625 159.308594 C 251.496094 159.324219 251.589844 159.382812 251.652344 159.472656 C 251.714844 159.5625 251.734375 159.667969 251.710938 159.773438 L 251.199219 162.132812 C 251.179688 162.234375 251.117188 162.320312 251.03125 162.378906 Z M 260.199219 165.503906 C 260.191406 165.503906 260.183594 165.503906 260.179688 165.503906 L 247.007812 164.875 C 246.835938 164.863281 246.695312 164.75 246.648438 164.585938 C 246.605469 164.421875 246.671875 164.25 246.816406 164.15625 L 250.476562 161.808594 L 250.863281 160.023438 C 250.167969 159.925781 249.464844 159.816406 249.132812 159.402344 C 248.617188 158.753906 248.691406 157.097656 248.746094 156.433594 L 248.363281 156.132812 C 248.226562 156.050781 248.125 155.917969 248.082031 155.761719 C 248.035156 155.59375 248.0625 155.410156 248.15625 155.257812 C 248.347656 154.949219 248.535156 154.722656 248.699219 154.519531 C 248.964844 154.199219 249.152344 153.964844 249.265625 153.550781 C 249.292969 153.445312 249.316406 153.359375 249.339844 153.28125 C 249.480469 152.730469 249.53125 152.582031 250.246094 151.144531 C 250.3125 151.011719 250.449219 150.929688 250.59375 150.929688 L 255.605469 150.921875 C 255.820312 150.921875 255.992188 151.09375 255.992188 151.308594 L 256.019531 154.523438 C 256.417969 154.464844 256.875 154.566406 257.203125 155.019531 C 257.589844 155.550781 257.1875 156.441406 257.054688 156.703125 C 256.925781 156.957031 256.621094 157.472656 256.183594 157.675781 L 255.820312 161.664062 L 260.417969 164.792969 C 260.558594 164.894531 260.621094 165.074219 260.566406 165.238281 C 260.511719 165.398438 260.363281 165.503906 260.199219 165.503906 " fill-opacity="1" fill-rule="nonzero"/><path fill="#000000" d="M 256.070312 159.050781 C 255.058594 159.386719 254.0625 158.597656 253.882812 158.453125 C 253.183594 157.898438 252.609375 156.902344 252.890625 156.464844 C 253.046875 156.226562 253.320312 156.359375 253.683594 156.070312 C 254.21875 155.644531 254.371094 154.726562 254.082031 154.480469 C 253.84375 154.273438 253.476562 154.664062 253.089844 154.480469 C 252.617188 154.25 252.859375 153.523438 252.492188 152.886719 C 251.894531 151.84375 250.507812 152.472656 249.4375 151.363281 C 248.738281 150.636719 248.433594 149.425781 248.835938 148.742188 C 248.953125 148.546875 249.128906 148.367188 249.382812 148.226562 C 251.066406 147.300781 251.316406 148.570312 252.957031 148.582031 C 256.324219 148.613281 257.976562 149.289062 258.589844 150.6875 C 259.003906 151.636719 258.496094 153.148438 258.25 153.878906 C 258.167969 154.125 258 154.585938 257.851562 155.273438 C 257.699219 156.023438 257.746094 156.21875 257.65625 156.664062 C 257.59375 156.980469 257.257812 158.65625 256.070312 159.050781 " fill-opacity="1" fill-rule="nonzero"/><path fill="#ffffff" d="M 248.519531 153.160156 C 248.519531 153.160156 250.007812 153.710938 250.332031 152.96875 C 250.65625 152.222656 250.136719 151.605469 250.945312 151.023438 C 251.753906 150.441406 253.695312 149.824219 252.984375 148.949219 C 252.269531 148.074219 250.105469 147.71875 249.488281 148.757812 C 248.875 149.792969 248.421875 151.574219 248 151.605469 C 247.582031 151.640625 247.738281 152.980469 248.519531 153.160156 " fill-opacity="1" fill-rule="nonzero"/><path fill="#000000" d="M 248.652344 152.796875 C 249.121094 152.96875 249.859375 153.074219 249.972656 152.8125 C 250.066406 152.597656 250.066406 152.394531 250.066406 152.15625 C 250.0625 151.722656 250.0625 151.183594 250.71875 150.707031 C 250.945312 150.546875 251.234375 150.390625 251.539062 150.226562 C 251.96875 149.992188 252.695312 149.601562 252.746094 149.34375 C 252.753906 149.308594 252.730469 149.257812 252.683594 149.195312 C 252.332031 148.769531 251.460938 148.464844 250.730469 148.519531 C 250.480469 148.535156 250.023438 148.617188 249.820312 148.953125 C 249.589844 149.351562 249.367188 149.890625 249.171875 150.367188 C 248.804688 151.261719 248.566406 151.839844 248.164062 151.96875 C 248.152344 152.066406 248.167969 152.261719 248.265625 152.460938 C 248.3125 152.5625 248.425781 152.738281 248.605469 152.785156 C 248.621094 152.785156 248.636719 152.792969 248.652344 152.796875 Z M 249.542969 153.746094 C 249.039062 153.746094 248.546875 153.585938 248.40625 153.535156 C 247.644531 153.339844 247.347656 152.46875 247.390625 151.929688 C 247.421875 151.480469 247.664062 151.277344 247.902344 151.230469 C 248.039062 151.078125 248.289062 150.476562 248.453125 150.070312 C 248.660156 149.570312 248.890625 149.003906 249.15625 148.558594 C 249.4375 148.082031 249.976562 147.792969 250.675781 147.742188 C 251.667969 147.667969 252.769531 148.074219 253.285156 148.707031 C 253.539062 149.015625 253.546875 149.308594 253.507812 149.496094 C 253.386719 150.113281 252.632812 150.519531 251.90625 150.910156 C 251.621094 151.0625 251.355469 151.207031 251.171875 151.339844 C 250.839844 151.578125 250.839844 151.769531 250.839844 152.152344 C 250.84375 152.421875 250.84375 152.757812 250.6875 153.121094 C 250.476562 153.609375 250.003906 153.746094 249.542969 153.746094 " fill-opacity="1" fill-rule="nonzero"/><path fill="#016900" d="M 242.019531 163.777344 C 242.019531 163.777344 253.5 160.519531 264.40625 164.542969 C 265.246094 169.386719 265.820312 173.566406 266.222656 176.878906 C 266.933594 182.710938 266.492188 180.847656 267.375 189.359375 C 267.921875 194.652344 268.066406 195.136719 267.5625 196.070312 C 265.03125 200.769531 254.835938 200.511719 250.917969 199.519531 C 250.636719 199.449219 249.488281 199.144531 247.605469 198.667969 C 245.449219 198.125 243.679688 197.695312 242.496094 197.410156 C 241.855469 197.121094 240.996094 196.605469 240.390625 195.683594 C 239.042969 193.621094 239.945312 190.953125 240.390625 189.167969 C 241.539062 184.589844 240.03125 184.492188 240.390625 176.136719 C 240.515625 173.214844 240.882812 168.972656 242.019531 163.777344 " fill-opacity="1" fill-rule="nonzero"/><path fill="#ffffff" d="M 263.019531 199.652344 C 262.832031 199.652344 262.664062 199.515625 262.636719 199.320312 C 262.605469 199.109375 262.753906 198.910156 262.964844 198.878906 C 263.171875 198.847656 268.050781 198.070312 267.40625 193.4375 C 267.378906 193.226562 267.523438 193.03125 267.738281 193 C 267.945312 192.972656 268.148438 193.117188 268.175781 193.332031 C 268.929688 198.734375 263.136719 199.640625 263.074219 199.648438 C 263.058594 199.652344 263.039062 199.652344 263.019531 199.652344 " fill-opacity="1" fill-rule="nonzero"/><path fill="#ffffff" d="M 249.722656 195.179688 C 249.625 195.179688 249.527344 195.144531 249.449219 195.070312 C 244.875 190.550781 243.929688 183.714844 243.890625 183.425781 C 243.867188 183.210938 244.015625 183.015625 244.226562 182.988281 C 244.441406 182.960938 244.632812 183.109375 244.660156 183.324219 C 244.671875 183.390625 245.613281 190.1875 249.996094 194.515625 C 250.148438 194.664062 250.148438 194.910156 250 195.0625 C 249.925781 195.140625 249.824219 195.179688 249.722656 195.179688 " fill-opacity="1" fill-rule="nonzero"/><path fill="#016900" d="M 237.945312 157.605469 C 237.949219 157.402344 238.097656 157.230469 238.296875 157.191406 L 249.640625 153.652344 L 248.65625 151.308594 C 248.65625 151.308594 233.300781 146.425781 226.09375 152.65625 C 218.886719 158.886719 233.371094 174.277344 241.550781 177.84375 L 249.039062 162.789062 L 238.269531 158.046875 C 238.070312 157.992188 237.9375 157.8125 237.945312 157.605469 " fill-opacity="1" fill-rule="nonzero"/><path fill="#ffffff" d="M 273.039062 119.335938 C 273.039062 127.972656 266.050781 134.976562 257.421875 134.976562 C 248.796875 134.976562 241.804688 127.972656 241.804688 119.335938 C 241.804688 110.695312 248.796875 103.695312 257.421875 103.695312 C 266.050781 103.695312 273.039062 110.695312 273.039062 119.335938 " fill-opacity="1" fill-rule="nonzero"/><path fill="#000000" d="M 257.421875 104.082031 C 249.023438 104.082031 242.191406 110.925781 242.191406 119.335938 C 242.191406 127.746094 249.023438 134.589844 257.421875 134.589844 C 265.820312 134.589844 272.652344 127.746094 272.652344 119.335938 C 272.652344 110.925781 265.820312 104.082031 257.421875 104.082031 Z M 257.421875 135.367188 C 248.597656 135.367188 241.417969 128.171875 241.417969 119.335938 C 241.417969 110.496094 248.597656 103.304688 257.421875 103.304688 C 266.25 103.304688 273.429688 110.496094 273.429688 119.335938 C 273.429688 128.171875 266.25 135.367188 257.421875 135.367188 " fill-opacity="1" fill-rule="nonzero"/><path fill="#029f01" d="M 267.261719 119.335938 C 267.261719 124.777344 262.859375 129.1875 257.421875 129.1875 C 251.988281 129.1875 247.582031 124.777344 247.582031 119.335938 C 247.582031 113.894531 251.988281 109.480469 257.421875 109.480469 C 262.859375 109.480469 267.261719 113.894531 267.261719 119.335938 " fill-opacity="1" fill-rule="nonzero"/><path fill="#ffffff" d="M 253.191406 123.796875 C 253.15625 123.796875 253.121094 123.792969 253.089844 123.78125 C 252.882812 123.726562 252.761719 123.511719 252.816406 123.304688 C 253.390625 121.195312 255.320312 119.722656 257.503906 119.722656 C 259.582031 119.722656 261.433594 121.046875 262.105469 123.011719 C 262.175781 123.214844 262.066406 123.4375 261.863281 123.507812 C 261.660156 123.574219 261.441406 123.46875 261.371094 123.265625 C 260.804688 121.613281 259.25 120.5 257.503906 120.5 C 255.671875 120.5 254.050781 121.738281 253.566406 123.511719 C 253.519531 123.683594 253.363281 123.796875 253.191406 123.796875 " fill-opacity="1" fill-rule="nonzero"/><path fill="#ffffff" d="M 254.203125 117.667969 C 254.101562 117.667969 254 117.628906 253.925781 117.554688 L 251.714844 115.339844 C 251.566406 115.1875 251.566406 114.941406 251.714844 114.789062 C 251.867188 114.636719 252.113281 114.636719 252.265625 114.789062 L 254.476562 117.003906 C 254.625 117.15625 254.625 117.402344 254.476562 117.554688 C 254.398438 117.628906 254.300781 117.667969 254.203125 117.667969 " fill-opacity="1" fill-rule="nonzero"/><path fill="#ffffff" d="M 254.203125 117.667969 C 254.101562 117.667969 254 117.628906 253.925781 117.554688 L 251.714844 115.339844 C 251.566406 115.1875 251.566406 114.941406 251.714844 114.789062 C 251.867188 114.636719 252.113281 114.636719 252.265625 114.789062 L 254.476562 117.003906 C 254.625 117.15625 254.625 117.402344 254.476562 117.554688 C 254.398438 117.628906 254.300781 117.667969 254.203125 117.667969 " fill-opacity="1" fill-rule="nonzero"/><path fill="#ffffff" d="M 251.992188 117.667969 C 251.890625 117.667969 251.792969 117.628906 251.714844 117.554688 C 251.566406 117.402344 251.566406 117.15625 251.714844 117.003906 L 253.925781 114.789062 C 254.078125 114.636719 254.324219 114.636719 254.476562 114.789062 C 254.625 114.941406 254.625 115.1875 254.476562 115.339844 L 252.265625 117.554688 C 252.1875 117.628906 252.089844 117.667969 251.992188 117.667969 " fill-opacity="1" fill-rule="nonzero"/><path fill="#ffffff" d="M 262.996094 117.667969 C 262.898438 117.667969 262.800781 117.628906 262.722656 117.554688 L 260.511719 115.339844 C 260.359375 115.1875 260.359375 114.941406 260.511719 114.789062 C 260.664062 114.640625 260.910156 114.640625 261.0625 114.789062 L 263.273438 117.003906 C 263.425781 117.15625 263.425781 117.402344 263.273438 117.554688 C 263.195312 117.628906 263.097656 117.667969 262.996094 117.667969 " fill-opacity="1" fill-rule="nonzero"/><path fill="#ffffff" d="M 260.785156 117.667969 C 260.6875 117.667969 260.589844 117.628906 260.511719 117.554688 C 260.359375 117.402344 260.359375 117.15625 260.511719 117.003906 L 262.722656 114.789062 C 262.875 114.640625 263.117188 114.640625 263.273438 114.789062 C 263.425781 114.941406 263.425781 115.1875 263.273438 115.339844 L 261.0625 117.554688 C 260.984375 117.628906 260.886719 117.667969 260.785156 117.667969 " fill-opacity="1" fill-rule="nonzero"/><path fill="#000000" d="M 204.679688 70.476562 C 204.613281 70.476562 204.546875 70.464844 204.484375 70.4375 C 189.136719 64.03125 171.429688 62.074219 153.28125 64.78125 C 153 64.820312 152.734375 64.628906 152.695312 64.34375 C 152.652344 64.0625 152.847656 63.796875 153.128906 63.753906 C 171.460938 61.019531 189.359375 63 204.878906 69.480469 C 205.144531 69.589844 205.269531 69.894531 205.160156 70.15625 C 205.078125 70.355469 204.882812 70.476562 204.679688 70.476562 " fill-opacity="1" fill-rule="nonzero"/><path fill="#000000" d="M 212.070312 68.265625 C 211.992188 68.265625 211.910156 68.246094 211.835938 68.207031 C 210.515625 67.519531 209.148438 66.855469 207.769531 66.230469 C 188.460938 57.496094 165.097656 55.84375 141.984375 61.578125 C 141.703125 61.648438 141.425781 61.476562 141.355469 61.199219 C 141.289062 60.921875 141.457031 60.640625 141.734375 60.570312 C 165.074219 54.78125 188.679688 56.453125 208.195312 65.285156 C 209.59375 65.917969 210.976562 66.589844 212.3125 67.289062 C 212.566406 67.421875 212.664062 67.734375 212.53125 67.988281 C 212.4375 68.164062 212.261719 68.265625 212.070312 68.265625 " fill-opacity="1" fill-rule="nonzero"/><path fill="#000000" d="M 228.375 86.589844 C 228.171875 86.589844 228 86.429688 227.988281 86.222656 C 227.980469 86.007812 228.144531 85.824219 228.359375 85.816406 L 230.222656 85.726562 C 230.4375 85.714844 230.617188 85.878906 230.628906 86.09375 C 230.640625 86.308594 230.472656 86.492188 230.261719 86.5 L 228.394531 86.589844 C 228.390625 86.589844 228.382812 86.589844 228.375 86.589844 " fill-opacity="1" fill-rule="nonzero"/><path fill="#000000" d="M 234.902344 86.277344 C 234.695312 86.277344 234.523438 86.117188 234.511719 85.90625 C 234.503906 85.691406 234.667969 85.511719 234.882812 85.5 L 236.746094 85.410156 C 236.957031 85.402344 237.140625 85.566406 237.152344 85.78125 C 237.164062 85.996094 236.996094 86.175781 236.78125 86.1875 L 234.921875 86.277344 C 234.914062 86.277344 234.90625 86.277344 234.902344 86.277344 " fill-opacity="1" fill-rule="nonzero"/><path fill="#000000" d="M 232.796875 90.589844 C 232.589844 90.589844 232.421875 90.429688 232.410156 90.222656 L 232.308594 88.355469 C 232.296875 88.140625 232.460938 87.957031 232.675781 87.945312 C 232.894531 87.941406 233.074219 88.101562 233.082031 88.3125 L 233.183594 90.179688 C 233.195312 90.394531 233.03125 90.578125 232.816406 90.589844 C 232.8125 90.589844 232.804688 90.589844 232.796875 90.589844 " fill-opacity="1" fill-rule="nonzero"/><path fill="#000000" d="M 232.445312 84.054688 C 232.238281 84.054688 232.070312 83.894531 232.058594 83.6875 L 231.957031 81.820312 C 231.945312 81.605469 232.109375 81.421875 232.324219 81.410156 C 232.535156 81.402344 232.722656 81.5625 232.730469 81.777344 L 232.832031 83.644531 C 232.84375 83.859375 232.679688 84.042969 232.46875 84.054688 C 232.460938 84.054688 232.453125 84.054688 232.445312 84.054688 " fill-opacity="1" fill-rule="nonzero"/><path fill="#000000" d="M 215.5625 243.785156 C 215.492188 243.785156 215.421875 243.765625 215.359375 243.726562 L 214.03125 242.90625 C 213.851562 242.792969 213.792969 242.550781 213.90625 242.371094 C 214.019531 242.1875 214.257812 242.132812 214.441406 242.246094 L 215.769531 243.066406 C 215.953125 243.179688 216.007812 243.417969 215.894531 243.601562 C 215.820312 243.722656 215.695312 243.785156 215.5625 243.785156 " fill-opacity="1" fill-rule="nonzero"/><path fill="#000000" d="M 220.210938 246.664062 C 220.140625 246.664062 220.070312 246.644531 220.007812 246.605469 L 218.679688 245.785156 C 218.496094 245.671875 218.441406 245.429688 218.550781 245.246094 C 218.664062 245.066406 218.90625 245.007812 219.085938 245.121094 L 220.414062 245.945312 C 220.597656 246.058594 220.652344 246.296875 220.539062 246.480469 C 220.464844 246.597656 220.339844 246.664062 220.210938 246.664062 " fill-opacity="1" fill-rule="nonzero"/><path fill="#000000" d="M 215.390625 247.816406 C 215.324219 247.816406 215.253906 247.796875 215.1875 247.757812 C 215.007812 247.648438 214.949219 247.40625 215.058594 247.226562 L 215.875 245.890625 C 215.984375 245.707031 216.226562 245.648438 216.40625 245.761719 C 216.589844 245.871094 216.648438 246.113281 216.535156 246.296875 L 215.722656 247.628906 C 215.648438 247.75 215.523438 247.816406 215.390625 247.816406 " fill-opacity="1" fill-rule="nonzero"/><path fill="#000000" d="M 218.238281 243.144531 C 218.171875 243.144531 218.101562 243.128906 218.039062 243.089844 C 217.855469 242.976562 217.796875 242.738281 217.910156 242.554688 L 218.722656 241.21875 C 218.835938 241.035156 219.074219 240.980469 219.257812 241.089844 C 219.441406 241.203125 219.496094 241.441406 219.386719 241.625 L 218.574219 242.960938 C 218.5 243.078125 218.371094 243.144531 218.238281 243.144531 " fill-opacity="1" fill-rule="nonzero"/><path fill="#000000" d="M 115.113281 80.429688 C 115.074219 80.429688 115.035156 80.425781 115 80.414062 L 113.550781 79.960938 C 113.347656 79.894531 113.230469 79.675781 113.296875 79.472656 C 113.359375 79.265625 113.578125 79.152344 113.78125 79.214844 L 115.230469 79.671875 C 115.433594 79.734375 115.546875 79.953125 115.484375 80.15625 C 115.433594 80.324219 115.28125 80.429688 115.113281 80.429688 " fill-opacity="1" fill-rule="nonzero"/><path fill="#000000" d="M 110.046875 78.84375 C 110.007812 78.84375 109.96875 78.839844 109.929688 78.824219 L 108.484375 78.371094 C 108.277344 78.308594 108.164062 78.089844 108.230469 77.886719 C 108.292969 77.679688 108.511719 77.566406 108.714844 77.628906 L 110.164062 78.082031 C 110.367188 78.148438 110.480469 78.367188 110.417969 78.570312 C 110.367188 78.738281 110.210938 78.84375 110.046875 78.84375 " fill-opacity="1" fill-rule="nonzero"/><path fill="#000000" d="M 112.414062 77.59375 C 112.375 77.59375 112.335938 77.589844 112.296875 77.574219 C 112.09375 77.515625 111.980469 77.296875 112.042969 77.089844 L 112.484375 75.640625 C 112.546875 75.433594 112.765625 75.316406 112.96875 75.378906 C 113.175781 75.445312 113.289062 75.660156 113.226562 75.867188 L 112.785156 77.320312 C 112.730469 77.488281 112.578125 77.59375 112.414062 77.59375 " fill-opacity="1" fill-rule="nonzero"/><path fill="#000000" d="M 110.855469 82.679688 C 110.820312 82.679688 110.78125 82.671875 110.742188 82.660156 C 110.539062 82.597656 110.421875 82.382812 110.484375 82.175781 L 110.929688 80.722656 C 110.992188 80.519531 111.210938 80.402344 111.414062 80.464844 C 111.621094 80.527344 111.734375 80.746094 111.671875 80.949219 L 111.226562 82.40625 C 111.175781 82.570312 111.023438 82.679688 110.855469 82.679688 " fill-opacity="1" fill-rule="nonzero"/><path fill="#000000" d="M 136.359375 61.480469 C 136.296875 61.480469 136.230469 61.488281 136.164062 61.496094 C 135.488281 61.605469 135.019531 62.246094 135.128906 62.925781 C 135.179688 63.253906 135.355469 63.542969 135.625 63.742188 C 135.894531 63.9375 136.226562 64.015625 136.554688 63.964844 C 137.234375 63.855469 137.699219 63.214844 137.59375 62.535156 C 137.496094 61.921875 136.964844 61.480469 136.359375 61.480469 Z M 136.355469 64.757812 C 135.929688 64.757812 135.519531 64.625 135.167969 64.371094 C 134.734375 64.050781 134.445312 63.582031 134.363281 63.046875 C 134.1875 61.941406 134.941406 60.902344 136.046875 60.726562 C 137.144531 60.554688 138.183594 61.3125 138.359375 62.414062 C 138.53125 63.519531 137.777344 64.558594 136.675781 64.734375 C 136.570312 64.75 136.460938 64.757812 136.355469 64.757812 " fill-opacity="1" fill-rule="nonzero"/></svg>