<svg xmlns="http://www.w3.org/2000/svg" xmlns:xlink="http://www.w3.org/1999/xlink" width="500" zoomAndPan="magnify" viewBox="0 0 375 374.999991" height="500" preserveAspectRatio="xMidYMid meet" version="1.0"><path fill="#ecefed" d="M 33.128906 159.738281 C 46.011719 107.175781 23.460938 92.941406 36.84375 64.070312 C 57.441406 19.652344 147.628906 0.078125 206.714844 8.0625 C 279.082031 17.847656 349.515625 71.257812 361.835938 152.046875 C 374.996094 238.367188 319.730469 319.171875 243.046875 351.621094 C 213.703125 364.039062 178.136719 369.691406 143.714844 368.015625 C 139.035156 367.789062 133.957031 366.242188 129.335938 365.742188 C 125.71875 365.351562 122.546875 366.058594 118.984375 365.5 C 108.699219 363.882812 98.6875 361.558594 89.171875 358.511719 C 84.773438 357.101562 81.898438 352.765625 77.730469 351.046875 C 73 349.097656 67.015625 349.71875 62.640625 347.363281 C 49.394531 340.230469 37.929688 331.234375 29.101562 320.304688 C 24.515625 314.628906 -0.00390625 283.371094 2.390625 242.398438 C 4.371094 208.535156 22.917969 201.402344 33.128906 159.738281 " fill-opacity="1" fill-rule="nonzero"/><path fill="#000000" d="M 106.730469 268.636719 L 277.191406 268.636719 C 279.789062 268.636719 282.117188 267.078125 283.046875 264.714844 L 363.855469 60.28125 C 364.65625 58.246094 364.261719 56.132812 363.101562 54.546875 C 361.984375 53.023438 358.753906 48.519531 358.753906 48.519531 L 187.535156 51.988281 C 184.9375 51.988281 182.613281 53.546875 181.679688 55.910156 L 97.851562 261.335938 C 97.851562 261.335938 100.507812 264.710938 101.8125 266.320312 C 102.941406 267.710938 104.6875 268.636719 106.730469 268.636719 " fill-opacity="1" fill-rule="nonzero"/><path fill="#ffffff" d="M 102.582031 262.546875 L 273.046875 262.546875 C 275.644531 262.546875 277.972656 260.988281 278.902344 258.625 L 359.199219 54.769531 C 360.777344 50.769531 357.742188 46.476562 353.34375 46.476562 L 182.882812 46.476562 C 180.285156 46.476562 177.957031 48.03125 177.027344 50.394531 L 96.726562 254.25 C 95.152344 258.25 98.183594 262.546875 102.582031 262.546875 " fill-opacity="1" fill-rule="nonzero"/><path fill="#000000" d="M 182.878906 47.132812 C 180.570312 47.132812 178.460938 48.539062 177.636719 50.636719 L 97.335938 254.492188 C 96.683594 256.152344 96.886719 257.957031 97.894531 259.4375 C 98.9375 260.972656 100.691406 261.890625 102.582031 261.890625 L 273.046875 261.890625 C 275.359375 261.890625 277.464844 260.480469 278.292969 258.382812 L 358.589844 54.527344 C 359.242188 52.867188 359.039062 51.0625 358.03125 49.582031 C 356.988281 48.046875 355.234375 47.132812 353.34375 47.132812 Z M 273.046875 263.203125 L 102.582031 263.203125 C 100.257812 263.203125 98.097656 262.070312 96.8125 260.175781 C 95.554688 258.328125 95.300781 256.082031 96.117188 254.011719 L 176.414062 50.152344 C 177.4375 47.5625 180.035156 45.820312 182.878906 45.820312 L 353.34375 45.820312 C 355.671875 45.820312 357.828125 46.949219 359.113281 48.84375 C 360.371094 50.691406 360.625 52.9375 359.808594 55.011719 L 279.511719 258.863281 C 278.488281 261.460938 275.894531 263.203125 273.046875 263.203125 " fill-opacity="1" fill-rule="nonzero"/><path fill="#ffffff" d="M 88.367188 249.839844 L 258.832031 249.839844 C 261.425781 249.839844 263.753906 248.277344 264.6875 245.917969 L 344.984375 42.0625 C 346.558594 38.0625 343.527344 33.765625 339.128906 33.765625 L 168.664062 33.765625 C 166.066406 33.765625 163.738281 35.328125 162.808594 37.6875 L 82.511719 241.542969 C 80.9375 245.542969 83.96875 249.839844 88.367188 249.839844 " fill-opacity="1" fill-rule="nonzero"/><path fill="#000000" d="M 168.664062 34.421875 C 166.355469 34.421875 164.246094 35.832031 163.421875 37.929688 L 83.121094 241.78125 C 82.464844 243.445312 82.671875 245.25 83.679688 246.730469 C 84.722656 248.265625 86.476562 249.179688 88.367188 249.179688 L 258.828125 249.179688 C 261.144531 249.179688 263.25 247.773438 264.078125 245.675781 L 344.375 41.824219 C 345.027344 40.160156 344.824219 38.355469 343.816406 36.871094 C 342.773438 35.339844 341.019531 34.421875 339.128906 34.421875 Z M 258.828125 250.492188 L 88.367188 250.492188 C 86.039062 250.492188 83.882812 249.363281 82.59375 247.46875 C 81.339844 245.621094 81.085938 243.375 81.902344 241.300781 L 162.199219 37.445312 C 163.222656 34.855469 165.820312 33.113281 168.664062 33.113281 L 339.128906 33.113281 C 341.453125 33.113281 343.613281 34.242188 344.898438 36.132812 C 346.15625 37.984375 346.410156 40.230469 345.59375 42.304688 L 265.292969 246.15625 C 264.273438 248.75 261.675781 250.492188 258.828125 250.492188 " fill-opacity="1" fill-rule="nonzero"/><path fill="#128212" d="M 102.359375 237.652344 L 252.554688 237.652344 C 254.839844 237.652344 256.894531 236.277344 257.714844 234.199219 L 328.464844 54.582031 C 329.851562 51.058594 327.179688 47.273438 323.304688 47.273438 L 173.109375 47.273438 C 170.820312 47.273438 168.769531 48.648438 167.953125 50.726562 L 97.199219 230.34375 C 95.8125 233.867188 98.484375 237.652344 102.359375 237.652344 " fill-opacity="1" fill-rule="nonzero"/><path fill="#ffffff" d="M 238.316406 166.695312 L 170.941406 166.695312 C 163.96875 166.695312 159.183594 159.671875 161.722656 153.171875 C 163.210938 149.375 166.867188 146.878906 170.941406 146.878906 L 238.316406 146.878906 C 245.289062 146.878906 250.078125 153.902344 247.53125 160.398438 C 246.046875 164.195312 242.390625 166.695312 238.316406 166.695312 " fill-opacity="1" fill-rule="nonzero"/><path fill="#ffffff" d="M 201.757812 108.851562 L 250.476562 108.851562 C 251.703125 108.851562 252.695312 107.859375 252.695312 106.632812 C 252.695312 105.40625 251.703125 104.414062 250.476562 104.414062 L 201.757812 104.414062 C 200.535156 104.414062 199.542969 105.40625 199.542969 106.632812 C 199.542969 107.859375 200.535156 108.851562 201.757812 108.851562 " fill-opacity="1" fill-rule="nonzero"/><path fill="#ffffff" d="M 180.925781 120.117188 L 255.011719 120.117188 C 256.238281 120.117188 257.230469 119.125 257.230469 117.898438 C 257.230469 116.671875 256.238281 115.679688 255.011719 115.679688 L 180.925781 115.679688 C 179.699219 115.679688 178.707031 116.671875 178.707031 117.898438 C 178.707031 119.125 179.699219 120.117188 180.925781 120.117188 " fill-opacity="1" fill-rule="nonzero"/><path fill="#ffffff" d="M 186.84375 131.667969 L 235.5625 131.667969 C 236.789062 131.667969 237.78125 130.675781 237.78125 129.449219 C 237.78125 128.222656 236.789062 127.230469 235.5625 127.230469 L 186.84375 127.230469 C 185.621094 127.230469 184.628906 128.222656 184.628906 129.449219 C 184.628906 130.675781 185.621094 131.667969 186.84375 131.667969 " fill-opacity="1" fill-rule="nonzero"/><path fill="#000000" d="M 252.625 238.015625 L 235.949219 238.015625 C 235.589844 238.015625 235.292969 237.71875 235.292969 237.359375 C 235.292969 236.996094 235.589844 236.703125 235.949219 236.703125 L 252.625 236.703125 C 254.628906 236.703125 256.457031 235.480469 257.171875 233.664062 L 274.722656 189.109375 C 274.855469 188.769531 275.234375 188.605469 275.574219 188.742188 C 275.910156 188.871094 276.074219 189.253906 275.941406 189.589844 L 258.390625 234.144531 C 257.480469 236.460938 255.160156 238.015625 252.625 238.015625 " fill-opacity="1" fill-rule="nonzero"/><path fill="#000000" d="M 154.128906 86.738281 C 154.046875 86.738281 153.964844 86.722656 153.886719 86.691406 C 153.550781 86.558594 153.382812 86.175781 153.519531 85.839844 L 165.21875 56.359375 C 165.351562 56.019531 165.730469 55.855469 166.066406 55.992188 C 166.402344 56.125 166.566406 56.503906 166.433594 56.84375 L 154.738281 86.324219 C 154.632812 86.582031 154.390625 86.738281 154.128906 86.738281 " fill-opacity="1" fill-rule="nonzero"/><path fill="#000000" d="M 312.277344 96.210938 C 312.195312 96.210938 312.117188 96.191406 312.039062 96.164062 C 311.699219 96.03125 311.535156 95.648438 311.667969 95.3125 L 327.921875 54.046875 C 328.488281 52.605469 328.3125 51.042969 327.441406 49.761719 C 326.535156 48.429688 325.015625 47.632812 323.371094 47.632812 L 187.402344 47.632812 C 187.039062 47.632812 186.746094 47.339844 186.746094 46.976562 C 186.746094 46.617188 187.039062 46.324219 187.402344 46.324219 L 323.371094 46.324219 C 325.445312 46.324219 327.375 47.332031 328.523438 49.023438 C 329.644531 50.671875 329.871094 52.679688 329.140625 54.527344 L 312.886719 95.792969 C 312.785156 96.050781 312.539062 96.210938 312.277344 96.210938 " fill-opacity="1" fill-rule="nonzero"/><path fill="#000000" d="M 220.78125 148.453125 L 219.855469 147.527344 L 225.316406 142.058594 L 226.246094 142.984375 L 220.78125 148.453125 " fill-opacity="1" fill-rule="nonzero"/><path fill="#000000" d="M 225.316406 171.464844 L 219.855469 165.996094 L 220.78125 165.070312 L 226.246094 170.539062 L 225.316406 171.464844 " fill-opacity="1" fill-rule="nonzero"/><path fill="#000000" d="M 202.332031 148.453125 L 196.867188 142.984375 L 197.796875 142.058594 L 203.257812 147.527344 L 202.332031 148.453125 " fill-opacity="1" fill-rule="nonzero"/><path fill="#000000" d="M 213.414062 162.140625 L 212.859375 160.949219 C 214.664062 160.109375 215.832031 158.28125 215.832031 156.292969 C 215.832031 153.457031 213.527344 151.152344 210.699219 151.152344 C 208.992188 151.152344 207.398438 152 206.441406 153.417969 L 205.359375 152.683594 C 206.558594 150.902344 208.554688 149.84375 210.699219 149.84375 C 214.25 149.84375 217.140625 152.734375 217.140625 156.292969 C 217.140625 158.789062 215.679688 161.085938 213.414062 162.140625 " fill-opacity="1" fill-rule="nonzero"/><path fill="#ffffff" d="M 217.917969 68.222656 C 224.707031 58.3125 236.664062 53.882812 244.621094 58.324219 C 252.582031 62.761719 253.53125 74.394531 246.742188 84.300781 C 246.320312 84.917969 245.875 85.515625 245.410156 86.089844 C 238.480469 94.726562 231.859375 91.792969 224.398438 87.632812 C 220.34375 85.371094 213.753906 87.804688 213.433594 82.988281 C 213.125 78.351562 214.59375 73.082031 217.917969 68.222656 " fill-opacity="1" fill-rule="nonzero"/><path fill="#014201" d="M 213.4375 82.988281 C 213.757812 87.804688 215.984375 91.9375 220.042969 94.199219 C 227.503906 98.359375 238.476562 94.726562 245.410156 86.09375 C 234.402344 76.066406 219.40625 80.574219 213.4375 82.988281 " fill-opacity="1" fill-rule="nonzero"/><path fill="#000000" d="M 239.015625 74.257812 L 242.429688 69.785156 C 243.71875 68.09375 243.90625 65.960938 242.886719 64.546875 C 242.59375 64.136719 241.074219 63.945312 239.878906 63.804688 C 239.03125 63.703125 238.332031 63.253906 237.929688 62.546875 L 237.390625 61.601562 C 236.6875 60.953125 235.660156 60.691406 234.597656 60.96875 C 234.230469 61.0625 233.867188 61.203125 233.511719 61.390625 L 233.164062 61.570312 C 231.503906 62.4375 230.316406 64.132812 230.152344 65.882812 L 229.640625 71.890625 L 239.015625 74.257812 " fill-opacity="1" fill-rule="nonzero"/><path fill="#ffffff" d="M 237.679688 66.253906 L 231.730469 66.0625 L 228.488281 74.332031 C 227.828125 75.851562 228.117188 77.265625 228.929688 78.003906 L 227.820312 80.554688 C 227.070312 82.277344 227.746094 84.007812 229.332031 84.421875 C 230.910156 84.835938 232.804688 83.769531 233.550781 82.046875 L 235.164062 78.34375 C 236.863281 77.570312 238.332031 76.007812 239.140625 74.148438 L 240.460938 71.113281 C 241.65625 68.359375 240.964844 66.765625 237.679688 66.253906 " fill-opacity="1" fill-rule="nonzero"/><path fill="#000000" d="M 230.050781 85.167969 C 229.75 85.167969 229.457031 85.128906 229.164062 85.054688 C 228.285156 84.824219 227.585938 84.253906 227.191406 83.449219 C 226.738281 82.519531 226.75 81.367188 227.222656 80.289062 L 228.296875 77.816406 C 228.441406 77.484375 228.828125 77.332031 229.15625 77.476562 C 229.488281 77.621094 229.640625 78.007812 229.496094 78.339844 L 228.421875 80.8125 C 228.105469 81.542969 228.085938 82.292969 228.371094 82.875 C 228.59375 83.335938 228.984375 83.652344 229.496094 83.785156 C 230.757812 84.113281 232.335938 83.195312 232.953125 81.78125 L 234.5625 78.078125 C 234.707031 77.75 235.09375 77.597656 235.421875 77.742188 C 235.757812 77.886719 235.910156 78.273438 235.765625 78.605469 L 234.15625 82.304688 C 233.402344 84.035156 231.714844 85.167969 230.050781 85.167969 " fill-opacity="1" fill-rule="nonzero"/><path fill="#000000" d="M 232.191406 66.875 L 229.414062 73.523438 C 228.882812 74.75 228.582031 76.367188 229.109375 77.238281 C 229.339844 77.621094 229.730469 77.832031 230.300781 77.875 C 230.316406 77.875 230.332031 77.875 230.347656 77.878906 L 232.355469 78.171875 C 234.992188 78.144531 237.417969 76.46875 238.539062 73.886719 L 239.859375 70.851562 C 240.394531 69.617188 240.410156 68.507812 239.898438 67.808594 C 239.445312 67.183594 238.59375 66.914062 237.4375 67.027344 C 237.410156 67.03125 237.378906 67.035156 237.351562 67.03125 Z M 232.308594 79.484375 C 232.277344 79.484375 232.246094 79.480469 232.214844 79.476562 L 230.175781 79.179688 C 228.933594 79.078125 228.296875 78.4375 227.984375 77.914062 C 227.167969 76.558594 227.566406 74.492188 228.210938 73.007812 L 231.160156 65.953125 C 231.261719 65.703125 231.519531 65.542969 231.78125 65.550781 L 237.351562 65.71875 C 238.953125 65.570312 240.234375 66.035156 240.957031 67.035156 C 241.75 68.121094 241.785156 69.703125 241.0625 71.375 L 239.742188 74.410156 C 238.40625 77.484375 235.488281 79.472656 232.308594 79.484375 " fill-opacity="1" fill-rule="nonzero"/><path fill="#000000" d="M 119.9375 241.972656 C 121.042969 233.007812 120.40625 234.382812 120.40625 234.382812 L 82.871094 236.59375 C 82.871094 236.59375 79.453125 259.878906 79.238281 261.46875 C 79.058594 262.8125 69.894531 310.09375 62.644531 347.355469 C 70.871094 351.785156 79.78125 355.496094 89.175781 358.503906 C 96.117188 342.90625 103.570312 324.050781 108.800781 305.109375 C 112.921875 321.847656 116.972656 345.597656 118.984375 365.5 C 127.089844 366.773438 135.367188 367.609375 143.710938 368.015625 C 148.910156 333.984375 153.980469 279.371094 141.082031 242.867188 L 119.9375 241.972656 " fill-opacity="1" fill-rule="nonzero"/><path fill="#ecefed" d="M 109.554688 311.789062 C 109.242188 311.789062 108.964844 311.558594 108.910156 311.242188 C 107.488281 302.835938 103.738281 292.050781 100.9375 286.476562 C 97.609375 279.851562 97.246094 273.074219 97.003906 268.589844 C 96.984375 268.226562 97.261719 267.917969 97.625 267.898438 C 97.980469 267.882812 98.292969 268.160156 98.3125 268.519531 C 98.546875 272.894531 98.90625 279.507812 102.109375 285.886719 C 104.953125 291.546875 108.757812 302.496094 110.203125 311.023438 C 110.265625 311.378906 110.023438 311.714844 109.667969 311.777344 C 109.628906 311.785156 109.59375 311.789062 109.554688 311.789062 " fill-opacity="1" fill-rule="nonzero"/><path fill="#ffffff" d="M 148.695312 127.296875 L 148.546875 126.832031 C 148.011719 125.15625 147.820312 123.394531 147.898438 121.640625 C 147.972656 120.023438 148.238281 117.074219 147.667969 116.148438 C 146.066406 113.542969 139.851562 102.554688 128.855469 107.429688 C 120.28125 111.230469 120.914062 124.613281 121.363281 129.15625 C 121.46875 130.207031 121.3125 131.265625 120.921875 132.246094 C 120.898438 132.296875 120.875 132.347656 120.851562 132.402344 L 115.742188 142.878906 C 115.007812 144.40625 115.3125 146.230469 116.503906 147.433594 L 117.160156 148.097656 C 118.605469 149.792969 121.808594 150.636719 123.996094 150.832031 C 125.59375 150.976562 126.808594 150.832031 127.992188 150.214844 C 129.117188 149.625 129.574219 148.875 129.90625 147.632812 C 129.90625 147.632812 132.558594 138.828125 133.625 139.507812 C 137.207031 141.796875 139.117188 141.445312 141.34375 138.832031 C 142.742188 137.195312 144.601562 134.613281 145.941406 130.742188 C 146.082031 130.339844 146.363281 130 146.722656 129.773438 L 148.269531 128.796875 C 148.699219 128.429688 148.871094 127.839844 148.695312 127.296875 " fill-opacity="1" fill-rule="nonzero"/><path fill="#000000" d="M 134.289062 106.851562 C 132.710938 106.851562 130.988281 107.203125 129.121094 108.03125 C 121.179688 111.550781 121.503906 123.933594 122.015625 129.09375 C 122.128906 130.242188 121.957031 131.417969 121.527344 132.492188 C 121.5 132.5625 121.472656 132.625 121.441406 132.6875 L 116.332031 143.167969 C 115.71875 144.4375 115.972656 145.96875 116.964844 146.976562 L 117.625 147.636719 C 117.636719 147.648438 117.648438 147.664062 117.65625 147.671875 C 118.890625 149.121094 121.761719 149.976562 124.054688 150.179688 C 125.625 150.320312 126.679688 150.160156 127.6875 149.632812 C 128.570312 149.171875 128.957031 148.644531 129.273438 147.464844 C 130.179688 144.449219 131.886719 139.351562 133.171875 138.875 C 133.449219 138.773438 133.734375 138.804688 133.976562 138.957031 C 137.5 141.210938 139 140.578125 140.84375 138.410156 C 142.824219 136.085938 144.289062 133.511719 145.324219 130.53125 C 145.507812 129.992188 145.882812 129.527344 146.371094 129.21875 L 147.871094 128.273438 C 148.082031 128.074219 148.160156 127.773438 148.070312 127.5 L 147.921875 127.03125 C 147.386719 125.34375 147.15625 123.519531 147.242188 121.609375 C 147.253906 121.382812 147.269531 121.132812 147.285156 120.867188 C 147.355469 119.558594 147.492188 117.117188 147.109375 116.492188 L 146.933594 116.210938 C 145.382812 113.65625 141.242188 106.851562 134.289062 106.851562 Z M 125.046875 151.539062 C 124.699219 151.539062 124.332031 151.523438 123.9375 151.488281 C 121.574219 151.277344 118.257812 150.378906 116.679688 148.542969 L 116.035156 147.898438 C 114.652344 146.5 114.296875 144.367188 115.152344 142.597656 L 120.261719 132.113281 C 120.28125 132.078125 120.296875 132.039062 120.3125 132.003906 C 120.664062 131.125 120.800781 130.164062 120.710938 129.222656 C 120.171875 123.78125 119.863281 110.699219 128.589844 106.832031 C 135.996094 103.546875 142.546875 106.472656 148.054688 115.527344 L 148.226562 115.804688 C 148.777344 116.707031 148.722656 118.582031 148.59375 120.941406 C 148.578125 121.203125 148.5625 121.449219 148.554688 121.671875 C 148.472656 123.421875 148.679688 125.09375 149.171875 126.632812 L 149.320312 127.101562 C 149.574219 127.898438 149.328125 128.761719 148.6875 129.296875 C 148.667969 129.320312 148.640625 129.335938 148.613281 129.355469 L 147.070312 130.328125 C 146.832031 130.480469 146.652344 130.703125 146.5625 130.960938 C 145.472656 134.097656 143.929688 136.8125 141.84375 139.261719 C 139.375 142.15625 137.101562 142.429688 133.523438 140.222656 C 132.84375 141.042969 131.484375 144.660156 130.53125 147.824219 C 130.195312 149.074219 129.683594 150.066406 128.296875 150.796875 C 127.328125 151.300781 126.316406 151.539062 125.046875 151.539062 " fill-opacity="1" fill-rule="nonzero"/><path fill="#000000" d="M 142.050781 101.0625 C 144.847656 102.503906 146.109375 105.136719 147.648438 105.550781 C 153.230469 107.046875 155.878906 109.949219 153.933594 114.6875 C 150.695312 122.574219 140.898438 119.019531 138.851562 119.039062 C 136.9375 119.054688 133.777344 120.210938 131.917969 124.042969 C 131.675781 124.539062 131.128906 124.816406 130.59375 124.730469 C 129.964844 124.632812 129.515625 124.070312 129.566406 123.429688 C 129.726562 121.417969 129.808594 117.332031 127.894531 116.761719 C 125.492188 116.042969 121.710938 121.636719 125.148438 125.425781 C 126.203125 126.59375 126.183594 128.578125 125.039062 129.699219 C 124.289062 130.425781 122.699219 130.757812 121.324219 130.074219 C 120.488281 129.65625 120.019531 128.8125 119.71875 127.925781 C 118.480469 124.261719 116.875 111.691406 121.03125 104.964844 C 126.039062 96.867188 138.324219 99.140625 142.050781 101.0625 " fill-opacity="1" fill-rule="nonzero"/><path fill="#000000" d="M 133.585938 140.140625 C 133.464844 140.140625 133.34375 140.109375 133.230469 140.035156 C 130.648438 138.378906 129.035156 135.875 128.140625 134.070312 C 127.980469 133.746094 128.109375 133.351562 128.433594 133.191406 C 128.757812 133.027344 129.152344 133.160156 129.3125 133.484375 C 130.136719 135.144531 131.609375 137.4375 133.941406 138.933594 C 134.242188 139.128906 134.332031 139.535156 134.136719 139.839844 C 134.011719 140.035156 133.800781 140.140625 133.585938 140.140625 " fill-opacity="1" fill-rule="nonzero"/><path fill="#ffffff" d="M 63.625 289.84375 L 8.0625 273.761719 C 7.339844 273.550781 6.925781 272.796875 7.132812 272.078125 L 17.015625 237.871094 C 17.222656 237.148438 17.976562 236.734375 18.695312 236.941406 L 74.261719 253.023438 C 74.980469 253.234375 75.394531 253.984375 75.1875 254.707031 L 65.308594 288.914062 C 65.097656 289.636719 64.347656 290.050781 63.625 289.84375 " fill-opacity="1" fill-rule="nonzero"/><path fill="#000000" d="M 19.441406 237.933594 C 18.421875 237.933594 17.484375 238.605469 17.1875 239.628906 L 8.21875 270.683594 C 8.046875 271.285156 8.117188 271.917969 8.417969 272.464844 C 8.71875 273.015625 9.21875 273.410156 9.820312 273.585938 L 62.234375 288.757812 C 63.472656 289.113281 64.773438 288.398438 65.132812 287.15625 L 74.101562 256.101562 C 74.277344 255.5 74.207031 254.867188 73.902344 254.316406 C 73.601562 253.769531 73.105469 253.371094 72.503906 253.199219 L 20.089844 238.027344 C 19.875 237.964844 19.65625 237.933594 19.441406 237.933594 Z M 62.882812 290.160156 C 62.546875 290.160156 62.207031 290.113281 61.867188 290.015625 L 9.453125 274.84375 C 8.515625 274.574219 7.742188 273.953125 7.269531 273.097656 C 6.800781 272.242188 6.691406 271.253906 6.960938 270.316406 L 15.929688 239.261719 C 16.488281 237.328125 18.519531 236.207031 20.453125 236.765625 L 72.867188 251.941406 C 73.804688 252.210938 74.578125 252.832031 75.050781 253.683594 C 75.523438 254.539062 75.632812 255.527344 75.363281 256.464844 L 66.390625 287.519531 C 65.929688 289.117188 64.464844 290.160156 62.882812 290.160156 " fill-opacity="1" fill-rule="nonzero"/><path fill="#ffffff" d="M 16.195312 241.566406 L 16.523438 242.160156 C 19.371094 247.304688 24.132812 251.105469 29.773438 252.738281 L 56.859375 260.578125 C 62.515625 262.214844 68.589844 261.535156 73.742188 258.691406 L 16.195312 241.566406 " fill-opacity="1" fill-rule="nonzero"/><path fill="#000000" d="M 63.058594 262.117188 C 60.925781 262.117188 58.78125 261.816406 56.675781 261.207031 L 29.589844 253.367188 C 23.742188 251.675781 18.902344 247.808594 15.953125 242.480469 L 15.621094 241.886719 C 15.445312 241.566406 15.5625 241.171875 15.878906 240.996094 C 16.195312 240.816406 16.59375 240.933594 16.769531 241.25 L 17.097656 241.84375 C 19.878906 246.867188 24.445312 250.511719 29.953125 252.105469 L 57.042969 259.949219 C 62.570312 261.546875 68.390625 260.898438 73.425781 258.113281 C 73.746094 257.941406 74.140625 258.054688 74.316406 258.375 C 74.492188 258.691406 74.375 259.089844 74.058594 259.265625 C 70.632812 261.15625 66.863281 262.117188 63.058594 262.117188 " fill-opacity="1" fill-rule="nonzero"/><path fill="#000000" d="M 43.78125 263.488281 L 39.4375 262.230469 L 42.367188 252.074219 L 46.714844 253.335938 L 43.78125 263.488281 " fill-opacity="1" fill-rule="nonzero"/><path fill="#ffffff" d="M 196.128906 173.796875 C 196.128906 173.796875 194.828125 164.042969 199.515625 160.652344 C 203.066406 158.085938 208.230469 156.488281 210.238281 155.894531 C 210.820312 155.71875 211.902344 155.84375 212.152344 156.398438 C 212.152344 156.398438 212.605469 157.449219 211.101562 158.160156 L 206.765625 159.972656 C 206.359375 160.164062 206.296875 160.714844 206.65625 160.992188 C 207.746094 161.835938 209.734375 164.1875 210.050781 165.46875 C 210.585938 167.605469 209.445312 169.503906 207.40625 171.25 C 205.371094 173 204.835938 173.332031 204.742188 173.796875 C 204.644531 174.261719 204.597656 176.105469 204.597656 176.105469 L 196.128906 173.796875 " fill-opacity="1" fill-rule="nonzero"/><path fill="#000000" d="M 196.734375 173.28125 L 203.96875 175.253906 C 203.996094 174.671875 204.035156 173.960938 204.097656 173.660156 C 204.222656 173.082031 204.617188 172.75 205.796875 171.757812 C 206.121094 171.484375 206.511719 171.15625 206.984375 170.753906 C 209.039062 168.988281 209.835938 167.308594 209.417969 165.628906 C 209.160156 164.601562 207.359375 162.367188 206.253906 161.511719 C 205.90625 161.238281 205.726562 160.816406 205.773438 160.378906 C 205.820312 159.941406 206.089844 159.566406 206.488281 159.378906 L 210.847656 157.554688 C 211.742188 157.128906 211.554688 156.660156 211.550781 156.65625 C 211.460938 156.535156 210.824219 156.40625 210.425781 156.523438 C 205.835938 157.882812 202.292969 159.453125 199.898438 161.1875 C 196.117188 163.917969 196.558594 171.40625 196.734375 173.28125 Z M 204.597656 176.761719 C 204.539062 176.761719 204.480469 176.753906 204.425781 176.738281 L 195.957031 174.429688 C 195.703125 174.359375 195.515625 174.144531 195.480469 173.882812 C 195.425781 173.46875 194.183594 163.699219 199.132812 160.121094 C 201.644531 158.304688 205.320312 156.671875 210.050781 155.265625 C 210.882812 155.015625 212.324219 155.183594 212.75 156.128906 C 212.996094 156.707031 213.019531 157.976562 211.382812 158.753906 L 207.128906 160.53125 C 208.210938 161.402344 210.308594 163.789062 210.6875 165.308594 C 211.238281 167.523438 210.304688 169.628906 207.835938 171.75 C 207.359375 172.15625 206.964844 172.488281 206.640625 172.761719 C 205.953125 173.339844 205.410156 173.796875 205.382812 173.929688 C 205.324219 174.210938 205.269531 175.382812 205.25 176.125 C 205.246094 176.324219 205.148438 176.511719 204.984375 176.632812 C 204.871094 176.71875 204.734375 176.761719 204.597656 176.761719 " fill-opacity="1" fill-rule="nonzero"/><path fill="#ffffff" d="M 38.871094 233.582031 L 36.308594 237.539062 C 35.515625 238.761719 35.105469 240.191406 35.132812 241.648438 L 46.039062 244.660156 C 46.039062 244.660156 47.203125 250.566406 49.585938 250.839844 C 52.683594 251.195312 50.628906 247.652344 50.539062 246.679688 C 50.449219 245.707031 50.546875 242.359375 49.984375 239.339844 C 49.417969 236.320312 46.988281 232.90625 46.988281 232.90625 L 38.871094 233.582031 " fill-opacity="1" fill-rule="nonzero"/><path fill="#000000" d="M 35.796875 241.152344 L 46.214844 244.027344 C 46.453125 244.09375 46.636719 244.289062 46.683594 244.53125 C 47.128906 246.792969 48.347656 250.039062 49.660156 250.1875 C 50.113281 250.242188 50.441406 250.195312 50.546875 250.0625 C 50.824219 249.714844 50.398438 248.457031 50.191406 247.851562 C 50.035156 247.394531 49.914062 247.035156 49.886719 246.742188 C 49.859375 246.457031 49.851562 246.015625 49.835938 245.460938 C 49.796875 243.929688 49.742188 241.621094 49.339844 239.460938 C 48.902344 237.121094 47.246094 234.476562 46.660156 233.59375 L 39.25 234.207031 L 36.859375 237.894531 C 36.222656 238.875 35.859375 239.992188 35.796875 241.152344 Z M 49.988281 251.519531 C 49.835938 251.519531 49.679688 251.507812 49.511719 251.492188 C 47.046875 251.207031 45.820312 246.664062 45.484375 245.1875 L 34.957031 242.28125 C 34.675781 242.203125 34.480469 241.949219 34.476562 241.660156 C 34.449219 240.066406 34.894531 238.519531 35.757812 237.183594 L 38.324219 233.222656 C 38.433594 233.054688 38.617188 232.945312 38.820312 232.925781 L 46.933594 232.253906 C 47.164062 232.234375 47.386719 232.339844 47.523438 232.527344 C 47.625 232.671875 50.042969 236.09375 50.628906 239.21875 C 51.050781 241.484375 51.109375 243.953125 51.144531 245.425781 C 51.160156 245.960938 51.167969 246.382812 51.191406 246.621094 C 51.203125 246.757812 51.324219 247.113281 51.429688 247.425781 C 51.796875 248.503906 52.300781 249.976562 51.566406 250.882812 C 51.226562 251.308594 50.699219 251.519531 49.988281 251.519531 " fill-opacity="1" fill-rule="nonzero"/><path fill="#014201" d="M 205.800781 176.246094 C 203.820312 172.21875 197.542969 172.847656 194.953125 173.578125 C 194.6875 173.652344 194.453125 173.820312 194.28125 174.042969 C 190.738281 178.648438 187.582031 181.097656 184.929688 182.40625 C 182.136719 183.785156 178.796875 183.363281 176.367188 181.417969 C 166.4375 173.476562 149.695312 159.761719 149.695312 159.761719 C 144.085938 156.609375 138.78125 154.125 133.800781 152.183594 C 129.859375 144.40625 126.664062 143.613281 119.378906 142.078125 C 117.730469 141.730469 116.316406 141.578125 115.121094 141.542969 C 112.347656 141.46875 109.703125 142.71875 107.949219 144.867188 L 106.933594 146.113281 C 92.246094 145.398438 82.875 151.542969 81.394531 152.585938 C 64.621094 164.40625 70.761719 168.515625 54.6875 185.550781 C 38.617188 202.585938 37.671875 232.394531 37.671875 232.394531 C 37.667969 237.214844 44.429688 236.421875 47.9375 235.683594 C 49.121094 235.433594 50 234.4375 50.105469 233.230469 C 50.324219 230.722656 88.433594 162.898438 82.625 216.023438 C 81.941406 222.300781 82.890625 233.046875 80.847656 238.628906 C 78.671875 244.574219 81.191406 251.292969 86.835938 254.152344 C 95.785156 258.683594 109.707031 257.769531 114.691406 257.347656 C 122.28125 256.703125 130.515625 256.058594 136.945312 253.355469 C 139.703125 252.195312 142.75 249.804688 144.570312 248.246094 C 145.578125 247.386719 146.058594 246.054688 145.84375 244.742188 C 145.066406 240.007812 143.320312 227.839844 143.878906 216.769531 C 144.308594 208.304688 146.195312 200.347656 146.96875 197.390625 C 147.121094 196.792969 147.808594 196.515625 148.332031 196.839844 C 152.824219 199.636719 171.019531 210.023438 184.808594 204.328125 C 204.101562 196.355469 206.449219 177.5625 205.800781 176.246094 " fill-opacity="1" fill-rule="nonzero"/><path fill="#ecefed" d="M 250.78125 347.960938 L 252.839844 342.058594 C 259.503906 327.214844 274.199219 317.613281 290.457031 317.484375 L 305.761719 317.363281 C 309.089844 317.335938 312.386719 316.910156 315.582031 316.105469 C 316.777344 315.804688 318.585938 321.328125 319.75 320.921875 C 321.125 320.445312 321.847656 314.011719 323.171875 313.390625 C 324.914062 312.566406 326.605469 311.621094 328.230469 310.554688 L 346.578125 298.523438 C 349.003906 296.929688 351.992188 299.535156 350.746094 302.164062 L 342.949219 318.601562 C 336.132812 332.972656 322.039062 341.773438 306.96875 342.359375 C 305.15625 342.429688 304.671875 336.667969 302.839844 336.496094 C 301.613281 336.382812 299.042969 341.921875 297.8125 341.695312 C 295.777344 341.316406 293.75 340.78125 291.738281 340.082031 C 276.628906 333.308594 250.78125 347.960938 250.78125 347.960938 " fill-opacity="1" fill-rule="nonzero"/><path fill="#ffffff" d="M 264.488281 338.617188 C 264.28125 338.617188 264.074219 338.519531 263.949219 338.332031 C 263.742188 338.035156 263.816406 337.625 264.117188 337.421875 C 272.011719 332.011719 281.21875 329.300781 290.75 329.582031 C 292.714844 329.636719 294.710938 329.808594 296.636719 329.972656 C 297.523438 330.046875 298.398438 330.121094 299.257812 330.1875 C 314.746094 331.316406 324.839844 327.246094 335.246094 315.679688 C 337.753906 312.894531 343.929688 306.515625 343.988281 306.453125 C 344.242188 306.191406 344.65625 306.183594 344.917969 306.4375 C 345.175781 306.6875 345.183594 307.105469 344.929688 307.363281 C 344.871094 307.429688 338.710938 313.789062 336.222656 316.558594 C 325.503906 328.46875 315.113281 332.65625 299.164062 331.496094 C 298.300781 331.429688 297.417969 331.355469 296.527344 331.28125 C 294.613281 331.117188 292.640625 330.949219 290.710938 330.890625 C 281.46875 330.621094 272.523438 333.253906 264.859375 338.503906 C 264.742188 338.582031 264.617188 338.617188 264.488281 338.617188 " fill-opacity="1" fill-rule="nonzero"/><path fill="#ffffff" d="M 250.941406 347.550781 L 255.476562 326.683594 C 259.722656 307.167969 270.34375 289.648438 285.640625 276.875 C 286.394531 276.242188 287.507812 276.289062 288.195312 276.992188 L 290.480469 279.328125 C 291.960938 278.140625 290.777344 272.589844 292.09375 271.257812 C 301.636719 261.597656 306.800781 248.320312 306.167969 234.582031 C 306.027344 231.476562 310.222656 230.382812 311.609375 233.160156 L 317.0625 244.074219 C 320.898438 251.753906 322.003906 260.121094 320.714844 268.039062 C 320.527344 269.171875 315.808594 269.859375 315.527344 270.972656 C 315.25 272.066406 319.410156 273.582031 319.042969 274.648438 C 316.066406 283.234375 310.132812 290.820312 301.734375 295.742188 C 290.308594 302.4375 280.203125 311.160156 271.902344 321.480469 L 250.941406 347.550781 " fill-opacity="1" fill-rule="nonzero"/><path fill="#ecefed" d="M 303.816406 277.242188 C 303.691406 277.242188 303.5625 277.207031 303.449219 277.128906 C 303.148438 276.929688 303.066406 276.523438 303.269531 276.222656 C 309.90625 266.28125 311.722656 254.179688 308.808594 239.226562 C 308.742188 238.871094 308.972656 238.527344 309.328125 238.457031 C 309.6875 238.390625 310.027344 238.621094 310.097656 238.976562 C 313.078125 254.285156 311.199219 266.707031 304.359375 276.949219 C 304.234375 277.140625 304.027344 277.242188 303.816406 277.242188 " fill-opacity="1" fill-rule="nonzero"/><path fill="#ecefed" d="M 261.640625 326.082031 C 261.59375 326.082031 261.539062 326.078125 261.484375 326.0625 C 261.136719 325.976562 260.917969 325.625 261.003906 325.273438 C 261.050781 325.085938 265.761719 306.441406 286.453125 291.984375 C 290.324219 289.277344 295.625 285.578125 300.113281 280.367188 C 300.351562 280.09375 300.761719 280.0625 301.035156 280.300781 C 301.3125 280.535156 301.339844 280.953125 301.105469 281.226562 C 296.507812 286.558594 291.128906 290.316406 287.203125 293.058594 C 266.914062 307.234375 262.324219 325.398438 262.277344 325.582031 C 262.207031 325.882812 261.9375 326.082031 261.640625 326.082031 " fill-opacity="1" fill-rule="nonzero"/><path fill="#ffffff" d="M 21.242188 191.484375 C 21.242188 191.484375 20.210938 138.058594 45.875 107.402344 C 48.292969 104.519531 48.820312 102.296875 51.742188 100.105469 C 53.320312 98.921875 57.773438 101.804688 58.421875 100.941406 C 58.929688 100.269531 57.210938 92.792969 57.707031 92.121094 C 71.449219 73.507812 79.683594 57.941406 84.085938 49.367188 C 85.0625 47.464844 87.882812 47.828125 88.347656 49.914062 C 90.355469 58.902344 93.164062 76.742188 89.390625 95.042969 C 88.976562 97.050781 83.957031 96.429688 83.375 98.441406 C 82.964844 99.851562 87.035156 103.894531 86.53125 105.296875 C 83.574219 113.570312 79.414062 122.089844 72.007812 128.636719 C 41.03125 156.019531 21.242188 191.484375 21.242188 191.484375 " fill-opacity="1" fill-rule="nonzero"/><path fill="#ecefed" d="M 45.472656 136.367188 C 45.300781 136.367188 45.128906 136.296875 45 136.164062 C 44.75 135.898438 44.757812 135.484375 45.019531 135.234375 C 63.65625 117.457031 73.171875 98.542969 77.871094 85.800781 C 82.964844 71.992188 83.660156 62.257812 83.667969 62.164062 C 83.691406 61.800781 84.003906 61.527344 84.363281 61.550781 C 84.726562 61.574219 85 61.886719 84.972656 62.25 C 84.96875 62.347656 84.269531 72.226562 79.121094 86.207031 C 74.371094 99.089844 64.761719 118.214844 45.925781 136.1875 C 45.796875 136.304688 45.636719 136.367188 45.472656 136.367188 " fill-opacity="1" fill-rule="nonzero"/><path fill="#ffffff" d="M 246.636719 308.71875 L 244.53125 312.652344 C 241.3125 318.660156 237.246094 324.164062 232.460938 328.996094 C 232.085938 329.375 232.171875 331.539062 232.289062 333.078125 C 232.363281 334.101562 231.304688 334.820312 230.390625 334.367188 C 229.332031 333.839844 228.207031 333.164062 227.664062 333.738281 C 220.917969 340.886719 215.722656 349.378906 212.433594 358.675781 L 211.296875 361.898438 C 219.859375 359.871094 228.164062 357.367188 236.082031 354.394531 L 245.015625 335.695312 C 247.871094 329.722656 249.871094 323.375 250.957031 316.84375 L 252.003906 310.550781 C 252.539062 307.34375 248.175781 305.851562 246.636719 308.71875 " fill-opacity="1" fill-rule="nonzero"/><path fill="#000000" d="M 194.386719 303.828125 C 193.316406 303.828125 192.441406 304.703125 192.441406 305.773438 C 192.441406 306.847656 193.316406 307.722656 194.386719 307.722656 C 195.460938 307.722656 196.332031 306.847656 196.332031 305.773438 C 196.332031 304.703125 195.460938 303.828125 194.386719 303.828125 Z M 194.386719 309.035156 C 192.589844 309.035156 191.128906 307.570312 191.128906 305.773438 C 191.128906 303.976562 192.589844 302.515625 194.386719 302.515625 C 196.183594 302.515625 197.640625 303.976562 197.640625 305.773438 C 197.640625 307.570312 196.183594 309.035156 194.386719 309.035156 " fill-opacity="1" fill-rule="nonzero"/><path fill="#000000" d="M 28.550781 46.671875 C 26.601562 46.671875 25.015625 48.257812 25.015625 50.210938 C 25.015625 52.164062 26.601562 53.753906 28.550781 53.753906 C 30.503906 53.753906 32.089844 52.164062 32.089844 50.210938 C 32.089844 48.257812 30.503906 46.671875 28.550781 46.671875 Z M 28.550781 55.066406 C 25.878906 55.066406 23.703125 52.886719 23.703125 50.210938 C 23.703125 47.539062 25.878906 45.359375 28.550781 45.359375 C 31.222656 45.359375 33.398438 47.539062 33.398438 50.210938 C 33.398438 52.886719 31.222656 55.066406 28.550781 55.066406 " fill-opacity="1" fill-rule="nonzero"/><path fill="#000000" d="M 25.691406 67.558594 C 24.492188 67.558594 23.515625 68.539062 23.515625 69.738281 C 23.515625 70.941406 24.492188 71.917969 25.691406 71.917969 C 26.890625 71.917969 27.867188 70.941406 27.867188 69.738281 C 27.867188 68.539062 26.890625 67.558594 25.691406 67.558594 Z M 25.691406 73.226562 C 23.769531 73.226562 22.203125 71.664062 22.203125 69.738281 C 22.203125 67.8125 23.769531 66.25 25.691406 66.25 C 27.613281 66.25 29.179688 67.8125 29.179688 69.738281 C 29.179688 71.664062 27.613281 73.226562 25.691406 73.226562 " fill-opacity="1" fill-rule="nonzero"/><path fill="#000000" d="M 316.945312 211.695312 C 316.863281 211.695312 316.78125 211.675781 316.703125 211.644531 C 316.367188 211.511719 316.203125 211.128906 316.335938 210.792969 L 332.09375 171.195312 C 332.226562 170.863281 332.609375 170.699219 332.945312 170.832031 C 333.28125 170.964844 333.445312 171.347656 333.3125 171.683594 L 317.554688 211.277344 C 317.449219 211.535156 317.203125 211.695312 316.945312 211.695312 " fill-opacity="1" fill-rule="nonzero"/><path fill="#000000" d="M 125.121094 84.628906 C 125.042969 84.628906 124.957031 84.613281 124.878906 84.582031 C 124.542969 84.449219 124.378906 84.066406 124.511719 83.730469 L 140.269531 44.132812 C 140.402344 43.796875 140.785156 43.632812 141.121094 43.765625 C 141.457031 43.902344 141.621094 44.28125 141.488281 44.621094 L 125.730469 84.214844 C 125.628906 84.472656 125.382812 84.628906 125.121094 84.628906 " fill-opacity="1" fill-rule="nonzero"/><path fill="#000000" d="M 326.34375 224.835938 C 326.261719 224.835938 326.179688 224.820312 326.101562 224.789062 C 325.761719 224.65625 325.601562 224.273438 325.734375 223.9375 L 332.753906 206.296875 C 332.886719 205.960938 333.269531 205.796875 333.605469 205.929688 C 333.941406 206.0625 334.105469 206.445312 333.972656 206.78125 L 326.949219 224.421875 C 326.851562 224.679688 326.601562 224.835938 326.34375 224.835938 " fill-opacity="1" fill-rule="nonzero"/><path fill="#000000" d="M 110.421875 92.738281 C 110.34375 92.738281 110.261719 92.722656 110.179688 92.691406 C 109.84375 92.554688 109.679688 92.175781 109.8125 91.835938 L 116.835938 74.199219 C 116.96875 73.859375 117.351562 73.695312 117.6875 73.832031 C 118.023438 73.964844 118.1875 74.347656 118.050781 74.683594 L 111.03125 92.324219 C 110.929688 92.578125 110.683594 92.738281 110.421875 92.738281 " fill-opacity="1" fill-rule="nonzero"/><path fill="#000000" d="M 218.621094 296.058594 C 218.542969 296.058594 218.460938 296.042969 218.378906 296.011719 C 218.042969 295.878906 217.878906 295.496094 218.011719 295.160156 L 233.769531 255.566406 C 233.90625 255.230469 234.285156 255.0625 234.621094 255.199219 C 234.957031 255.332031 235.121094 255.714844 234.988281 256.050781 L 219.230469 295.644531 C 219.128906 295.902344 218.882812 296.058594 218.621094 296.058594 " fill-opacity="1" fill-rule="nonzero"/><path fill="#000000" d="M 170.148438 295.300781 C 170.066406 295.300781 169.984375 295.289062 169.902344 295.253906 C 169.566406 295.117188 169.40625 294.734375 169.542969 294.398438 L 177.128906 275.726562 C 177.265625 275.390625 177.644531 275.230469 177.980469 275.367188 C 178.316406 275.503906 178.476562 275.886719 178.34375 276.222656 L 170.753906 294.894531 C 170.652344 295.148438 170.40625 295.300781 170.148438 295.300781 " fill-opacity="1" fill-rule="nonzero"/><path fill="#000000" d="M 50.386719 30.066406 C 50.191406 30.066406 49.996094 29.992188 49.847656 29.839844 C 49.546875 29.542969 49.546875 29.054688 49.847656 28.757812 L 51.574219 27.03125 C 51.871094 26.730469 52.355469 26.730469 52.652344 27.03125 C 52.953125 27.332031 52.953125 27.8125 52.652344 28.113281 L 50.929688 29.839844 C 50.777344 29.992188 50.582031 30.066406 50.386719 30.066406 " fill-opacity="1" fill-rule="nonzero"/><path fill="#000000" d="M 43.125 37.335938 C 42.929688 37.335938 42.730469 37.261719 42.582031 37.113281 C 42.285156 36.8125 42.285156 36.328125 42.582031 36.027344 L 44.308594 34.304688 C 44.609375 34.003906 45.089844 34.003906 45.390625 34.304688 C 45.6875 34.601562 45.6875 35.085938 45.390625 35.382812 L 43.664062 37.113281 C 43.515625 37.261719 43.320312 37.335938 43.125 37.335938 " fill-opacity="1" fill-rule="nonzero"/><path fill="#000000" d="M 52.113281 37.335938 C 51.917969 37.335938 51.722656 37.261719 51.574219 37.113281 L 49.847656 35.382812 C 49.546875 35.085938 49.546875 34.601562 49.847656 34.304688 C 50.144531 34.003906 50.628906 34.003906 50.929688 34.304688 L 52.652344 36.027344 C 52.953125 36.328125 52.953125 36.8125 52.652344 37.113281 C 52.503906 37.261719 52.308594 37.335938 52.113281 37.335938 " fill-opacity="1" fill-rule="nonzero"/><path fill="#000000" d="M 44.851562 30.066406 C 44.65625 30.066406 44.457031 29.992188 44.308594 29.839844 L 42.582031 28.113281 C 42.285156 27.8125 42.285156 27.332031 42.582031 27.03125 C 42.882812 26.730469 43.367188 26.730469 43.664062 27.03125 L 45.390625 28.757812 C 45.6875 29.054688 45.6875 29.542969 45.390625 29.839844 C 45.242188 29.992188 45.046875 30.066406 44.851562 30.066406 " fill-opacity="1" fill-rule="nonzero"/></svg>