<svg xmlns="http://www.w3.org/2000/svg" xmlns:xlink="http://www.w3.org/1999/xlink" width="500" zoomAndPan="magnify" viewBox="0 0 375 374.999991" height="500" preserveAspectRatio="xMidYMid meet" version="1.0"><path fill="#ecefed" d="M 68.359375 164.277344 C 78.308594 123.761719 60.898438 112.789062 71.230469 90.539062 C 87.132812 56.304688 156.753906 41.214844 202.371094 47.371094 C 258.238281 54.910156 312.613281 96.078125 322.121094 158.347656 C 332.28125 224.878906 289.617188 287.160156 230.417969 312.171875 C 207.765625 321.742188 180.308594 326.097656 153.734375 324.808594 C 150.121094 324.632812 146.199219 323.4375 142.636719 323.054688 C 139.84375 322.753906 137.394531 323.300781 134.644531 322.867188 C 126.703125 321.621094 118.976562 319.828125 111.628906 317.480469 C 108.234375 316.394531 106.011719 313.054688 102.796875 311.726562 C 99.140625 310.226562 94.523438 310.703125 91.144531 308.886719 C 80.921875 303.390625 72.070312 296.457031 65.253906 288.035156 C 61.714844 283.660156 42.78125 259.566406 44.632812 227.984375 C 46.160156 201.886719 60.476562 196.386719 68.359375 164.277344 " fill-opacity="1" fill-rule="nonzero"/><path fill="#000000" d="M 125.183594 248.210938 L 256.777344 248.210938 C 258.78125 248.210938 260.582031 247.007812 261.300781 245.1875 L 323.683594 87.621094 C 324.300781 86.050781 323.996094 84.421875 323.101562 83.199219 C 322.238281 82.023438 319.746094 78.550781 319.746094 78.550781 L 187.566406 81.226562 C 185.558594 81.226562 183.761719 82.429688 183.042969 84.246094 L 118.328125 242.582031 C 118.328125 242.582031 120.378906 245.183594 121.382812 246.421875 C 122.257812 247.496094 123.605469 248.210938 125.183594 248.210938 " fill-opacity="1" fill-rule="nonzero"/><path fill="#ffffff" d="M 121.980469 243.515625 L 253.578125 243.515625 C 255.585938 243.515625 257.382812 242.3125 258.097656 240.492188 L 320.089844 83.371094 C 321.304688 80.285156 318.964844 76.976562 315.570312 76.976562 L 183.972656 76.976562 C 181.96875 76.976562 180.167969 78.175781 179.449219 80 L 117.460938 237.121094 C 116.246094 240.203125 118.585938 243.515625 121.980469 243.515625 " fill-opacity="1" fill-rule="nonzero"/><path fill="#000000" d="M 183.96875 77.484375 C 182.1875 77.484375 180.558594 78.570312 179.921875 80.183594 L 117.929688 237.308594 C 117.425781 238.585938 117.582031 239.976562 118.359375 241.121094 C 119.167969 242.300781 120.519531 243.007812 121.980469 243.007812 L 253.578125 243.007812 C 255.363281 243.007812 256.992188 241.925781 257.628906 240.308594 L 319.617188 83.183594 C 320.121094 81.90625 319.964844 80.515625 319.1875 79.371094 C 318.382812 78.1875 317.027344 77.484375 315.570312 77.484375 Z M 253.578125 244.019531 L 121.980469 244.019531 C 120.183594 244.019531 118.519531 243.148438 117.523438 241.691406 C 116.554688 240.265625 116.359375 238.535156 116.988281 236.9375 L 178.980469 79.8125 C 179.769531 77.816406 181.773438 76.472656 183.96875 76.472656 L 315.570312 76.472656 C 317.363281 76.472656 319.03125 77.34375 320.023438 78.800781 C 320.992188 80.226562 321.1875 81.960938 320.558594 83.558594 L 258.570312 240.679688 C 257.78125 242.679688 255.777344 244.019531 253.578125 244.019531 " fill-opacity="1" fill-rule="nonzero"/><path fill="#ffffff" d="M 111.007812 233.71875 L 242.605469 233.71875 C 244.609375 233.71875 246.40625 232.519531 247.125 230.699219 L 309.113281 73.574219 C 310.328125 70.492188 307.992188 67.183594 304.59375 67.183594 L 172.996094 67.183594 C 170.992188 67.183594 169.195312 68.386719 168.476562 70.203125 L 106.484375 227.328125 C 105.269531 230.410156 107.609375 233.71875 111.007812 233.71875 " fill-opacity="1" fill-rule="nonzero"/><path fill="#000000" d="M 172.996094 67.6875 C 171.210938 67.6875 169.582031 68.773438 168.949219 70.390625 L 106.957031 227.511719 C 106.449219 228.792969 106.609375 230.183594 107.386719 231.324219 C 108.191406 232.507812 109.546875 233.214844 111.007812 233.214844 L 242.601562 233.214844 C 244.390625 233.214844 246.015625 232.128906 246.652344 230.511719 L 308.644531 73.390625 C 309.148438 72.109375 308.992188 70.71875 308.210938 69.574219 C 307.410156 68.394531 306.054688 67.6875 304.59375 67.6875 Z M 242.601562 234.226562 L 111.007812 234.226562 C 109.210938 234.226562 107.542969 233.355469 106.550781 231.894531 C 105.582031 230.46875 105.386719 228.738281 106.015625 227.140625 L 168.003906 70.019531 C 168.792969 68.019531 170.800781 66.675781 172.996094 66.675781 L 304.59375 66.675781 C 306.390625 66.675781 308.054688 67.546875 309.046875 69.007812 C 310.019531 70.433594 310.214844 72.164062 309.585938 73.761719 L 247.59375 230.882812 C 246.808594 232.882812 244.800781 234.226562 242.601562 234.226562 " fill-opacity="1" fill-rule="nonzero"/><path fill="#128212" d="M 121.808594 224.328125 L 237.757812 224.328125 C 239.523438 224.328125 241.109375 223.269531 241.742188 221.667969 L 296.359375 83.226562 C 297.433594 80.507812 295.367188 77.59375 292.378906 77.59375 L 176.425781 77.59375 C 174.660156 77.59375 173.078125 78.652344 172.445312 80.253906 L 117.824219 218.695312 C 116.753906 221.410156 118.816406 224.328125 121.808594 224.328125 " fill-opacity="1" fill-rule="nonzero"/><path fill="#ffffff" d="M 226.769531 169.636719 L 174.753906 169.636719 C 169.371094 169.636719 165.675781 164.222656 167.636719 159.214844 C 168.785156 156.289062 171.609375 154.363281 174.753906 154.363281 L 226.769531 154.363281 C 232.148438 154.363281 235.847656 159.777344 233.882812 164.785156 C 232.734375 167.710938 229.914062 169.636719 226.769531 169.636719 " fill-opacity="1" fill-rule="nonzero"/><path fill="#ffffff" d="M 198.542969 125.054688 L 236.15625 125.054688 C 237.101562 125.054688 237.867188 124.289062 237.867188 123.34375 C 237.867188 122.398438 237.101562 121.632812 236.15625 121.632812 L 198.542969 121.632812 C 197.597656 121.632812 196.832031 122.398438 196.832031 123.34375 C 196.832031 124.289062 197.597656 125.054688 198.542969 125.054688 " fill-opacity="1" fill-rule="nonzero"/><path fill="#ffffff" d="M 182.460938 133.738281 L 239.65625 133.738281 C 240.601562 133.738281 241.367188 132.972656 241.367188 132.027344 C 241.367188 131.082031 240.601562 130.316406 239.65625 130.316406 L 182.460938 130.316406 C 181.515625 130.316406 180.75 131.082031 180.75 132.027344 C 180.75 132.972656 181.515625 133.738281 182.460938 133.738281 " fill-opacity="1" fill-rule="nonzero"/><path fill="#ffffff" d="M 187.03125 142.640625 L 224.640625 142.640625 C 225.585938 142.640625 226.351562 141.875 226.351562 140.929688 C 226.351562 139.984375 225.585938 139.21875 224.640625 139.21875 L 187.03125 139.21875 C 186.085938 139.21875 185.320312 139.984375 185.320312 140.929688 C 185.320312 141.875 186.085938 142.640625 187.03125 142.640625 " fill-opacity="1" fill-rule="nonzero"/><path fill="#000000" d="M 237.8125 224.609375 L 224.941406 224.609375 C 224.660156 224.609375 224.433594 224.378906 224.433594 224.101562 C 224.433594 223.824219 224.660156 223.597656 224.941406 223.597656 L 237.8125 223.597656 C 239.359375 223.597656 240.769531 222.65625 241.324219 221.253906 L 254.875 186.914062 C 254.976562 186.652344 255.269531 186.527344 255.527344 186.628906 C 255.789062 186.730469 255.914062 187.023438 255.8125 187.28125 L 242.265625 221.625 C 241.558594 223.410156 239.769531 224.609375 237.8125 224.609375 " fill-opacity="1" fill-rule="nonzero"/><path fill="#000000" d="M 161.773438 108.007812 C 161.710938 108.007812 161.648438 108 161.585938 107.972656 C 161.328125 107.871094 161.199219 107.578125 161.304688 107.316406 L 170.335938 84.59375 C 170.4375 84.335938 170.730469 84.207031 170.992188 84.3125 C 171.25 84.414062 171.375 84.707031 171.273438 84.96875 L 162.242188 107.691406 C 162.164062 107.890625 161.976562 108.007812 161.773438 108.007812 " fill-opacity="1" fill-rule="nonzero"/><path fill="#000000" d="M 283.867188 115.3125 C 283.800781 115.3125 283.742188 115.296875 283.679688 115.277344 C 283.421875 115.171875 283.292969 114.878906 283.394531 114.617188 L 295.941406 82.8125 C 296.378906 81.703125 296.242188 80.5 295.570312 79.507812 C 294.871094 78.484375 293.699219 77.871094 292.429688 77.871094 L 187.460938 77.871094 C 187.183594 77.871094 186.953125 77.644531 186.953125 77.363281 C 186.953125 77.085938 187.183594 76.859375 187.460938 76.859375 L 292.429688 76.859375 C 294.03125 76.859375 295.519531 77.636719 296.40625 78.941406 C 297.273438 80.210938 297.445312 81.757812 296.882812 83.183594 L 284.335938 114.988281 C 284.257812 115.1875 284.066406 115.3125 283.867188 115.3125 " fill-opacity="1" fill-rule="nonzero"/><path fill="#000000" d="M 213.230469 155.578125 L 212.515625 154.863281 L 216.730469 150.648438 L 217.449219 151.363281 L 213.230469 155.578125 " fill-opacity="1" fill-rule="nonzero"/><path fill="#000000" d="M 216.730469 173.3125 L 212.515625 169.101562 L 213.230469 168.382812 L 217.449219 172.601562 L 216.730469 173.3125 " fill-opacity="1" fill-rule="nonzero"/><path fill="#000000" d="M 198.984375 155.578125 L 194.769531 151.363281 L 195.484375 150.648438 L 199.703125 154.863281 L 198.984375 155.578125 " fill-opacity="1" fill-rule="nonzero"/><path fill="#000000" d="M 207.539062 166.125 L 207.113281 165.210938 C 208.507812 164.5625 209.40625 163.152344 209.40625 161.621094 C 209.40625 159.433594 207.628906 157.660156 205.445312 157.660156 C 204.128906 157.660156 202.898438 158.3125 202.160156 159.40625 L 201.324219 158.839844 C 202.25 157.464844 203.789062 156.648438 205.445312 156.648438 C 208.1875 156.648438 210.417969 158.878906 210.417969 161.621094 C 210.417969 163.542969 209.289062 165.316406 207.539062 166.125 " fill-opacity="1" fill-rule="nonzero"/><path fill="#ffffff" d="M 211.019531 93.738281 C 216.261719 86.101562 225.492188 82.6875 231.632812 86.109375 C 237.777344 89.53125 238.511719 98.496094 233.273438 106.128906 C 232.945312 106.609375 232.601562 107.066406 232.246094 107.511719 C 226.894531 114.167969 221.78125 111.90625 216.023438 108.699219 C 212.894531 106.957031 207.804688 108.832031 207.554688 105.117188 C 207.320312 101.546875 208.453125 97.484375 211.019531 93.738281 " fill-opacity="1" fill-rule="nonzero"/><path fill="#014201" d="M 207.558594 105.121094 C 207.808594 108.832031 209.527344 112.015625 212.660156 113.757812 C 218.421875 116.96875 226.890625 114.167969 232.246094 107.515625 C 223.746094 99.785156 212.167969 103.257812 207.558594 105.121094 " fill-opacity="1" fill-rule="nonzero"/><path fill="#000000" d="M 227.304688 98.390625 L 229.941406 94.945312 C 230.9375 93.640625 231.082031 91.996094 230.292969 90.90625 C 230.066406 90.589844 228.894531 90.441406 227.972656 90.335938 C 227.320312 90.257812 226.78125 89.910156 226.46875 89.367188 L 226.050781 88.636719 C 225.511719 88.136719 224.71875 87.933594 223.894531 88.148438 C 223.613281 88.222656 223.332031 88.328125 223.058594 88.472656 L 222.789062 88.613281 C 221.507812 89.28125 220.589844 90.585938 220.464844 91.9375 L 220.070312 96.566406 L 227.304688 98.390625 " fill-opacity="1" fill-rule="nonzero"/><path fill="#ffffff" d="M 226.273438 92.222656 L 221.683594 92.074219 L 219.179688 98.445312 C 218.667969 99.617188 218.894531 100.710938 219.519531 101.277344 L 218.664062 103.242188 C 218.082031 104.570312 218.605469 105.90625 219.828125 106.222656 C 221.050781 106.542969 222.511719 105.722656 223.089844 104.394531 L 224.332031 101.539062 C 225.644531 100.945312 226.777344 99.738281 227.402344 98.308594 L 228.421875 95.964844 C 229.34375 93.84375 228.8125 92.617188 226.273438 92.222656 " fill-opacity="1" fill-rule="nonzero"/><path fill="#000000" d="M 220.386719 106.800781 C 220.15625 106.800781 219.925781 106.769531 219.703125 106.714844 C 219.023438 106.535156 218.484375 106.097656 218.179688 105.476562 C 217.828125 104.761719 217.839844 103.871094 218.203125 103.039062 L 219.03125 101.132812 C 219.140625 100.878906 219.441406 100.761719 219.695312 100.871094 C 219.953125 100.984375 220.070312 101.28125 219.957031 101.539062 L 219.128906 103.445312 C 218.886719 104.003906 218.871094 104.585938 219.089844 105.035156 C 219.261719 105.390625 219.5625 105.632812 219.957031 105.734375 C 220.929688 105.988281 222.152344 105.28125 222.625 104.191406 L 223.867188 101.335938 C 223.980469 101.082031 224.277344 100.964844 224.535156 101.078125 C 224.789062 101.1875 224.910156 101.484375 224.796875 101.742188 L 223.554688 104.59375 C 222.976562 105.925781 221.667969 106.800781 220.386719 106.800781 " fill-opacity="1" fill-rule="nonzero"/><path fill="#000000" d="M 222.039062 92.699219 L 219.894531 97.824219 C 219.484375 98.769531 219.253906 100.015625 219.65625 100.6875 C 219.835938 100.984375 220.136719 101.144531 220.578125 101.175781 C 220.589844 101.175781 220.601562 101.179688 220.613281 101.179688 L 222.164062 101.40625 C 224.199219 101.386719 226.070312 100.09375 226.9375 98.105469 L 227.957031 95.765625 C 228.371094 94.8125 228.382812 93.960938 227.988281 93.417969 C 227.636719 92.9375 226.980469 92.730469 226.089844 92.820312 C 226.066406 92.820312 226.042969 92.824219 226.023438 92.820312 Z M 222.128906 102.417969 C 222.105469 102.417969 222.078125 102.417969 222.054688 102.414062 L 220.484375 102.183594 C 219.523438 102.105469 219.03125 101.613281 218.789062 101.210938 C 218.160156 100.164062 218.464844 98.570312 218.964844 97.425781 L 221.242188 91.988281 C 221.320312 91.796875 221.519531 91.671875 221.722656 91.679688 L 226.023438 91.808594 C 227.257812 91.695312 228.246094 92.054688 228.808594 92.824219 C 229.417969 93.660156 229.445312 94.878906 228.886719 96.167969 L 227.867188 98.507812 C 226.835938 100.878906 224.582031 102.410156 222.128906 102.417969 " fill-opacity="1" fill-rule="nonzero"/><path fill="#000000" d="M 135.378906 227.65625 C 136.230469 220.75 135.742188 221.808594 135.742188 221.808594 L 106.765625 223.511719 C 106.765625 223.511719 104.125 241.460938 103.957031 242.683594 C 103.820312 243.71875 96.746094 280.164062 91.148438 308.882812 C 97.5 312.296875 104.378906 315.160156 111.628906 317.476562 C 116.988281 305.453125 122.742188 290.921875 126.78125 276.320312 C 129.960938 289.222656 133.089844 307.527344 134.644531 322.867188 C 140.902344 323.851562 147.289062 324.492188 153.734375 324.808594 C 157.746094 298.578125 161.660156 256.484375 151.703125 228.347656 L 135.378906 227.65625 " fill-opacity="1" fill-rule="nonzero"/><path fill="#ecefed" d="M 127.363281 281.46875 C 127.121094 281.46875 126.910156 281.292969 126.867188 281.046875 C 125.765625 274.570312 122.875 266.253906 120.710938 261.960938 C 118.140625 256.851562 117.859375 251.628906 117.675781 248.175781 C 117.660156 247.894531 117.875 247.65625 118.152344 247.640625 C 118.425781 247.628906 118.667969 247.839844 118.683594 248.121094 C 118.867188 251.492188 119.140625 256.589844 121.613281 261.503906 C 123.8125 265.867188 126.75 274.308594 127.863281 280.878906 C 127.910156 281.152344 127.726562 281.414062 127.449219 281.460938 C 127.421875 281.464844 127.394531 281.46875 127.363281 281.46875 " fill-opacity="1" fill-rule="nonzero"/><path fill="#ffffff" d="M 157.582031 139.273438 L 157.464844 138.910156 C 157.054688 137.621094 156.902344 136.261719 156.964844 134.910156 C 157.023438 133.664062 157.226562 131.390625 156.785156 130.675781 C 155.550781 128.667969 150.753906 120.199219 142.261719 123.957031 C 135.644531 126.886719 136.132812 137.203125 136.480469 140.703125 C 136.558594 141.515625 136.441406 142.332031 136.136719 143.085938 C 136.121094 143.125 136.105469 143.164062 136.085938 143.203125 L 132.140625 151.28125 C 131.570312 152.457031 131.808594 153.863281 132.726562 154.792969 L 133.234375 155.304688 C 134.351562 156.609375 136.824219 157.261719 138.511719 157.410156 C 139.746094 157.519531 140.683594 157.410156 141.597656 156.933594 C 142.464844 156.480469 142.816406 155.902344 143.074219 154.945312 C 143.074219 154.945312 145.121094 148.15625 145.945312 148.683594 C 148.710938 150.445312 150.1875 150.175781 151.90625 148.164062 C 152.984375 146.898438 154.417969 144.910156 155.453125 141.925781 C 155.5625 141.617188 155.777344 141.351562 156.058594 141.179688 L 157.25 140.429688 C 157.582031 140.144531 157.714844 139.6875 157.582031 139.273438 " fill-opacity="1" fill-rule="nonzero"/><path fill="#000000" d="M 146.457031 123.511719 C 145.238281 123.511719 143.910156 123.78125 142.46875 124.421875 C 136.335938 127.136719 136.589844 136.679688 136.980469 140.65625 C 137.070312 141.539062 136.9375 142.449219 136.605469 143.277344 C 136.585938 143.328125 136.5625 143.378906 136.539062 143.425781 L 132.59375 151.503906 C 132.121094 152.484375 132.316406 153.664062 133.085938 154.4375 L 133.59375 154.949219 C 133.601562 154.957031 133.609375 154.96875 133.617188 154.976562 C 134.570312 156.09375 136.785156 156.753906 138.558594 156.910156 C 139.769531 157.015625 140.582031 156.894531 141.363281 156.488281 C 142.042969 156.132812 142.339844 155.726562 142.585938 154.8125 C 143.285156 152.492188 144.605469 148.5625 145.59375 148.195312 C 145.808594 148.117188 146.027344 148.140625 146.21875 148.257812 C 148.9375 149.996094 150.09375 149.507812 151.519531 147.835938 C 153.046875 146.046875 154.179688 144.058594 154.976562 141.761719 C 155.121094 141.351562 155.40625 140.988281 155.785156 140.75 L 156.945312 140.023438 C 157.105469 139.871094 157.167969 139.640625 157.097656 139.425781 L 156.984375 139.066406 C 156.566406 137.765625 156.390625 136.359375 156.457031 134.886719 C 156.46875 134.714844 156.476562 134.519531 156.488281 134.316406 C 156.546875 133.304688 156.652344 131.425781 156.355469 130.945312 L 156.21875 130.726562 C 155.023438 128.757812 151.824219 123.511719 146.457031 123.511719 Z M 139.320312 157.957031 C 139.054688 157.957031 138.769531 157.945312 138.46875 157.914062 C 136.640625 157.753906 134.082031 157.0625 132.863281 155.648438 L 132.367188 155.148438 C 131.296875 154.074219 131.023438 152.429688 131.683594 151.0625 L 135.628906 142.984375 C 135.644531 142.957031 135.65625 142.925781 135.667969 142.898438 C 135.941406 142.222656 136.046875 141.480469 135.976562 140.757812 C 135.558594 136.558594 135.324219 126.480469 142.058594 123.496094 C 147.773438 120.964844 152.832031 123.21875 157.085938 130.199219 L 157.214844 130.414062 C 157.644531 131.109375 157.601562 132.554688 157.5 134.371094 C 157.488281 134.574219 157.476562 134.765625 157.46875 134.933594 C 157.40625 136.285156 157.570312 137.574219 157.945312 138.757812 L 158.0625 139.121094 C 158.257812 139.734375 158.066406 140.398438 157.574219 140.8125 C 157.558594 140.828125 157.539062 140.84375 157.515625 140.855469 L 156.324219 141.609375 C 156.140625 141.722656 156 141.894531 155.933594 142.09375 C 155.09375 144.511719 153.898438 146.605469 152.289062 148.492188 C 150.382812 150.722656 148.628906 150.933594 145.867188 149.234375 C 145.339844 149.867188 144.292969 152.65625 143.558594 155.089844 C 143.296875 156.054688 142.902344 156.820312 141.832031 157.382812 C 141.082031 157.773438 140.304688 157.957031 139.320312 157.957031 " fill-opacity="1" fill-rule="nonzero"/><path fill="#000000" d="M 152.449219 119.050781 C 154.609375 120.164062 155.582031 122.191406 156.769531 122.507812 C 161.078125 123.660156 163.125 125.902344 161.625 129.554688 C 159.125 135.632812 151.558594 132.890625 149.980469 132.90625 C 148.503906 132.917969 146.0625 133.808594 144.625 136.765625 C 144.441406 137.144531 144.019531 137.359375 143.605469 137.292969 C 143.121094 137.21875 142.773438 136.785156 142.8125 136.292969 C 142.9375 134.738281 143 131.589844 141.523438 131.148438 C 139.667969 130.597656 136.746094 134.90625 139.402344 137.828125 C 140.214844 138.726562 140.199219 140.257812 139.316406 141.121094 C 138.738281 141.683594 137.507812 141.941406 136.449219 141.410156 C 135.800781 141.089844 135.441406 140.441406 135.210938 139.757812 C 134.253906 136.933594 133.011719 127.242188 136.222656 122.058594 C 140.089844 115.816406 149.574219 117.570312 152.449219 119.050781 " fill-opacity="1" fill-rule="nonzero"/><path fill="#000000" d="M 145.914062 149.171875 C 145.820312 149.171875 145.726562 149.144531 145.640625 149.089844 C 143.648438 147.8125 142.402344 145.882812 141.710938 144.492188 C 141.585938 144.242188 141.6875 143.9375 141.9375 143.8125 C 142.1875 143.6875 142.492188 143.792969 142.617188 144.042969 C 143.253906 145.320312 144.386719 147.085938 146.1875 148.238281 C 146.421875 148.390625 146.492188 148.703125 146.339844 148.9375 C 146.246094 149.089844 146.082031 149.171875 145.914062 149.171875 " fill-opacity="1" fill-rule="nonzero"/><path fill="#ffffff" d="M 91.90625 264.554688 L 49.007812 252.160156 C 48.453125 251.996094 48.132812 251.417969 48.292969 250.863281 L 55.921875 224.496094 C 56.082031 223.9375 56.664062 223.621094 57.21875 223.78125 L 100.117188 236.175781 C 100.671875 236.335938 100.992188 236.917969 100.832031 237.472656 L 93.203125 263.839844 C 93.042969 264.394531 92.460938 264.714844 91.90625 264.554688 " fill-opacity="1" fill-rule="nonzero"/><path fill="#000000" d="M 57.792969 224.546875 C 57.007812 224.546875 56.285156 225.0625 56.058594 225.851562 L 49.132812 249.785156 C 48.996094 250.25 49.050781 250.738281 49.285156 251.160156 C 49.519531 251.582031 49.902344 251.890625 50.367188 252.023438 L 90.832031 263.71875 C 91.789062 263.992188 92.792969 263.441406 93.070312 262.484375 L 99.992188 238.546875 C 100.128906 238.085938 100.074219 237.597656 99.839844 237.175781 C 99.605469 236.75 99.222656 236.445312 98.757812 236.308594 L 58.296875 224.617188 C 58.128906 224.570312 57.960938 224.546875 57.792969 224.546875 Z M 91.332031 264.800781 C 91.074219 264.800781 90.808594 264.761719 90.550781 264.6875 L 50.085938 252.996094 C 49.363281 252.785156 48.761719 252.308594 48.398438 251.648438 C 48.035156 250.988281 47.953125 250.226562 48.160156 249.503906 L 55.085938 225.570312 C 55.515625 224.078125 57.082031 223.214844 58.578125 223.644531 L 99.039062 235.339844 C 99.765625 235.550781 100.363281 236.027344 100.726562 236.6875 C 101.089844 237.34375 101.175781 238.105469 100.964844 238.828125 L 94.042969 262.765625 C 93.683594 263.996094 92.554688 264.800781 91.332031 264.800781 " fill-opacity="1" fill-rule="nonzero"/><path fill="#ffffff" d="M 55.289062 227.347656 L 55.542969 227.804688 C 57.738281 231.765625 61.417969 234.699219 65.769531 235.953125 L 86.683594 242 C 91.046875 243.261719 95.738281 242.738281 99.714844 240.542969 L 55.289062 227.347656 " fill-opacity="1" fill-rule="nonzero"/><path fill="#000000" d="M 91.464844 243.1875 C 89.820312 243.1875 88.167969 242.953125 86.542969 242.484375 L 65.628906 236.441406 C 61.117188 235.136719 57.378906 232.15625 55.101562 228.050781 L 54.847656 227.589844 C 54.710938 227.347656 54.800781 227.039062 55.042969 226.90625 C 55.289062 226.769531 55.597656 226.855469 55.730469 227.101562 L 55.984375 227.558594 C 58.132812 231.433594 61.65625 234.242188 65.910156 235.46875 L 86.824219 241.511719 C 91.089844 242.746094 95.582031 242.246094 99.472656 240.101562 C 99.71875 239.964844 100.023438 240.054688 100.160156 240.300781 C 100.292969 240.542969 100.207031 240.851562 99.960938 240.984375 C 97.316406 242.445312 94.40625 243.1875 91.464844 243.1875 " fill-opacity="1" fill-rule="nonzero"/><path fill="#000000" d="M 76.585938 244.242188 L 73.230469 243.269531 L 75.496094 235.445312 L 78.851562 236.414062 L 76.585938 244.242188 " fill-opacity="1" fill-rule="nonzero"/><path fill="#ffffff" d="M 194.199219 175.109375 C 194.199219 175.109375 193.195312 167.59375 196.8125 164.980469 C 199.554688 163.003906 203.542969 161.769531 205.089844 161.3125 C 205.539062 161.179688 206.375 161.273438 206.570312 161.703125 C 206.570312 161.703125 206.917969 162.511719 205.757812 163.058594 L 202.410156 164.457031 C 202.097656 164.601562 202.050781 165.027344 202.324219 165.242188 C 203.167969 165.894531 204.699219 167.707031 204.945312 168.691406 C 205.359375 170.339844 204.476562 171.800781 202.90625 173.148438 C 201.332031 174.496094 200.921875 174.753906 200.847656 175.109375 C 200.769531 175.46875 200.734375 176.890625 200.734375 176.890625 L 194.199219 175.109375 " fill-opacity="1" fill-rule="nonzero"/><path fill="#000000" d="M 194.664062 174.714844 L 200.25 176.234375 C 200.269531 175.785156 200.304688 175.238281 200.351562 175.007812 C 200.445312 174.5625 200.75 174.304688 201.660156 173.539062 C 201.910156 173.332031 202.210938 173.078125 202.578125 172.765625 C 204.167969 171.402344 204.78125 170.109375 204.457031 168.816406 C 204.257812 168.023438 202.867188 166.300781 202.015625 165.640625 C 201.746094 165.433594 201.605469 165.105469 201.644531 164.769531 C 201.679688 164.429688 201.886719 164.140625 202.195312 163.996094 L 205.5625 162.59375 C 206.25 162.265625 206.105469 161.902344 206.105469 161.898438 C 206.035156 161.808594 205.542969 161.707031 205.234375 161.796875 C 201.691406 162.847656 198.957031 164.054688 197.109375 165.390625 C 194.191406 167.496094 194.527344 173.269531 194.664062 174.714844 Z M 200.734375 177.394531 C 200.691406 177.394531 200.644531 177.390625 200.601562 177.378906 L 194.066406 175.597656 C 193.871094 175.546875 193.726562 175.378906 193.695312 175.175781 C 193.652344 174.859375 192.695312 167.328125 196.515625 164.570312 C 198.457031 163.167969 201.292969 161.910156 204.945312 160.828125 C 205.589844 160.636719 206.699219 160.765625 207.03125 161.492188 C 207.21875 161.9375 207.238281 162.917969 205.972656 163.515625 L 202.691406 164.886719 C 203.527344 165.558594 205.144531 167.398438 205.4375 168.570312 C 205.863281 170.273438 205.144531 171.898438 203.234375 173.53125 C 202.867188 173.847656 202.5625 174.101562 202.3125 174.3125 C 201.78125 174.757812 201.363281 175.109375 201.34375 175.214844 C 201.296875 175.429688 201.253906 176.332031 201.238281 176.90625 C 201.234375 177.058594 201.160156 177.203125 201.035156 177.296875 C 200.949219 177.363281 200.839844 177.394531 200.734375 177.394531 " fill-opacity="1" fill-rule="nonzero"/><path fill="#ffffff" d="M 72.796875 221.191406 L 70.816406 224.242188 C 70.207031 225.183594 69.890625 226.285156 69.910156 227.40625 L 78.332031 229.730469 C 78.332031 229.730469 79.230469 234.285156 81.066406 234.492188 C 83.457031 234.765625 81.871094 232.039062 81.800781 231.285156 C 81.734375 230.535156 81.808594 227.957031 81.375 225.628906 C 80.9375 223.300781 79.0625 220.671875 79.0625 220.671875 L 72.796875 221.191406 " fill-opacity="1" fill-rule="nonzero"/><path fill="#000000" d="M 70.421875 227.023438 L 78.464844 229.242188 C 78.648438 229.292969 78.789062 229.445312 78.824219 229.632812 C 79.171875 231.371094 80.113281 233.875 81.125 233.988281 C 81.472656 234.03125 81.726562 233.996094 81.808594 233.894531 C 82.023438 233.625 81.695312 232.65625 81.535156 232.1875 C 81.414062 231.835938 81.320312 231.558594 81.296875 231.332031 C 81.277344 231.117188 81.269531 230.777344 81.261719 230.34375 C 81.230469 229.167969 81.1875 227.386719 80.875 225.722656 C 80.539062 223.917969 79.261719 221.878906 78.808594 221.199219 L 73.085938 221.671875 L 71.242188 224.515625 C 70.75 225.273438 70.46875 226.132812 70.421875 227.023438 Z M 81.375 235.015625 C 81.261719 235.015625 81.136719 235.007812 81.011719 234.996094 C 79.109375 234.777344 78.160156 231.273438 77.898438 230.136719 L 69.773438 227.894531 C 69.558594 227.835938 69.40625 227.640625 69.402344 227.417969 C 69.382812 226.1875 69.722656 224.996094 70.390625 223.964844 L 72.371094 220.914062 C 72.457031 220.785156 72.597656 220.699219 72.753906 220.6875 L 79.019531 220.167969 C 79.199219 220.152344 79.371094 220.230469 79.472656 220.378906 C 79.554688 220.488281 81.421875 223.125 81.871094 225.535156 C 82.195312 227.28125 82.242188 229.183594 82.273438 230.320312 C 82.28125 230.730469 82.289062 231.054688 82.304688 231.242188 C 82.316406 231.347656 82.410156 231.621094 82.492188 231.863281 C 82.773438 232.691406 83.160156 233.828125 82.597656 234.527344 C 82.335938 234.851562 81.925781 235.015625 81.375 235.015625 " fill-opacity="1" fill-rule="nonzero"/><path fill="#014201" d="M 201.667969 177 C 200.136719 173.894531 195.289062 174.378906 193.292969 174.941406 C 193.085938 175 192.902344 175.128906 192.773438 175.300781 C 190.035156 178.851562 187.597656 180.738281 185.550781 181.746094 C 183.398438 182.808594 180.816406 182.484375 178.941406 180.984375 C 171.277344 174.863281 158.351562 164.292969 158.351562 164.292969 C 154.019531 161.863281 149.925781 159.949219 146.078125 158.453125 C 143.039062 152.457031 140.574219 151.847656 134.945312 150.664062 C 133.675781 150.394531 132.585938 150.277344 131.660156 150.253906 C 129.519531 150.195312 127.480469 151.15625 126.125 152.8125 L 125.339844 153.773438 C 114 153.222656 106.765625 157.960938 105.621094 158.761719 C 92.671875 167.875 97.414062 171.039062 85.007812 184.171875 C 72.601562 197.300781 71.871094 220.273438 71.871094 220.273438 C 71.867188 223.992188 77.085938 223.378906 79.792969 222.8125 C 80.710938 222.621094 81.386719 221.851562 81.46875 220.917969 C 81.636719 218.988281 111.058594 166.710938 106.574219 207.660156 C 106.042969 212.496094 106.78125 220.78125 105.203125 225.078125 C 103.519531 229.664062 105.464844 234.84375 109.824219 237.046875 C 116.730469 240.539062 127.480469 239.835938 131.328125 239.507812 C 137.1875 239.011719 143.542969 238.515625 148.507812 236.433594 C 150.636719 235.539062 152.992188 233.695312 154.394531 232.496094 C 155.175781 231.828125 155.542969 230.804688 155.378906 229.792969 C 154.777344 226.144531 153.429688 216.765625 153.859375 208.234375 C 154.191406 201.707031 155.648438 195.574219 156.246094 193.296875 C 156.363281 192.835938 156.894531 192.621094 157.296875 192.871094 C 160.769531 195.027344 174.8125 203.03125 185.460938 198.640625 C 200.351562 192.5 202.164062 178.015625 201.667969 177 " fill-opacity="1" fill-rule="nonzero"/><path fill="#ecefed" d="M 236.390625 309.351562 L 237.980469 304.800781 C 243.125 293.359375 254.46875 285.957031 267.019531 285.859375 L 278.832031 285.765625 C 281.402344 285.746094 283.949219 285.417969 286.414062 284.796875 C 287.335938 284.566406 288.734375 288.824219 289.632812 288.511719 C 290.695312 288.140625 291.253906 283.183594 292.273438 282.703125 C 293.621094 282.070312 294.925781 281.339844 296.179688 280.519531 L 310.34375 271.246094 C 312.21875 270.015625 314.523438 272.027344 313.5625 274.050781 L 307.542969 286.71875 C 302.28125 297.796875 291.398438 304.582031 279.765625 305.03125 C 278.367188 305.085938 277.992188 300.644531 276.578125 300.515625 C 275.632812 300.425781 273.648438 304.695312 272.699219 304.519531 C 271.128906 304.226562 269.5625 303.816406 268.007812 303.277344 C 256.34375 298.054688 236.390625 309.351562 236.390625 309.351562 " fill-opacity="1" fill-rule="nonzero"/><path fill="#ffffff" d="M 246.972656 302.148438 C 246.8125 302.148438 246.652344 302.070312 246.554688 301.929688 C 246.394531 301.699219 246.453125 301.382812 246.683594 301.226562 C 252.78125 297.058594 259.890625 294.96875 267.246094 295.183594 C 268.761719 295.226562 270.300781 295.359375 271.789062 295.484375 C 272.472656 295.542969 273.152344 295.601562 273.8125 295.648438 C 285.773438 296.519531 293.5625 293.382812 301.597656 284.46875 C 303.535156 282.324219 308.300781 277.40625 308.347656 277.355469 C 308.542969 277.15625 308.863281 277.148438 309.0625 277.34375 C 309.261719 277.539062 309.269531 277.859375 309.074219 278.058594 C 309.027344 278.109375 304.273438 283.011719 302.347656 285.148438 C 294.074219 294.324219 286.054688 297.554688 273.742188 296.65625 C 273.074219 296.609375 272.394531 296.550781 271.707031 296.492188 C 270.230469 296.367188 268.703125 296.238281 267.214844 296.191406 C 260.082031 295.984375 253.175781 298.011719 247.257812 302.0625 C 247.167969 302.121094 247.070312 302.148438 246.972656 302.148438 " fill-opacity="1" fill-rule="nonzero"/><path fill="#ffffff" d="M 236.515625 309.035156 L 240.015625 292.949219 C 243.292969 277.910156 251.492188 264.402344 263.300781 254.558594 C 263.882812 254.074219 264.742188 254.105469 265.273438 254.648438 L 267.039062 256.453125 C 268.179688 255.535156 267.265625 251.257812 268.285156 250.230469 C 275.648438 242.785156 279.636719 232.550781 279.148438 221.960938 C 279.039062 219.566406 282.277344 218.722656 283.347656 220.867188 L 287.558594 229.277344 C 290.519531 235.199219 291.375 241.648438 290.378906 247.75 C 290.234375 248.621094 286.589844 249.152344 286.375 250.007812 C 286.160156 250.851562 289.371094 252.019531 289.085938 252.84375 C 286.792969 259.460938 282.207031 265.308594 275.722656 269.101562 C 266.90625 274.261719 259.101562 280.984375 252.695312 288.941406 L 236.515625 309.035156 " fill-opacity="1" fill-rule="nonzero"/><path fill="#ecefed" d="M 277.332031 254.84375 C 277.234375 254.84375 277.136719 254.816406 277.050781 254.757812 C 276.816406 254.601562 276.753906 254.289062 276.910156 254.054688 C 282.035156 246.394531 283.4375 237.066406 281.1875 225.542969 C 281.136719 225.269531 281.3125 225.003906 281.585938 224.949219 C 281.863281 224.894531 282.128906 225.074219 282.183594 225.347656 C 284.484375 237.148438 283.03125 246.722656 277.75 254.617188 C 277.65625 254.765625 277.496094 254.84375 277.332031 254.84375 " fill-opacity="1" fill-rule="nonzero"/><path fill="#ecefed" d="M 244.773438 292.488281 C 244.734375 292.488281 244.695312 292.484375 244.652344 292.472656 C 244.382812 292.40625 244.214844 292.132812 244.28125 291.863281 C 244.316406 291.71875 247.957031 277.347656 263.929688 266.207031 C 266.914062 264.121094 271.007812 261.265625 274.472656 257.253906 C 274.65625 257.042969 274.976562 257.015625 275.1875 257.199219 C 275.398438 257.382812 275.421875 257.703125 275.238281 257.914062 C 271.691406 262.023438 267.539062 264.917969 264.507812 267.035156 C 248.84375 277.960938 245.300781 291.960938 245.265625 292.097656 C 245.210938 292.332031 245.003906 292.488281 244.773438 292.488281 " fill-opacity="1" fill-rule="nonzero"/><path fill="#ffffff" d="M 59.1875 188.742188 C 59.1875 188.742188 58.390625 147.566406 78.203125 123.9375 C 80.070312 121.714844 80.476562 120.003906 82.730469 118.3125 C 83.953125 117.402344 87.386719 119.625 87.886719 118.957031 C 88.277344 118.4375 86.953125 112.675781 87.335938 112.160156 C 97.945312 97.8125 104.300781 85.816406 107.699219 79.207031 C 108.457031 77.742188 110.632812 78.019531 110.992188 79.628906 C 112.539062 86.554688 114.710938 100.304688 111.796875 114.410156 C 111.476562 115.960938 107.601562 115.480469 107.152344 117.027344 C 106.835938 118.117188 109.976562 121.234375 109.589844 122.316406 C 107.308594 128.691406 104.09375 135.257812 98.378906 140.304688 C 74.464844 161.410156 59.1875 188.742188 59.1875 188.742188 " fill-opacity="1" fill-rule="nonzero"/><path fill="#ecefed" d="M 77.890625 146.261719 C 77.757812 146.261719 77.625 146.207031 77.527344 146.105469 C 77.332031 145.902344 77.339844 145.582031 77.542969 145.390625 C 91.929688 131.6875 99.273438 117.105469 102.902344 107.289062 C 106.835938 96.644531 107.371094 89.140625 107.378906 89.066406 C 107.398438 88.789062 107.636719 88.578125 107.914062 88.597656 C 108.195312 88.617188 108.40625 88.855469 108.386719 89.132812 C 108.382812 89.210938 107.84375 96.824219 103.867188 107.597656 C 100.203125 117.527344 92.78125 132.273438 78.242188 146.121094 C 78.144531 146.214844 78.015625 146.261719 77.890625 146.261719 " fill-opacity="1" fill-rule="nonzero"/><path fill="#ffffff" d="M 233.191406 279.105469 L 231.566406 282.136719 C 229.082031 286.765625 225.941406 291.007812 222.246094 294.734375 C 221.957031 295.023438 222.023438 296.691406 222.113281 297.878906 C 222.171875 298.667969 221.355469 299.222656 220.648438 298.871094 C 219.828125 298.464844 218.964844 297.945312 218.542969 298.386719 C 213.335938 303.894531 209.324219 310.441406 206.785156 317.609375 L 205.90625 320.09375 C 212.515625 318.527344 218.929688 316.601562 225.042969 314.308594 L 231.941406 299.894531 C 234.140625 295.292969 235.6875 290.398438 236.527344 285.367188 L 237.335938 280.515625 C 237.746094 278.042969 234.378906 276.894531 233.191406 279.105469 " fill-opacity="1" fill-rule="nonzero"/><path fill="#000000" d="M 192.851562 275.332031 C 192.027344 275.332031 191.351562 276.007812 191.351562 276.835938 C 191.351562 277.664062 192.027344 278.335938 192.851562 278.335938 C 193.683594 278.335938 194.355469 277.664062 194.355469 276.835938 C 194.355469 276.007812 193.683594 275.332031 192.851562 275.332031 Z M 192.851562 279.347656 C 191.46875 279.347656 190.339844 278.21875 190.339844 276.835938 C 190.339844 275.449219 191.46875 274.320312 192.851562 274.320312 C 194.238281 274.320312 195.367188 275.449219 195.367188 276.835938 C 195.367188 278.21875 194.238281 279.347656 192.851562 279.347656 " fill-opacity="1" fill-rule="nonzero"/><path fill="#000000" d="M 64.828125 77.128906 C 63.324219 77.128906 62.097656 78.351562 62.097656 79.859375 C 62.097656 81.363281 63.324219 82.585938 64.828125 82.585938 C 66.335938 82.585938 67.558594 81.363281 67.558594 79.859375 C 67.558594 78.351562 66.335938 77.128906 64.828125 77.128906 Z M 64.828125 83.597656 C 62.765625 83.597656 61.085938 81.917969 61.085938 79.859375 C 61.085938 77.796875 62.765625 76.117188 64.828125 76.117188 C 66.890625 76.117188 68.570312 77.796875 68.570312 79.859375 C 68.570312 81.917969 66.890625 83.597656 64.828125 83.597656 " fill-opacity="1" fill-rule="nonzero"/><path fill="#000000" d="M 62.621094 93.226562 C 61.695312 93.226562 60.941406 93.980469 60.941406 94.90625 C 60.941406 95.832031 61.695312 96.585938 62.621094 96.585938 C 63.546875 96.585938 64.300781 95.832031 64.300781 94.90625 C 64.300781 93.980469 63.546875 93.226562 62.621094 93.226562 Z M 62.621094 97.597656 C 61.136719 97.597656 59.929688 96.390625 59.929688 94.90625 C 59.929688 93.425781 61.136719 92.21875 62.621094 92.21875 C 64.105469 92.21875 65.3125 93.425781 65.3125 94.90625 C 65.3125 96.390625 64.105469 97.597656 62.621094 97.597656 " fill-opacity="1" fill-rule="nonzero"/><path fill="#000000" d="M 287.46875 204.320312 C 287.40625 204.320312 287.339844 204.308594 287.28125 204.285156 C 287.019531 204.179688 286.894531 203.886719 287 203.628906 L 299.164062 173.105469 C 299.265625 172.847656 299.558594 172.722656 299.820312 172.824219 C 300.078125 172.929688 300.207031 173.222656 300.105469 173.484375 L 287.941406 204 C 287.859375 204.199219 287.667969 204.320312 287.46875 204.320312 " fill-opacity="1" fill-rule="nonzero"/><path fill="#000000" d="M 139.378906 106.382812 C 139.320312 106.382812 139.253906 106.375 139.191406 106.347656 C 138.933594 106.246094 138.808594 105.953125 138.910156 105.691406 L 151.074219 75.171875 C 151.179688 74.914062 151.472656 74.785156 151.734375 74.890625 C 151.992188 74.992188 152.121094 75.289062 152.015625 75.546875 L 139.851562 106.066406 C 139.773438 106.261719 139.582031 106.382812 139.378906 106.382812 " fill-opacity="1" fill-rule="nonzero"/><path fill="#000000" d="M 294.722656 214.449219 C 294.660156 214.449219 294.597656 214.4375 294.535156 214.414062 C 294.277344 214.3125 294.148438 214.015625 294.253906 213.757812 L 299.671875 200.160156 C 299.773438 199.902344 300.070312 199.777344 300.328125 199.878906 C 300.589844 199.980469 300.714844 200.277344 300.613281 200.535156 L 295.191406 214.132812 C 295.113281 214.328125 294.925781 214.449219 294.722656 214.449219 " fill-opacity="1" fill-rule="nonzero"/><path fill="#000000" d="M 128.03125 112.632812 C 127.972656 112.632812 127.90625 112.621094 127.847656 112.597656 C 127.585938 112.492188 127.460938 112.199219 127.5625 111.941406 L 132.984375 98.34375 C 133.085938 98.085938 133.378906 97.957031 133.640625 98.0625 C 133.898438 98.164062 134.027344 98.457031 133.921875 98.71875 L 128.503906 112.316406 C 128.425781 112.511719 128.234375 112.632812 128.03125 112.632812 " fill-opacity="1" fill-rule="nonzero"/><path fill="#000000" d="M 211.5625 269.34375 C 211.5 269.34375 211.4375 269.332031 211.375 269.308594 C 211.117188 269.207031 210.992188 268.914062 211.09375 268.652344 L 223.257812 238.136719 C 223.359375 237.875 223.65625 237.75 223.914062 237.851562 C 224.175781 237.953125 224.300781 238.25 224.199219 238.507812 L 212.03125 269.027344 C 211.953125 269.226562 211.765625 269.34375 211.5625 269.34375 " fill-opacity="1" fill-rule="nonzero"/><path fill="#000000" d="M 174.140625 268.761719 C 174.078125 268.761719 174.011719 268.75 173.949219 268.726562 C 173.691406 268.621094 173.566406 268.324219 173.671875 268.066406 L 179.53125 253.675781 C 179.632812 253.414062 179.929688 253.292969 180.1875 253.398438 C 180.445312 253.503906 180.570312 253.796875 180.46875 254.054688 L 174.609375 268.445312 C 174.53125 268.644531 174.339844 268.761719 174.140625 268.761719 " fill-opacity="1" fill-rule="nonzero"/><path fill="#000000" d="M 81.6875 64.328125 C 81.535156 64.328125 81.382812 64.269531 81.269531 64.15625 C 81.039062 63.925781 81.039062 63.550781 81.269531 63.320312 L 82.601562 61.988281 C 82.832031 61.761719 83.203125 61.761719 83.4375 61.988281 C 83.664062 62.222656 83.664062 62.59375 83.4375 62.824219 L 82.101562 64.15625 C 81.988281 64.269531 81.835938 64.328125 81.6875 64.328125 " fill-opacity="1" fill-rule="nonzero"/><path fill="#000000" d="M 76.078125 69.933594 C 75.925781 69.933594 75.777344 69.875 75.660156 69.761719 C 75.429688 69.53125 75.429688 69.15625 75.660156 68.925781 L 76.992188 67.59375 C 77.222656 67.363281 77.597656 67.363281 77.828125 67.59375 C 78.058594 67.824219 78.058594 68.199219 77.828125 68.429688 L 76.496094 69.761719 C 76.378906 69.875 76.230469 69.933594 76.078125 69.933594 " fill-opacity="1" fill-rule="nonzero"/><path fill="#000000" d="M 83.019531 69.933594 C 82.867188 69.933594 82.714844 69.875 82.601562 69.761719 L 81.269531 68.429688 C 81.039062 68.199219 81.039062 67.824219 81.269531 67.59375 C 81.5 67.363281 81.871094 67.363281 82.101562 67.59375 L 83.4375 68.925781 C 83.664062 69.15625 83.664062 69.53125 83.4375 69.761719 C 83.320312 69.875 83.167969 69.933594 83.019531 69.933594 " fill-opacity="1" fill-rule="nonzero"/><path fill="#000000" d="M 77.410156 64.328125 C 77.261719 64.328125 77.109375 64.269531 76.992188 64.15625 L 75.660156 62.824219 C 75.429688 62.59375 75.429688 62.222656 75.660156 61.988281 C 75.890625 61.761719 76.265625 61.761719 76.496094 61.988281 L 77.828125 63.320312 C 78.058594 63.550781 78.058594 63.925781 77.828125 64.15625 C 77.710938 64.269531 77.5625 64.328125 77.410156 64.328125 " fill-opacity="1" fill-rule="nonzero"/></svg>